%TF.GenerationSoftware,KiCad,Pcbnew,8.0.7-8.0.7-0~ubuntu22.04.1*%
%TF.CreationDate,2025-04-19T16:29:59-04:00*%
%TF.ProjectId,whackberry_mobo,77686163-6b62-4657-9272-795f6d6f626f,rev?*%
%TF.SameCoordinates,Original*%
%TF.FileFunction,Legend,Top*%
%TF.FilePolarity,Positive*%
%FSLAX46Y46*%
G04 Gerber Fmt 4.6, Leading zero omitted, Abs format (unit mm)*
G04 Created by KiCad (PCBNEW 8.0.7-8.0.7-0~ubuntu22.04.1) date 2025-04-19 16:29:59*
%MOMM*%
%LPD*%
G01*
G04 APERTURE LIST*
%ADD10C,0.200000*%
%ADD11C,0.150000*%
%ADD12C,0.125000*%
%ADD13C,0.100000*%
%ADD14C,0.254000*%
%ADD15C,0.120000*%
%ADD16C,0.127000*%
G04 APERTURE END LIST*
D10*
X71500000Y-23500000D02*
X70500000Y-22500000D01*
X75500000Y-23500000D02*
X71500000Y-23500000D01*
X75500000Y-25500000D02*
X76500000Y-26500000D01*
G36*
X74100000Y-25600000D02*
G01*
X74200000Y-25600000D01*
X74200000Y-36800000D01*
X74100000Y-36800000D01*
X74100000Y-25600000D01*
G37*
G36*
X63000000Y-46500000D02*
G01*
X63200000Y-46500000D01*
X63200000Y-47700000D01*
X63000000Y-47700000D01*
X63000000Y-46500000D01*
G37*
X71500000Y-25500000D02*
X70500000Y-26500000D01*
G36*
X74000000Y-35300000D02*
G01*
X74100000Y-35300000D01*
X74100000Y-36800000D01*
X74000000Y-36800000D01*
X74000000Y-35300000D01*
G37*
G36*
X61800000Y-35400000D02*
G01*
X72900000Y-35400000D01*
X72900000Y-35500000D01*
X61800000Y-35500000D01*
X61800000Y-35400000D01*
G37*
G36*
X74100000Y-15500000D02*
G01*
X74200000Y-15500000D01*
X74200000Y-23500000D01*
X74100000Y-23500000D01*
X74100000Y-15500000D01*
G37*
X71500000Y-25500000D02*
X75500000Y-25500000D01*
G36*
X63100000Y-36800000D02*
G01*
X63200000Y-36800000D01*
X63200000Y-47700000D01*
X63100000Y-47700000D01*
X63100000Y-36800000D01*
G37*
X76500000Y-22500000D02*
X75500000Y-23500000D01*
G36*
X61800000Y-35400000D02*
G01*
X63100000Y-35400000D01*
X63100000Y-35600000D01*
X61800000Y-35600000D01*
X61800000Y-35400000D01*
G37*
D11*
G36*
X49258581Y-46783852D02*
G01*
X49306490Y-46794613D01*
X49355170Y-46817012D01*
X49398325Y-46850307D01*
X49422728Y-46877329D01*
X49449866Y-46922338D01*
X49465644Y-46972718D01*
X49470132Y-47022009D01*
X49468343Y-47052047D01*
X49456107Y-47102479D01*
X49432279Y-47148235D01*
X49396859Y-47189316D01*
X49368374Y-47212723D01*
X49321526Y-47238753D01*
X49269731Y-47253887D01*
X49219539Y-47258192D01*
X49181603Y-47255745D01*
X49128756Y-47242897D01*
X49080778Y-47219037D01*
X49042219Y-47188583D01*
X49021180Y-47166091D01*
X48992297Y-47121878D01*
X48974967Y-47072874D01*
X48969190Y-47019078D01*
X48970973Y-46989023D01*
X48983168Y-46938469D01*
X49006917Y-46892474D01*
X49042219Y-46851039D01*
X49070786Y-46827383D01*
X49117728Y-46801076D01*
X49169576Y-46785781D01*
X49219783Y-46781430D01*
X49258581Y-46783852D01*
G37*
G36*
X59329202Y-46783852D02*
G01*
X59377111Y-46794613D01*
X59425791Y-46817012D01*
X59468946Y-46850307D01*
X59493349Y-46877329D01*
X59520487Y-46922338D01*
X59536265Y-46972718D01*
X59540753Y-47022009D01*
X59538964Y-47052047D01*
X59526728Y-47102479D01*
X59502900Y-47148235D01*
X59467480Y-47189316D01*
X59438995Y-47212723D01*
X59392147Y-47238753D01*
X59340352Y-47253887D01*
X59290160Y-47258192D01*
X59252224Y-47255745D01*
X59199378Y-47242897D01*
X59151400Y-47219037D01*
X59112840Y-47188583D01*
X59091801Y-47166091D01*
X59062918Y-47121878D01*
X59045588Y-47072874D01*
X59039811Y-47019078D01*
X59041594Y-46989023D01*
X59053789Y-46938469D01*
X59077538Y-46892474D01*
X59112840Y-46851039D01*
X59141408Y-46827383D01*
X59188349Y-46801076D01*
X59240197Y-46785781D01*
X59290404Y-46781430D01*
X59329202Y-46783852D01*
G37*
G36*
X48366485Y-47025209D02*
G01*
X48418423Y-47028716D01*
X48468546Y-47035547D01*
X48516852Y-47045701D01*
X48516852Y-47172463D01*
X48508090Y-47180588D01*
X48469416Y-47213466D01*
X48427894Y-47242928D01*
X48383984Y-47266741D01*
X48347866Y-47280318D01*
X48296764Y-47291510D01*
X48246964Y-47294829D01*
X48224788Y-47294024D01*
X48173883Y-47284396D01*
X48129972Y-47261856D01*
X48097365Y-47223265D01*
X48086496Y-47173928D01*
X48090847Y-47142375D01*
X48116475Y-47097678D01*
X48156106Y-47066217D01*
X48183669Y-47052106D01*
X48230488Y-47036414D01*
X48283875Y-47027291D01*
X48336845Y-47024696D01*
X48366485Y-47025209D01*
G37*
G36*
X58437106Y-47025209D02*
G01*
X58489044Y-47028716D01*
X58539167Y-47035547D01*
X58587473Y-47045701D01*
X58587473Y-47172463D01*
X58578711Y-47180588D01*
X58540037Y-47213466D01*
X58498516Y-47242928D01*
X58454605Y-47266741D01*
X58418488Y-47280318D01*
X58367385Y-47291510D01*
X58317585Y-47294829D01*
X58295409Y-47294024D01*
X58244504Y-47284396D01*
X58200593Y-47261856D01*
X58167986Y-47223265D01*
X58157117Y-47173928D01*
X58161468Y-47142375D01*
X58187096Y-47097678D01*
X58226727Y-47066217D01*
X58254290Y-47052106D01*
X58301109Y-47036414D01*
X58354496Y-47027291D01*
X58407466Y-47024696D01*
X58437106Y-47025209D01*
G37*
G36*
X45151674Y-47007843D02*
G01*
X44820969Y-47007843D01*
X44972889Y-46595561D01*
X44994138Y-46595561D01*
X45151674Y-47007843D01*
G37*
G36*
X55222295Y-47007843D02*
G01*
X54891591Y-47007843D01*
X55043510Y-46595561D01*
X55064759Y-46595561D01*
X55222295Y-47007843D01*
G37*
G36*
X63048061Y-47702695D02*
G01*
X34490249Y-47702695D01*
X34490249Y-47300446D01*
X44583321Y-47300446D01*
X44621179Y-47330000D01*
X44833670Y-47330000D01*
X44871772Y-47300446D01*
X44833670Y-47272358D01*
X44722540Y-47272358D01*
X44798499Y-47065484D01*
X45172679Y-47065484D01*
X45251570Y-47272358D01*
X45144591Y-47272358D01*
X45106734Y-47300446D01*
X45144591Y-47330000D01*
X45364166Y-47330000D01*
X45402023Y-47300446D01*
X45539288Y-47300446D01*
X45577145Y-47330000D01*
X46085170Y-47330000D01*
X46124494Y-47300446D01*
X46367271Y-47300446D01*
X46405129Y-47330000D01*
X46849895Y-47330000D01*
X46887752Y-47301912D01*
X46849895Y-47272358D01*
X46597836Y-47272358D01*
X46597836Y-46961437D01*
X46639399Y-46923896D01*
X46682049Y-46886610D01*
X46686950Y-46882547D01*
X47176936Y-46882547D01*
X47176936Y-46986838D01*
X47177340Y-47007311D01*
X47183393Y-47065637D01*
X47196711Y-47119327D01*
X47217293Y-47168379D01*
X47245140Y-47212795D01*
X47280251Y-47252575D01*
X47307224Y-47275987D01*
X47351749Y-47305254D01*
X47401151Y-47327496D01*
X47455430Y-47342714D01*
X47504388Y-47350031D01*
X47556734Y-47352470D01*
X47573761Y-47352185D01*
X47624374Y-47347906D01*
X47674282Y-47338492D01*
X47723487Y-47323943D01*
X47771987Y-47304260D01*
X47819783Y-47279441D01*
X47819783Y-47172463D01*
X48028855Y-47172463D01*
X48029038Y-47173928D01*
X48034746Y-47219599D01*
X48054836Y-47264671D01*
X48089183Y-47302644D01*
X48100873Y-47311549D01*
X48144646Y-47334904D01*
X48195813Y-47348529D01*
X48248185Y-47352470D01*
X48283799Y-47350646D01*
X48336132Y-47341069D01*
X48387159Y-47323283D01*
X48436882Y-47297288D01*
X48477320Y-47269355D01*
X48516852Y-47235722D01*
X48516852Y-47330000D01*
X48650697Y-47330000D01*
X48688555Y-47300446D01*
X48650697Y-47272358D01*
X48574738Y-47272358D01*
X48574738Y-46896713D01*
X48569657Y-46856800D01*
X48547074Y-46809773D01*
X48510502Y-46772882D01*
X48508457Y-46771416D01*
X48797732Y-46771416D01*
X48835589Y-46800969D01*
X48911549Y-46800969D01*
X48911549Y-47019078D01*
X48911549Y-47533942D01*
X48835589Y-47533942D01*
X48797732Y-47562030D01*
X48835589Y-47591584D01*
X49107187Y-47591584D01*
X49145045Y-47562030D01*
X49107187Y-47533942D01*
X48969190Y-47533942D01*
X48969190Y-47180767D01*
X48981222Y-47197123D01*
X49020283Y-47239859D01*
X49063791Y-47273098D01*
X49111748Y-47296840D01*
X49164152Y-47311085D01*
X49221004Y-47315833D01*
X49252729Y-47314494D01*
X49305181Y-47305703D01*
X49320198Y-47300446D01*
X54653942Y-47300446D01*
X54691800Y-47330000D01*
X54904291Y-47330000D01*
X54942393Y-47300446D01*
X54904291Y-47272358D01*
X54793161Y-47272358D01*
X54869120Y-47065484D01*
X55243300Y-47065484D01*
X55322191Y-47272358D01*
X55215212Y-47272358D01*
X55177355Y-47300446D01*
X55215212Y-47330000D01*
X55434787Y-47330000D01*
X55472644Y-47300446D01*
X55609909Y-47300446D01*
X55647766Y-47330000D01*
X56155792Y-47330000D01*
X56195115Y-47300446D01*
X56437892Y-47300446D01*
X56475750Y-47330000D01*
X56920516Y-47330000D01*
X56958374Y-47301912D01*
X56920516Y-47272358D01*
X56668457Y-47272358D01*
X56668457Y-46961437D01*
X56710020Y-46923896D01*
X56752670Y-46886610D01*
X56757571Y-46882547D01*
X57247557Y-46882547D01*
X57247557Y-46986838D01*
X57247961Y-47007311D01*
X57254014Y-47065637D01*
X57267332Y-47119327D01*
X57287914Y-47168379D01*
X57315761Y-47212795D01*
X57350872Y-47252575D01*
X57377845Y-47275987D01*
X57422370Y-47305254D01*
X57471772Y-47327496D01*
X57526051Y-47342714D01*
X57575009Y-47350031D01*
X57627355Y-47352470D01*
X57644382Y-47352185D01*
X57694995Y-47347906D01*
X57744903Y-47338492D01*
X57794108Y-47323943D01*
X57842608Y-47304260D01*
X57890404Y-47279441D01*
X57890404Y-47172463D01*
X58099476Y-47172463D01*
X58099659Y-47173928D01*
X58105368Y-47219599D01*
X58125457Y-47264671D01*
X58159804Y-47302644D01*
X58171494Y-47311549D01*
X58215267Y-47334904D01*
X58266434Y-47348529D01*
X58318806Y-47352470D01*
X58354420Y-47350646D01*
X58406753Y-47341069D01*
X58457780Y-47323283D01*
X58507503Y-47297288D01*
X58547941Y-47269355D01*
X58587473Y-47235722D01*
X58587473Y-47330000D01*
X58721318Y-47330000D01*
X58759176Y-47300446D01*
X58721318Y-47272358D01*
X58645359Y-47272358D01*
X58645359Y-46896713D01*
X58640278Y-46856800D01*
X58617695Y-46809773D01*
X58581123Y-46772882D01*
X58579078Y-46771416D01*
X58868353Y-46771416D01*
X58906210Y-46800969D01*
X58982170Y-46800969D01*
X58982170Y-47019078D01*
X58982170Y-47533942D01*
X58906210Y-47533942D01*
X58868353Y-47562030D01*
X58906210Y-47591584D01*
X59177808Y-47591584D01*
X59215666Y-47562030D01*
X59177808Y-47533942D01*
X59039811Y-47533942D01*
X59039811Y-47180767D01*
X59051843Y-47197123D01*
X59090904Y-47239859D01*
X59134412Y-47273098D01*
X59182369Y-47296840D01*
X59234773Y-47311085D01*
X59291625Y-47315833D01*
X59323350Y-47314494D01*
X59375802Y-47305703D01*
X59424350Y-47288708D01*
X59468994Y-47263508D01*
X59509734Y-47230104D01*
X59530514Y-47208054D01*
X59560212Y-47166490D01*
X59581424Y-47121139D01*
X59594152Y-47072002D01*
X59598394Y-47019078D01*
X59597021Y-46988384D01*
X59588005Y-46937699D01*
X59587931Y-46937501D01*
X59777913Y-46937501D01*
X59815771Y-46967055D01*
X60381437Y-46967055D01*
X60419295Y-46937501D01*
X60617131Y-46937501D01*
X60654989Y-46967055D01*
X61220655Y-46967055D01*
X61258513Y-46937501D01*
X61456350Y-46937501D01*
X61494207Y-46967055D01*
X62059874Y-46967055D01*
X62097732Y-46937501D01*
X62092136Y-46933349D01*
X62295568Y-46933349D01*
X62333426Y-46962903D01*
X62586706Y-46962903D01*
X62586706Y-47246957D01*
X62616259Y-47285059D01*
X62644347Y-47246957D01*
X62644347Y-46962903D01*
X62897627Y-46962903D01*
X62936950Y-46933349D01*
X62897627Y-46905017D01*
X62644347Y-46905017D01*
X62644347Y-46622428D01*
X62616259Y-46584326D01*
X62586706Y-46622428D01*
X62586706Y-46905017D01*
X62333426Y-46905017D01*
X62295568Y-46933349D01*
X62092136Y-46933349D01*
X62059874Y-46909413D01*
X61494207Y-46909413D01*
X61456350Y-46937501D01*
X61258513Y-46937501D01*
X61220655Y-46909413D01*
X60654989Y-46909413D01*
X60617131Y-46937501D01*
X60419295Y-46937501D01*
X60381437Y-46909413D01*
X59815771Y-46909413D01*
X59777913Y-46937501D01*
X59587931Y-46937501D01*
X59570574Y-46890871D01*
X59544728Y-46847900D01*
X59510467Y-46808785D01*
X59487814Y-46788807D01*
X59444937Y-46760255D01*
X59397947Y-46739860D01*
X59346843Y-46727623D01*
X59291625Y-46723545D01*
X59248340Y-46725998D01*
X59200263Y-46735661D01*
X59153872Y-46754563D01*
X59150271Y-46756543D01*
X59107240Y-46786699D01*
X59071644Y-46820855D01*
X59039811Y-46858611D01*
X59039811Y-46743328D01*
X58906210Y-46743328D01*
X58868353Y-46771416D01*
X58579078Y-46771416D01*
X58568822Y-46764064D01*
X58523446Y-46740938D01*
X58471344Y-46727447D01*
X58418702Y-46723545D01*
X58368268Y-46727172D01*
X58319982Y-46734900D01*
X58269469Y-46745526D01*
X58257905Y-46748280D01*
X58211274Y-46763135D01*
X58173970Y-46798283D01*
X58181542Y-46818066D01*
X58200593Y-46826371D01*
X58231668Y-46819261D01*
X58280949Y-46803900D01*
X58315127Y-46794070D01*
X58365422Y-46784590D01*
X58414549Y-46781430D01*
X58442536Y-46782546D01*
X58492224Y-46791476D01*
X58539602Y-46813182D01*
X58573963Y-46847228D01*
X58587473Y-46896713D01*
X58587473Y-46996608D01*
X58554275Y-46988094D01*
X58503713Y-46977473D01*
X58450590Y-46969941D01*
X58396231Y-46967055D01*
X58379909Y-46967277D01*
X58325846Y-46971556D01*
X58276552Y-46981282D01*
X58226055Y-46999066D01*
X58181786Y-47023963D01*
X58162495Y-47038732D01*
X58128494Y-47075925D01*
X58105987Y-47123686D01*
X58099476Y-47172463D01*
X57890404Y-47172463D01*
X57890404Y-47035931D01*
X57910188Y-47035931D01*
X57949511Y-47006378D01*
X57910188Y-46978290D01*
X57637124Y-46978290D01*
X57599267Y-47006378D01*
X57637124Y-47035931D01*
X57832763Y-47035931D01*
X57832763Y-47246957D01*
X57781716Y-47267901D01*
X57731158Y-47282861D01*
X57681088Y-47291837D01*
X57631507Y-47294829D01*
X57585612Y-47292819D01*
X57534711Y-47285102D01*
X57481077Y-47268785D01*
X57433638Y-47244591D01*
X57392393Y-47212519D01*
X57367274Y-47185306D01*
X57339259Y-47142200D01*
X57319589Y-47093249D01*
X57308264Y-47038456D01*
X57305198Y-46986838D01*
X57305198Y-46884012D01*
X57307294Y-46856512D01*
X57317899Y-46808053D01*
X57319550Y-46802396D01*
X57337288Y-46754326D01*
X57359420Y-46708157D01*
X57373677Y-46684933D01*
X57408899Y-46646142D01*
X57451500Y-46615345D01*
X57497819Y-46593652D01*
X57549794Y-46580964D01*
X57601953Y-46577243D01*
X57619176Y-46577578D01*
X57668139Y-46582601D01*
X57717785Y-46595252D01*
X57762421Y-46615345D01*
X57778343Y-46625054D01*
X57816382Y-46659980D01*
X57834228Y-46706692D01*
X57862316Y-46741863D01*
X57890404Y-46704005D01*
X57890404Y-46576022D01*
X57862316Y-46537920D01*
X57832763Y-46576022D01*
X57832763Y-46595561D01*
X57802204Y-46573678D01*
X57755735Y-46549273D01*
X57704965Y-46532138D01*
X57649894Y-46522272D01*
X57599267Y-46519602D01*
X57580306Y-46520022D01*
X57525963Y-46526334D01*
X57475434Y-46540218D01*
X57428717Y-46561676D01*
X57385812Y-46590708D01*
X57346720Y-46627313D01*
X57334712Y-46640932D01*
X57303336Y-46683657D01*
X57278933Y-46729180D01*
X57261502Y-46777503D01*
X57251043Y-46828625D01*
X57247557Y-46882547D01*
X56757571Y-46882547D01*
X56793715Y-46852584D01*
X56836741Y-46820753D01*
X56843139Y-46816672D01*
X56887177Y-46795474D01*
X56935903Y-46787048D01*
X56964681Y-46791925D01*
X57007466Y-46816601D01*
X57009727Y-46818419D01*
X57051186Y-46846154D01*
X57072191Y-46837606D01*
X57080739Y-46816601D01*
X57073766Y-46798229D01*
X57038485Y-46763112D01*
X57035846Y-46761023D01*
X56989783Y-46736622D01*
X56940055Y-46729162D01*
X56919748Y-46730381D01*
X56870427Y-46742710D01*
X56825994Y-46763845D01*
X56793525Y-46784453D01*
X56751487Y-46815738D01*
X56709221Y-46850749D01*
X56668457Y-46886943D01*
X56668457Y-46743328D01*
X56505303Y-46743328D01*
X56467445Y-46771416D01*
X56505303Y-46800969D01*
X56610816Y-46800969D01*
X56610816Y-47272358D01*
X56475750Y-47272358D01*
X56437892Y-47300446D01*
X56195115Y-47300446D01*
X56155792Y-47272358D01*
X55930600Y-47272358D01*
X55930600Y-46743328D01*
X55706873Y-46743328D01*
X55669016Y-46771416D01*
X55706873Y-46800969D01*
X55872958Y-46800969D01*
X55872958Y-47272358D01*
X55647766Y-47272358D01*
X55609909Y-47300446D01*
X55472644Y-47300446D01*
X55434787Y-47272358D01*
X55382763Y-47272358D01*
X55128410Y-46598492D01*
X55844870Y-46598492D01*
X55927913Y-46598492D01*
X55927913Y-46452191D01*
X55844870Y-46452191D01*
X55844870Y-46598492D01*
X55128410Y-46598492D01*
X55105547Y-46537920D01*
X54818562Y-46537920D01*
X54780460Y-46566008D01*
X54818562Y-46595561D01*
X54987334Y-46595561D01*
X54833937Y-47007843D01*
X54735519Y-47272358D01*
X54691800Y-47272358D01*
X54653942Y-47300446D01*
X49320198Y-47300446D01*
X49353728Y-47288708D01*
X49398373Y-47263508D01*
X49439113Y-47230104D01*
X49459893Y-47208054D01*
X49489591Y-47166490D01*
X49510803Y-47121139D01*
X49523531Y-47072002D01*
X49527773Y-47019078D01*
X49526400Y-46988384D01*
X49517384Y-46937699D01*
X49517310Y-46937501D01*
X49707292Y-46937501D01*
X49745150Y-46967055D01*
X50310816Y-46967055D01*
X50348674Y-46937501D01*
X50546510Y-46937501D01*
X50584368Y-46967055D01*
X51150034Y-46967055D01*
X51187892Y-46937501D01*
X51385729Y-46937501D01*
X51423586Y-46967055D01*
X51989253Y-46967055D01*
X52027110Y-46937501D01*
X52224947Y-46937501D01*
X52262805Y-46967055D01*
X52828471Y-46967055D01*
X52866329Y-46937501D01*
X53064166Y-46937501D01*
X53102023Y-46967055D01*
X53667690Y-46967055D01*
X53705547Y-46937501D01*
X53903384Y-46937501D01*
X53941242Y-46967055D01*
X54506908Y-46967055D01*
X54544766Y-46937501D01*
X54506908Y-46909413D01*
X53941242Y-46909413D01*
X53903384Y-46937501D01*
X53705547Y-46937501D01*
X53667690Y-46909413D01*
X53102023Y-46909413D01*
X53064166Y-46937501D01*
X52866329Y-46937501D01*
X52828471Y-46909413D01*
X52262805Y-46909413D01*
X52224947Y-46937501D01*
X52027110Y-46937501D01*
X51989253Y-46909413D01*
X51423586Y-46909413D01*
X51385729Y-46937501D01*
X51187892Y-46937501D01*
X51150034Y-46909413D01*
X50584368Y-46909413D01*
X50546510Y-46937501D01*
X50348674Y-46937501D01*
X50310816Y-46909413D01*
X49745150Y-46909413D01*
X49707292Y-46937501D01*
X49517310Y-46937501D01*
X49499953Y-46890871D01*
X49474107Y-46847900D01*
X49439846Y-46808785D01*
X49417192Y-46788807D01*
X49374316Y-46760255D01*
X49327326Y-46739860D01*
X49276222Y-46727623D01*
X49221004Y-46723545D01*
X49177719Y-46725998D01*
X49129642Y-46735661D01*
X49083251Y-46754563D01*
X49079650Y-46756543D01*
X49036619Y-46786699D01*
X49001023Y-46820855D01*
X48969190Y-46858611D01*
X48969190Y-46743328D01*
X48835589Y-46743328D01*
X48797732Y-46771416D01*
X48508457Y-46771416D01*
X48498201Y-46764064D01*
X48452825Y-46740938D01*
X48400723Y-46727447D01*
X48348080Y-46723545D01*
X48297647Y-46727172D01*
X48249361Y-46734900D01*
X48198848Y-46745526D01*
X48187284Y-46748280D01*
X48140653Y-46763135D01*
X48103349Y-46798283D01*
X48110921Y-46818066D01*
X48129972Y-46826371D01*
X48161047Y-46819261D01*
X48210327Y-46803900D01*
X48244506Y-46794070D01*
X48294801Y-46784590D01*
X48343928Y-46781430D01*
X48371915Y-46782546D01*
X48421603Y-46791476D01*
X48468981Y-46813182D01*
X48503342Y-46847228D01*
X48516852Y-46896713D01*
X48516852Y-46996608D01*
X48483654Y-46988094D01*
X48433092Y-46977473D01*
X48379968Y-46969941D01*
X48325610Y-46967055D01*
X48309288Y-46967277D01*
X48255225Y-46971556D01*
X48205931Y-46981282D01*
X48155434Y-46999066D01*
X48111165Y-47023963D01*
X48091874Y-47038732D01*
X48057872Y-47075925D01*
X48035366Y-47123686D01*
X48028855Y-47172463D01*
X47819783Y-47172463D01*
X47819783Y-47035931D01*
X47839567Y-47035931D01*
X47878890Y-47006378D01*
X47839567Y-46978290D01*
X47566503Y-46978290D01*
X47528646Y-47006378D01*
X47566503Y-47035931D01*
X47762142Y-47035931D01*
X47762142Y-47246957D01*
X47711095Y-47267901D01*
X47660537Y-47282861D01*
X47610467Y-47291837D01*
X47560886Y-47294829D01*
X47514991Y-47292819D01*
X47464089Y-47285102D01*
X47410456Y-47268785D01*
X47363017Y-47244591D01*
X47321772Y-47212519D01*
X47296652Y-47185306D01*
X47268638Y-47142200D01*
X47248968Y-47093249D01*
X47237643Y-47038456D01*
X47234577Y-46986838D01*
X47234577Y-46884012D01*
X47236673Y-46856512D01*
X47247278Y-46808053D01*
X47248928Y-46802396D01*
X47266667Y-46754326D01*
X47288799Y-46708157D01*
X47303056Y-46684933D01*
X47338277Y-46646142D01*
X47380879Y-46615345D01*
X47427198Y-46593652D01*
X47479173Y-46580964D01*
X47531332Y-46577243D01*
X47548555Y-46577578D01*
X47597518Y-46582601D01*
X47647164Y-46595252D01*
X47691800Y-46615345D01*
X47707721Y-46625054D01*
X47745761Y-46659980D01*
X47763607Y-46706692D01*
X47791695Y-46741863D01*
X47819783Y-46704005D01*
X47819783Y-46576022D01*
X47791695Y-46537920D01*
X47762142Y-46576022D01*
X47762142Y-46595561D01*
X47731583Y-46573678D01*
X47685114Y-46549273D01*
X47634344Y-46532138D01*
X47579273Y-46522272D01*
X47528646Y-46519602D01*
X47509684Y-46520022D01*
X47455342Y-46526334D01*
X47404813Y-46540218D01*
X47358095Y-46561676D01*
X47315191Y-46590708D01*
X47276099Y-46627313D01*
X47264091Y-46640932D01*
X47232715Y-46683657D01*
X47208312Y-46729180D01*
X47190881Y-46777503D01*
X47180422Y-46828625D01*
X47176936Y-46882547D01*
X46686950Y-46882547D01*
X46723093Y-46852584D01*
X46766120Y-46820753D01*
X46772518Y-46816672D01*
X46816556Y-46795474D01*
X46865282Y-46787048D01*
X46894060Y-46791925D01*
X46936845Y-46816601D01*
X46939106Y-46818419D01*
X46980565Y-46846154D01*
X47001570Y-46837606D01*
X47010118Y-46816601D01*
X47003145Y-46798229D01*
X46967864Y-46763112D01*
X46965224Y-46761023D01*
X46919162Y-46736622D01*
X46869434Y-46729162D01*
X46849127Y-46730381D01*
X46799806Y-46742710D01*
X46755373Y-46763845D01*
X46722904Y-46784453D01*
X46680866Y-46815738D01*
X46638600Y-46850749D01*
X46597836Y-46886943D01*
X46597836Y-46743328D01*
X46434682Y-46743328D01*
X46396824Y-46771416D01*
X46434682Y-46800969D01*
X46540195Y-46800969D01*
X46540195Y-47272358D01*
X46405129Y-47272358D01*
X46367271Y-47300446D01*
X46124494Y-47300446D01*
X46085170Y-47272358D01*
X45859979Y-47272358D01*
X45859979Y-46743328D01*
X45636252Y-46743328D01*
X45598394Y-46771416D01*
X45636252Y-46800969D01*
X45802337Y-46800969D01*
X45802337Y-47272358D01*
X45577145Y-47272358D01*
X45539288Y-47300446D01*
X45402023Y-47300446D01*
X45364166Y-47272358D01*
X45312142Y-47272358D01*
X45057789Y-46598492D01*
X45774249Y-46598492D01*
X45857292Y-46598492D01*
X45857292Y-46452191D01*
X45774249Y-46452191D01*
X45774249Y-46598492D01*
X45057789Y-46598492D01*
X45034926Y-46537920D01*
X44747941Y-46537920D01*
X44709839Y-46566008D01*
X44747941Y-46595561D01*
X44916713Y-46595561D01*
X44763316Y-47007843D01*
X44664898Y-47272358D01*
X44621179Y-47272358D01*
X44583321Y-47300446D01*
X34490249Y-47300446D01*
X34490249Y-46937501D01*
X34601360Y-46937501D01*
X34639218Y-46967055D01*
X35204884Y-46967055D01*
X35242742Y-46937501D01*
X35440579Y-46937501D01*
X35478436Y-46967055D01*
X36044103Y-46967055D01*
X36081960Y-46937501D01*
X36279797Y-46937501D01*
X36317655Y-46967055D01*
X36883321Y-46967055D01*
X36921179Y-46937501D01*
X37119016Y-46937501D01*
X37156873Y-46967055D01*
X37722540Y-46967055D01*
X37760397Y-46937501D01*
X37958234Y-46937501D01*
X37996092Y-46967055D01*
X38561758Y-46967055D01*
X38599616Y-46937501D01*
X38797452Y-46937501D01*
X38835310Y-46967055D01*
X39400976Y-46967055D01*
X39438834Y-46937501D01*
X39636671Y-46937501D01*
X39674528Y-46967055D01*
X40240195Y-46967055D01*
X40278053Y-46937501D01*
X40475889Y-46937501D01*
X40513747Y-46967055D01*
X41079413Y-46967055D01*
X41117271Y-46937501D01*
X41315108Y-46937501D01*
X41352965Y-46967055D01*
X41918632Y-46967055D01*
X41956489Y-46937501D01*
X42154326Y-46937501D01*
X42192184Y-46967055D01*
X42757850Y-46967055D01*
X42795708Y-46937501D01*
X42993545Y-46937501D01*
X43031402Y-46967055D01*
X43597069Y-46967055D01*
X43634926Y-46937501D01*
X43832763Y-46937501D01*
X43870621Y-46967055D01*
X44436287Y-46967055D01*
X44474145Y-46937501D01*
X44436287Y-46909413D01*
X43870621Y-46909413D01*
X43832763Y-46937501D01*
X43634926Y-46937501D01*
X43597069Y-46909413D01*
X43031402Y-46909413D01*
X42993545Y-46937501D01*
X42795708Y-46937501D01*
X42757850Y-46909413D01*
X42192184Y-46909413D01*
X42154326Y-46937501D01*
X41956489Y-46937501D01*
X41918632Y-46909413D01*
X41352965Y-46909413D01*
X41315108Y-46937501D01*
X41117271Y-46937501D01*
X41079413Y-46909413D01*
X40513747Y-46909413D01*
X40475889Y-46937501D01*
X40278053Y-46937501D01*
X40240195Y-46909413D01*
X39674528Y-46909413D01*
X39636671Y-46937501D01*
X39438834Y-46937501D01*
X39400976Y-46909413D01*
X38835310Y-46909413D01*
X38797452Y-46937501D01*
X38599616Y-46937501D01*
X38561758Y-46909413D01*
X37996092Y-46909413D01*
X37958234Y-46937501D01*
X37760397Y-46937501D01*
X37722540Y-46909413D01*
X37156873Y-46909413D01*
X37119016Y-46937501D01*
X36921179Y-46937501D01*
X36883321Y-46909413D01*
X36317655Y-46909413D01*
X36279797Y-46937501D01*
X36081960Y-46937501D01*
X36044103Y-46909413D01*
X35478436Y-46909413D01*
X35440579Y-46937501D01*
X35242742Y-46937501D01*
X35204884Y-46909413D01*
X34639218Y-46909413D01*
X34601360Y-46937501D01*
X34490249Y-46937501D01*
X34490249Y-46341080D01*
X63048061Y-46341080D01*
X63048061Y-47702695D01*
G37*
D12*
G36*
X71545082Y-24221051D02*
G01*
X71569827Y-24227325D01*
X71592343Y-24237782D01*
X71612630Y-24252421D01*
X71631167Y-24272440D01*
X71643637Y-24294989D01*
X71650040Y-24320070D01*
X71650976Y-24335097D01*
X71647692Y-24361583D01*
X71637839Y-24385673D01*
X71621417Y-24407367D01*
X71609455Y-24418384D01*
X71587603Y-24433290D01*
X71563446Y-24443938D01*
X71536984Y-24450326D01*
X71511938Y-24452423D01*
X71508217Y-24452456D01*
X71416015Y-24452456D01*
X71416015Y-24586179D01*
X71513101Y-24586179D01*
X71532885Y-24600223D01*
X71513101Y-24615000D01*
X71349214Y-24615000D01*
X71330286Y-24600223D01*
X71349214Y-24586179D01*
X71387194Y-24586179D01*
X71387194Y-24423635D01*
X71416015Y-24423635D01*
X71510293Y-24423635D01*
X71535038Y-24421578D01*
X71560154Y-24414465D01*
X71582766Y-24402272D01*
X71589061Y-24397623D01*
X71606513Y-24380340D01*
X71618924Y-24356893D01*
X71622156Y-24335097D01*
X71617948Y-24309612D01*
X71605326Y-24287012D01*
X71592236Y-24273548D01*
X71570310Y-24258878D01*
X71545671Y-24250297D01*
X71520917Y-24247780D01*
X71416015Y-24247780D01*
X71416015Y-24423635D01*
X71387194Y-24423635D01*
X71387194Y-24247780D01*
X71349214Y-24247780D01*
X71330286Y-24233004D01*
X71349214Y-24218960D01*
X71518108Y-24218960D01*
X71545082Y-24221051D01*
G37*
G36*
X71955217Y-24313395D02*
G01*
X71982018Y-24319391D01*
X72006798Y-24329804D01*
X72029556Y-24344635D01*
X72044574Y-24357934D01*
X72062656Y-24379070D01*
X72076297Y-24402192D01*
X72085496Y-24427302D01*
X72090255Y-24454398D01*
X72090980Y-24470774D01*
X72088724Y-24498168D01*
X72081957Y-24523715D01*
X72070679Y-24547415D01*
X72054889Y-24569269D01*
X72043841Y-24580928D01*
X72022312Y-24598581D01*
X71998971Y-24611899D01*
X71973819Y-24620881D01*
X71946856Y-24625527D01*
X71930635Y-24626235D01*
X71902368Y-24624049D01*
X71876018Y-24617492D01*
X71851584Y-24606565D01*
X71829068Y-24591266D01*
X71817062Y-24580561D01*
X71798837Y-24559556D01*
X71785088Y-24536610D01*
X71775816Y-24511724D01*
X71771020Y-24484898D01*
X71770289Y-24468698D01*
X71799110Y-24468698D01*
X71801506Y-24494450D01*
X71808696Y-24518218D01*
X71820679Y-24540002D01*
X71837456Y-24559801D01*
X71857659Y-24576256D01*
X71879924Y-24588011D01*
X71904249Y-24595063D01*
X71930635Y-24597414D01*
X71956769Y-24595086D01*
X71980949Y-24588102D01*
X72003175Y-24576463D01*
X72023447Y-24560167D01*
X72040384Y-24540566D01*
X72052481Y-24519134D01*
X72060307Y-24492833D01*
X72062159Y-24470774D01*
X72059786Y-24444136D01*
X72052664Y-24419788D01*
X72040796Y-24397730D01*
X72024180Y-24377962D01*
X72004091Y-24361666D01*
X71981803Y-24350027D01*
X71957318Y-24343043D01*
X71930635Y-24340715D01*
X71904249Y-24343043D01*
X71879924Y-24350027D01*
X71857659Y-24361666D01*
X71837456Y-24377962D01*
X71820679Y-24397600D01*
X71808696Y-24419269D01*
X71801506Y-24442969D01*
X71799110Y-24468698D01*
X71770289Y-24468698D01*
X71772527Y-24441275D01*
X71779242Y-24415641D01*
X71790432Y-24391794D01*
X71806099Y-24369736D01*
X71817062Y-24357934D01*
X71838483Y-24339947D01*
X71861821Y-24326378D01*
X71887076Y-24317227D01*
X71914247Y-24312493D01*
X71930635Y-24311772D01*
X71955217Y-24313395D01*
G37*
G36*
X72449406Y-24615000D02*
G01*
X72414235Y-24615000D01*
X72350244Y-24432794D01*
X72287595Y-24615000D01*
X72251814Y-24615000D01*
X72192707Y-24350484D01*
X72179274Y-24350484D01*
X72160345Y-24335708D01*
X72179274Y-24321664D01*
X72257431Y-24321664D01*
X72276360Y-24335708D01*
X72257431Y-24350484D01*
X72220062Y-24350484D01*
X72270743Y-24575554D01*
X72331193Y-24396280D01*
X72367096Y-24396280D01*
X72429745Y-24575554D01*
X72478227Y-24350484D01*
X72443056Y-24350484D01*
X72424127Y-24335708D01*
X72443056Y-24321664D01*
X72521214Y-24321664D01*
X72540143Y-24335708D01*
X72521214Y-24350484D01*
X72507780Y-24350484D01*
X72449406Y-24615000D01*
G37*
G36*
X72789237Y-24313343D02*
G01*
X72816938Y-24319149D01*
X72842137Y-24329232D01*
X72864836Y-24343592D01*
X72879518Y-24356468D01*
X72897077Y-24377420D01*
X72910323Y-24401164D01*
X72919256Y-24427702D01*
X72923481Y-24452672D01*
X72924581Y-24475048D01*
X72631978Y-24475048D01*
X72637763Y-24501449D01*
X72647426Y-24525088D01*
X72660966Y-24545963D01*
X72678384Y-24564075D01*
X72698885Y-24578661D01*
X72721676Y-24589079D01*
X72746757Y-24595330D01*
X72774127Y-24597414D01*
X72799063Y-24595937D01*
X72824411Y-24591506D01*
X72841538Y-24586912D01*
X72865569Y-24578067D01*
X72887340Y-24566509D01*
X72897226Y-24559434D01*
X72908461Y-24554549D01*
X72917864Y-24558824D01*
X72921772Y-24568593D01*
X72905852Y-24589626D01*
X72883250Y-24601679D01*
X72871458Y-24606573D01*
X72846461Y-24615175D01*
X72821785Y-24621319D01*
X72797429Y-24625006D01*
X72773394Y-24626235D01*
X72747497Y-24624556D01*
X72723111Y-24619520D01*
X72696571Y-24609401D01*
X72675459Y-24597091D01*
X72655858Y-24581423D01*
X72652739Y-24578485D01*
X72635889Y-24559816D01*
X72620637Y-24536224D01*
X72610130Y-24510679D01*
X72604368Y-24483183D01*
X72603157Y-24462348D01*
X72604483Y-24446228D01*
X72631978Y-24446228D01*
X72895027Y-24446228D01*
X72888114Y-24420807D01*
X72876854Y-24398400D01*
X72861246Y-24379007D01*
X72850697Y-24369535D01*
X72829334Y-24355604D01*
X72805497Y-24346231D01*
X72779188Y-24341418D01*
X72763503Y-24340715D01*
X72738865Y-24342493D01*
X72713555Y-24348745D01*
X72690797Y-24359499D01*
X72677041Y-24369169D01*
X72659257Y-24386769D01*
X72645472Y-24407556D01*
X72635686Y-24431531D01*
X72631978Y-24446228D01*
X72604483Y-24446228D01*
X72605378Y-24435345D01*
X72612040Y-24410329D01*
X72623143Y-24387300D01*
X72638687Y-24366257D01*
X72649563Y-24355125D01*
X72670877Y-24338233D01*
X72694213Y-24325489D01*
X72719570Y-24316895D01*
X72746949Y-24312449D01*
X72763503Y-24311772D01*
X72789237Y-24313343D01*
G37*
G36*
X73344190Y-24373077D02*
G01*
X73323461Y-24359209D01*
X73322330Y-24358300D01*
X73300938Y-24345962D01*
X73286549Y-24343524D01*
X73262185Y-24347737D01*
X73240166Y-24358336D01*
X73236967Y-24360376D01*
X73215454Y-24376292D01*
X73194932Y-24393305D01*
X73173607Y-24411948D01*
X73152826Y-24430718D01*
X73152826Y-24586179D01*
X73278855Y-24586179D01*
X73297784Y-24600956D01*
X73278855Y-24615000D01*
X73056472Y-24615000D01*
X73037543Y-24600223D01*
X73056472Y-24586179D01*
X73124005Y-24586179D01*
X73124005Y-24350484D01*
X73071249Y-24350484D01*
X73052320Y-24335708D01*
X73071249Y-24321664D01*
X73152826Y-24321664D01*
X73152826Y-24393471D01*
X73173208Y-24375374D01*
X73194340Y-24357869D01*
X73215360Y-24342226D01*
X73231594Y-24331922D01*
X73253811Y-24321355D01*
X73278471Y-24315190D01*
X73288625Y-24314581D01*
X73313489Y-24318311D01*
X73336520Y-24330511D01*
X73337840Y-24331556D01*
X73355480Y-24349114D01*
X73358967Y-24358300D01*
X73354692Y-24368803D01*
X73344190Y-24373077D01*
G37*
G36*
X74053263Y-24313395D02*
G01*
X74080064Y-24319391D01*
X74104844Y-24329804D01*
X74127602Y-24344635D01*
X74142620Y-24357934D01*
X74160702Y-24379070D01*
X74174343Y-24402192D01*
X74183542Y-24427302D01*
X74188301Y-24454398D01*
X74189026Y-24470774D01*
X74186770Y-24498168D01*
X74180003Y-24523715D01*
X74168725Y-24547415D01*
X74152935Y-24569269D01*
X74141887Y-24580928D01*
X74120358Y-24598581D01*
X74097018Y-24611899D01*
X74071865Y-24620881D01*
X74044902Y-24625527D01*
X74028681Y-24626235D01*
X74000414Y-24624049D01*
X73974064Y-24617492D01*
X73949630Y-24606565D01*
X73927114Y-24591266D01*
X73915108Y-24580561D01*
X73896883Y-24559556D01*
X73883134Y-24536610D01*
X73873862Y-24511724D01*
X73869066Y-24484898D01*
X73868335Y-24468698D01*
X73897156Y-24468698D01*
X73899552Y-24494450D01*
X73906742Y-24518218D01*
X73918726Y-24540002D01*
X73935502Y-24559801D01*
X73955705Y-24576256D01*
X73977970Y-24588011D01*
X74002295Y-24595063D01*
X74028681Y-24597414D01*
X74054815Y-24595086D01*
X74078995Y-24588102D01*
X74101221Y-24576463D01*
X74121493Y-24560167D01*
X74138430Y-24540566D01*
X74150527Y-24519134D01*
X74158353Y-24492833D01*
X74160205Y-24470774D01*
X74157832Y-24444136D01*
X74150710Y-24419788D01*
X74138842Y-24397730D01*
X74122226Y-24377962D01*
X74102137Y-24361666D01*
X74079849Y-24350027D01*
X74055364Y-24343043D01*
X74028681Y-24340715D01*
X74002295Y-24343043D01*
X73977970Y-24350027D01*
X73955705Y-24361666D01*
X73935502Y-24377962D01*
X73918726Y-24397600D01*
X73906742Y-24419269D01*
X73899552Y-24442969D01*
X73897156Y-24468698D01*
X73868335Y-24468698D01*
X73870573Y-24441275D01*
X73877288Y-24415641D01*
X73888478Y-24391794D01*
X73904145Y-24369736D01*
X73915108Y-24357934D01*
X73936529Y-24339947D01*
X73959867Y-24326378D01*
X73985122Y-24317227D01*
X74012293Y-24312493D01*
X74028681Y-24311772D01*
X74053263Y-24313395D01*
G37*
G36*
X74461601Y-24340715D02*
G01*
X74437421Y-24343157D01*
X74415561Y-24350851D01*
X74398342Y-24360743D01*
X74383199Y-24373688D01*
X74371964Y-24386022D01*
X74362072Y-24398722D01*
X74354745Y-24408248D01*
X74354745Y-24586179D01*
X74386374Y-24586179D01*
X74405425Y-24600223D01*
X74386374Y-24615000D01*
X74294295Y-24615000D01*
X74274511Y-24600223D01*
X74294295Y-24586179D01*
X74325924Y-24586179D01*
X74325924Y-24350484D01*
X74301988Y-24350484D01*
X74282937Y-24335708D01*
X74301988Y-24321664D01*
X74354745Y-24321664D01*
X74354745Y-24370268D01*
X74372982Y-24351225D01*
X74391445Y-24335126D01*
X74408234Y-24324106D01*
X74432134Y-24315253D01*
X74458313Y-24311880D01*
X74464410Y-24311772D01*
X74489699Y-24313946D01*
X74514920Y-24321459D01*
X74537111Y-24334339D01*
X74543178Y-24339249D01*
X74559922Y-24357723D01*
X74571178Y-24381046D01*
X74574930Y-24407515D01*
X74574930Y-24586179D01*
X74598866Y-24586179D01*
X74617794Y-24600223D01*
X74598866Y-24615000D01*
X74522173Y-24615000D01*
X74503122Y-24600223D01*
X74522173Y-24586179D01*
X74546109Y-24586179D01*
X74546109Y-24412400D01*
X74541715Y-24387746D01*
X74528531Y-24366786D01*
X74523150Y-24361475D01*
X74501975Y-24348034D01*
X74477778Y-24341708D01*
X74461601Y-24340715D01*
G37*
G36*
X74881943Y-24190139D02*
G01*
X74881943Y-24586179D01*
X74994539Y-24586179D01*
X75014200Y-24600223D01*
X74994539Y-24615000D01*
X74740526Y-24615000D01*
X74721598Y-24600223D01*
X74740526Y-24586179D01*
X74853122Y-24586179D01*
X74853122Y-24218960D01*
X74770812Y-24218960D01*
X74751884Y-24204183D01*
X74770812Y-24190139D01*
X74881943Y-24190139D01*
G37*
G36*
X75274808Y-24615000D02*
G01*
X75142550Y-24350484D01*
X75131315Y-24350484D01*
X75112386Y-24335708D01*
X75131315Y-24321664D01*
X75212281Y-24321664D01*
X75231210Y-24335708D01*
X75212281Y-24350484D01*
X75175645Y-24350484D01*
X75291050Y-24583370D01*
X75404256Y-24350484D01*
X75366277Y-24350484D01*
X75347348Y-24335708D01*
X75366277Y-24321664D01*
X75443702Y-24321664D01*
X75462630Y-24335708D01*
X75443702Y-24350484D01*
X75433810Y-24350484D01*
X75253803Y-24716971D01*
X75299476Y-24716971D01*
X75318405Y-24731015D01*
X75299476Y-24745792D01*
X75135589Y-24745792D01*
X75116538Y-24731015D01*
X75135589Y-24716971D01*
X75224860Y-24716971D01*
X75274808Y-24615000D01*
G37*
D13*
X137047618Y-162205752D02*
X137238094Y-162872419D01*
X137238094Y-162872419D02*
X137428570Y-162396228D01*
X137428570Y-162396228D02*
X137619046Y-162872419D01*
X137619046Y-162872419D02*
X137809522Y-162205752D01*
X138190475Y-162872419D02*
X138190475Y-161872419D01*
X138619046Y-162872419D02*
X138619046Y-162348609D01*
X138619046Y-162348609D02*
X138571427Y-162253371D01*
X138571427Y-162253371D02*
X138476189Y-162205752D01*
X138476189Y-162205752D02*
X138333332Y-162205752D01*
X138333332Y-162205752D02*
X138238094Y-162253371D01*
X138238094Y-162253371D02*
X138190475Y-162300990D01*
X139523808Y-162872419D02*
X139523808Y-162348609D01*
X139523808Y-162348609D02*
X139476189Y-162253371D01*
X139476189Y-162253371D02*
X139380951Y-162205752D01*
X139380951Y-162205752D02*
X139190475Y-162205752D01*
X139190475Y-162205752D02*
X139095237Y-162253371D01*
X139523808Y-162824800D02*
X139428570Y-162872419D01*
X139428570Y-162872419D02*
X139190475Y-162872419D01*
X139190475Y-162872419D02*
X139095237Y-162824800D01*
X139095237Y-162824800D02*
X139047618Y-162729561D01*
X139047618Y-162729561D02*
X139047618Y-162634323D01*
X139047618Y-162634323D02*
X139095237Y-162539085D01*
X139095237Y-162539085D02*
X139190475Y-162491466D01*
X139190475Y-162491466D02*
X139428570Y-162491466D01*
X139428570Y-162491466D02*
X139523808Y-162443847D01*
X140428570Y-162824800D02*
X140333332Y-162872419D01*
X140333332Y-162872419D02*
X140142856Y-162872419D01*
X140142856Y-162872419D02*
X140047618Y-162824800D01*
X140047618Y-162824800D02*
X139999999Y-162777180D01*
X139999999Y-162777180D02*
X139952380Y-162681942D01*
X139952380Y-162681942D02*
X139952380Y-162396228D01*
X139952380Y-162396228D02*
X139999999Y-162300990D01*
X139999999Y-162300990D02*
X140047618Y-162253371D01*
X140047618Y-162253371D02*
X140142856Y-162205752D01*
X140142856Y-162205752D02*
X140333332Y-162205752D01*
X140333332Y-162205752D02*
X140428570Y-162253371D01*
X140857142Y-162872419D02*
X140857142Y-161872419D01*
X140952380Y-162491466D02*
X141238094Y-162872419D01*
X141238094Y-162205752D02*
X140857142Y-162586704D01*
X141666666Y-162872419D02*
X141666666Y-161872419D01*
X141666666Y-162253371D02*
X141761904Y-162205752D01*
X141761904Y-162205752D02*
X141952380Y-162205752D01*
X141952380Y-162205752D02*
X142047618Y-162253371D01*
X142047618Y-162253371D02*
X142095237Y-162300990D01*
X142095237Y-162300990D02*
X142142856Y-162396228D01*
X142142856Y-162396228D02*
X142142856Y-162681942D01*
X142142856Y-162681942D02*
X142095237Y-162777180D01*
X142095237Y-162777180D02*
X142047618Y-162824800D01*
X142047618Y-162824800D02*
X141952380Y-162872419D01*
X141952380Y-162872419D02*
X141761904Y-162872419D01*
X141761904Y-162872419D02*
X141666666Y-162824800D01*
X142952380Y-162824800D02*
X142857142Y-162872419D01*
X142857142Y-162872419D02*
X142666666Y-162872419D01*
X142666666Y-162872419D02*
X142571428Y-162824800D01*
X142571428Y-162824800D02*
X142523809Y-162729561D01*
X142523809Y-162729561D02*
X142523809Y-162348609D01*
X142523809Y-162348609D02*
X142571428Y-162253371D01*
X142571428Y-162253371D02*
X142666666Y-162205752D01*
X142666666Y-162205752D02*
X142857142Y-162205752D01*
X142857142Y-162205752D02*
X142952380Y-162253371D01*
X142952380Y-162253371D02*
X142999999Y-162348609D01*
X142999999Y-162348609D02*
X142999999Y-162443847D01*
X142999999Y-162443847D02*
X142523809Y-162539085D01*
X143428571Y-162872419D02*
X143428571Y-162205752D01*
X143428571Y-162396228D02*
X143476190Y-162300990D01*
X143476190Y-162300990D02*
X143523809Y-162253371D01*
X143523809Y-162253371D02*
X143619047Y-162205752D01*
X143619047Y-162205752D02*
X143714285Y-162205752D01*
X144047619Y-162872419D02*
X144047619Y-162205752D01*
X144047619Y-162396228D02*
X144095238Y-162300990D01*
X144095238Y-162300990D02*
X144142857Y-162253371D01*
X144142857Y-162253371D02*
X144238095Y-162205752D01*
X144238095Y-162205752D02*
X144333333Y-162205752D01*
X144571429Y-162205752D02*
X144809524Y-162872419D01*
X145047619Y-162205752D02*
X144809524Y-162872419D01*
X144809524Y-162872419D02*
X144714286Y-163110514D01*
X144714286Y-163110514D02*
X144666667Y-163158133D01*
X144666667Y-163158133D02*
X144571429Y-163205752D01*
X146095239Y-162205752D02*
X146333334Y-162872419D01*
X146333334Y-162872419D02*
X146571429Y-162205752D01*
X147142858Y-161872419D02*
X147238096Y-161872419D01*
X147238096Y-161872419D02*
X147333334Y-161920038D01*
X147333334Y-161920038D02*
X147380953Y-161967657D01*
X147380953Y-161967657D02*
X147428572Y-162062895D01*
X147428572Y-162062895D02*
X147476191Y-162253371D01*
X147476191Y-162253371D02*
X147476191Y-162491466D01*
X147476191Y-162491466D02*
X147428572Y-162681942D01*
X147428572Y-162681942D02*
X147380953Y-162777180D01*
X147380953Y-162777180D02*
X147333334Y-162824800D01*
X147333334Y-162824800D02*
X147238096Y-162872419D01*
X147238096Y-162872419D02*
X147142858Y-162872419D01*
X147142858Y-162872419D02*
X147047620Y-162824800D01*
X147047620Y-162824800D02*
X147000001Y-162777180D01*
X147000001Y-162777180D02*
X146952382Y-162681942D01*
X146952382Y-162681942D02*
X146904763Y-162491466D01*
X146904763Y-162491466D02*
X146904763Y-162253371D01*
X146904763Y-162253371D02*
X146952382Y-162062895D01*
X146952382Y-162062895D02*
X147000001Y-161967657D01*
X147000001Y-161967657D02*
X147047620Y-161920038D01*
X147047620Y-161920038D02*
X147142858Y-161872419D01*
X147904763Y-162777180D02*
X147952382Y-162824800D01*
X147952382Y-162824800D02*
X147904763Y-162872419D01*
X147904763Y-162872419D02*
X147857144Y-162824800D01*
X147857144Y-162824800D02*
X147904763Y-162777180D01*
X147904763Y-162777180D02*
X147904763Y-162872419D01*
X148904762Y-162872419D02*
X148333334Y-162872419D01*
X148619048Y-162872419D02*
X148619048Y-161872419D01*
X148619048Y-161872419D02*
X148523810Y-162015276D01*
X148523810Y-162015276D02*
X148428572Y-162110514D01*
X148428572Y-162110514D02*
X148333334Y-162158133D01*
D11*
G36*
X70305615Y-35883852D02*
G01*
X70353525Y-35894613D01*
X70402204Y-35917012D01*
X70445359Y-35950307D01*
X70469762Y-35977329D01*
X70496900Y-36022338D01*
X70512678Y-36072718D01*
X70517166Y-36122009D01*
X70515377Y-36152047D01*
X70503141Y-36202479D01*
X70479313Y-36248235D01*
X70443893Y-36289316D01*
X70415409Y-36312723D01*
X70368560Y-36338753D01*
X70316765Y-36353887D01*
X70266573Y-36358192D01*
X70228637Y-36355745D01*
X70175791Y-36342897D01*
X70127813Y-36319037D01*
X70089253Y-36288583D01*
X70068214Y-36266091D01*
X70039331Y-36221878D01*
X70022001Y-36172874D01*
X70016224Y-36119078D01*
X70018007Y-36089023D01*
X70030202Y-36038469D01*
X70053951Y-35992474D01*
X70089253Y-35951039D01*
X70117821Y-35927383D01*
X70164762Y-35901076D01*
X70216610Y-35885781D01*
X70266817Y-35881430D01*
X70305615Y-35883852D01*
G37*
G36*
X69413519Y-36125209D02*
G01*
X69465458Y-36128716D01*
X69515580Y-36135547D01*
X69563886Y-36145701D01*
X69563886Y-36272463D01*
X69555124Y-36280588D01*
X69516450Y-36313466D01*
X69474929Y-36342928D01*
X69431018Y-36366741D01*
X69394901Y-36380318D01*
X69343799Y-36391510D01*
X69293998Y-36394829D01*
X69271822Y-36394024D01*
X69220917Y-36384396D01*
X69177006Y-36361856D01*
X69144399Y-36323265D01*
X69133531Y-36273928D01*
X69137881Y-36242375D01*
X69163509Y-36197678D01*
X69203140Y-36166217D01*
X69230703Y-36152106D01*
X69277522Y-36136414D01*
X69330909Y-36127291D01*
X69383879Y-36124696D01*
X69413519Y-36125209D01*
G37*
G36*
X66198709Y-36107843D02*
G01*
X65868004Y-36107843D01*
X66019923Y-35695561D01*
X66041172Y-35695561D01*
X66198709Y-36107843D01*
G37*
G36*
X74024474Y-36802695D02*
G01*
X63090249Y-36802695D01*
X63090249Y-36400446D01*
X65630355Y-36400446D01*
X65668213Y-36430000D01*
X65880704Y-36430000D01*
X65918806Y-36400446D01*
X65880704Y-36372358D01*
X65769574Y-36372358D01*
X65845533Y-36165484D01*
X66219713Y-36165484D01*
X66298604Y-36372358D01*
X66191625Y-36372358D01*
X66153768Y-36400446D01*
X66191625Y-36430000D01*
X66411200Y-36430000D01*
X66449057Y-36400446D01*
X66586322Y-36400446D01*
X66624180Y-36430000D01*
X67132205Y-36430000D01*
X67171528Y-36400446D01*
X67414305Y-36400446D01*
X67452163Y-36430000D01*
X67896929Y-36430000D01*
X67934787Y-36401912D01*
X67896929Y-36372358D01*
X67644870Y-36372358D01*
X67644870Y-36061437D01*
X67686433Y-36023896D01*
X67729083Y-35986610D01*
X67733984Y-35982547D01*
X68223970Y-35982547D01*
X68223970Y-36086838D01*
X68224374Y-36107311D01*
X68230427Y-36165637D01*
X68243745Y-36219327D01*
X68264328Y-36268379D01*
X68292174Y-36312795D01*
X68327285Y-36352575D01*
X68354258Y-36375987D01*
X68398783Y-36405254D01*
X68448185Y-36427496D01*
X68502464Y-36442714D01*
X68551423Y-36450031D01*
X68603768Y-36452470D01*
X68620795Y-36452185D01*
X68671408Y-36447906D01*
X68721316Y-36438492D01*
X68770521Y-36423943D01*
X68819021Y-36404260D01*
X68866817Y-36379441D01*
X68866817Y-36272463D01*
X69075889Y-36272463D01*
X69076072Y-36273928D01*
X69081781Y-36319599D01*
X69101870Y-36364671D01*
X69136217Y-36402644D01*
X69147907Y-36411549D01*
X69191680Y-36434904D01*
X69242847Y-36448529D01*
X69295219Y-36452470D01*
X69330833Y-36450646D01*
X69383166Y-36441069D01*
X69434193Y-36423283D01*
X69483916Y-36397288D01*
X69524354Y-36369355D01*
X69563886Y-36335722D01*
X69563886Y-36430000D01*
X69697732Y-36430000D01*
X69735589Y-36400446D01*
X69697732Y-36372358D01*
X69621772Y-36372358D01*
X69621772Y-35996713D01*
X69616691Y-35956800D01*
X69594108Y-35909773D01*
X69557536Y-35872882D01*
X69555491Y-35871416D01*
X69844766Y-35871416D01*
X69882623Y-35900969D01*
X69958583Y-35900969D01*
X69958583Y-36119078D01*
X69958583Y-36633942D01*
X69882623Y-36633942D01*
X69844766Y-36662030D01*
X69882623Y-36691584D01*
X70154221Y-36691584D01*
X70192079Y-36662030D01*
X70154221Y-36633942D01*
X70016224Y-36633942D01*
X70016224Y-36280767D01*
X70028256Y-36297123D01*
X70067317Y-36339859D01*
X70110825Y-36373098D01*
X70158782Y-36396840D01*
X70211186Y-36411085D01*
X70268039Y-36415833D01*
X70299763Y-36414494D01*
X70352215Y-36405703D01*
X70400763Y-36388708D01*
X70445407Y-36363508D01*
X70486147Y-36330104D01*
X70506927Y-36308054D01*
X70536625Y-36266490D01*
X70557837Y-36221139D01*
X70570565Y-36172002D01*
X70574808Y-36119078D01*
X70573434Y-36088384D01*
X70564418Y-36037699D01*
X70564344Y-36037501D01*
X70754326Y-36037501D01*
X70792184Y-36067055D01*
X71357850Y-36067055D01*
X71395708Y-36037501D01*
X71593545Y-36037501D01*
X71631402Y-36067055D01*
X72197069Y-36067055D01*
X72234926Y-36037501D01*
X72432763Y-36037501D01*
X72470621Y-36067055D01*
X73036287Y-36067055D01*
X73074145Y-36037501D01*
X73068549Y-36033349D01*
X73271981Y-36033349D01*
X73309839Y-36062903D01*
X73563119Y-36062903D01*
X73563119Y-36346957D01*
X73592672Y-36385059D01*
X73620760Y-36346957D01*
X73620760Y-36062903D01*
X73874040Y-36062903D01*
X73913363Y-36033349D01*
X73874040Y-36005017D01*
X73620760Y-36005017D01*
X73620760Y-35722428D01*
X73592672Y-35684326D01*
X73563119Y-35722428D01*
X73563119Y-36005017D01*
X73309839Y-36005017D01*
X73271981Y-36033349D01*
X73068549Y-36033349D01*
X73036287Y-36009413D01*
X72470621Y-36009413D01*
X72432763Y-36037501D01*
X72234926Y-36037501D01*
X72197069Y-36009413D01*
X71631402Y-36009413D01*
X71593545Y-36037501D01*
X71395708Y-36037501D01*
X71357850Y-36009413D01*
X70792184Y-36009413D01*
X70754326Y-36037501D01*
X70564344Y-36037501D01*
X70546987Y-35990871D01*
X70521141Y-35947900D01*
X70486880Y-35908785D01*
X70464227Y-35888807D01*
X70421351Y-35860255D01*
X70374361Y-35839860D01*
X70323257Y-35827623D01*
X70268039Y-35823545D01*
X70224753Y-35825998D01*
X70176676Y-35835661D01*
X70130286Y-35854563D01*
X70126684Y-35856543D01*
X70083654Y-35886699D01*
X70048057Y-35920855D01*
X70016224Y-35958611D01*
X70016224Y-35843328D01*
X69882623Y-35843328D01*
X69844766Y-35871416D01*
X69555491Y-35871416D01*
X69545235Y-35864064D01*
X69499859Y-35840938D01*
X69447757Y-35827447D01*
X69395115Y-35823545D01*
X69344681Y-35827172D01*
X69296395Y-35834900D01*
X69245882Y-35845526D01*
X69234318Y-35848280D01*
X69187688Y-35863135D01*
X69150383Y-35898283D01*
X69157955Y-35918066D01*
X69177006Y-35926371D01*
X69208081Y-35919261D01*
X69257362Y-35903900D01*
X69291540Y-35894070D01*
X69341835Y-35884590D01*
X69390963Y-35881430D01*
X69418949Y-35882546D01*
X69468637Y-35891476D01*
X69516015Y-35913182D01*
X69550376Y-35947228D01*
X69563886Y-35996713D01*
X69563886Y-36096608D01*
X69530688Y-36088094D01*
X69480126Y-36077473D01*
X69427003Y-36069941D01*
X69372644Y-36067055D01*
X69356322Y-36067277D01*
X69302259Y-36071556D01*
X69252965Y-36081282D01*
X69202468Y-36099066D01*
X69158199Y-36123963D01*
X69138908Y-36138732D01*
X69104907Y-36175925D01*
X69082400Y-36223686D01*
X69075889Y-36272463D01*
X68866817Y-36272463D01*
X68866817Y-36135931D01*
X68886601Y-36135931D01*
X68925924Y-36106378D01*
X68886601Y-36078290D01*
X68613538Y-36078290D01*
X68575680Y-36106378D01*
X68613538Y-36135931D01*
X68809176Y-36135931D01*
X68809176Y-36346957D01*
X68758129Y-36367901D01*
X68707571Y-36382861D01*
X68657501Y-36391837D01*
X68607920Y-36394829D01*
X68562025Y-36392819D01*
X68511124Y-36385102D01*
X68457490Y-36368785D01*
X68410051Y-36344591D01*
X68368806Y-36312519D01*
X68343687Y-36285306D01*
X68315672Y-36242200D01*
X68296002Y-36193249D01*
X68284677Y-36138456D01*
X68281612Y-36086838D01*
X68281612Y-35984012D01*
X68283708Y-35956512D01*
X68294312Y-35908053D01*
X68295963Y-35902396D01*
X68313701Y-35854326D01*
X68335833Y-35808157D01*
X68350090Y-35784933D01*
X68385312Y-35746142D01*
X68427913Y-35715345D01*
X68474232Y-35693652D01*
X68526207Y-35680964D01*
X68578367Y-35677243D01*
X68595589Y-35677578D01*
X68644553Y-35682601D01*
X68694198Y-35695252D01*
X68738834Y-35715345D01*
X68754756Y-35725054D01*
X68792796Y-35759980D01*
X68810642Y-35806692D01*
X68838729Y-35841863D01*
X68866817Y-35804005D01*
X68866817Y-35676022D01*
X68838729Y-35637920D01*
X68809176Y-35676022D01*
X68809176Y-35695561D01*
X68778617Y-35673678D01*
X68732148Y-35649273D01*
X68681378Y-35632138D01*
X68626307Y-35622272D01*
X68575680Y-35619602D01*
X68556719Y-35620022D01*
X68502377Y-35626334D01*
X68451847Y-35640218D01*
X68405130Y-35661676D01*
X68362225Y-35690708D01*
X68323133Y-35727313D01*
X68311125Y-35740932D01*
X68279749Y-35783657D01*
X68255346Y-35829180D01*
X68237915Y-35877503D01*
X68227456Y-35928625D01*
X68223970Y-35982547D01*
X67733984Y-35982547D01*
X67770128Y-35952584D01*
X67813154Y-35920753D01*
X67819552Y-35916672D01*
X67863590Y-35895474D01*
X67912316Y-35887048D01*
X67941094Y-35891925D01*
X67983879Y-35916601D01*
X67986140Y-35918419D01*
X68027599Y-35946154D01*
X68048604Y-35937606D01*
X68057152Y-35916601D01*
X68050179Y-35898229D01*
X68014898Y-35863112D01*
X68012259Y-35861023D01*
X67966196Y-35836622D01*
X67916468Y-35829162D01*
X67896161Y-35830381D01*
X67846840Y-35842710D01*
X67802407Y-35863845D01*
X67769938Y-35884453D01*
X67727900Y-35915738D01*
X67685634Y-35950749D01*
X67644870Y-35986943D01*
X67644870Y-35843328D01*
X67481716Y-35843328D01*
X67443859Y-35871416D01*
X67481716Y-35900969D01*
X67587229Y-35900969D01*
X67587229Y-36372358D01*
X67452163Y-36372358D01*
X67414305Y-36400446D01*
X67171528Y-36400446D01*
X67132205Y-36372358D01*
X66907013Y-36372358D01*
X66907013Y-35843328D01*
X66683286Y-35843328D01*
X66645429Y-35871416D01*
X66683286Y-35900969D01*
X66849371Y-35900969D01*
X66849371Y-36372358D01*
X66624180Y-36372358D01*
X66586322Y-36400446D01*
X66449057Y-36400446D01*
X66411200Y-36372358D01*
X66359176Y-36372358D01*
X66104823Y-35698492D01*
X66821284Y-35698492D01*
X66904326Y-35698492D01*
X66904326Y-35552191D01*
X66821284Y-35552191D01*
X66821284Y-35698492D01*
X66104823Y-35698492D01*
X66081960Y-35637920D01*
X65794975Y-35637920D01*
X65756873Y-35666008D01*
X65794975Y-35695561D01*
X65963747Y-35695561D01*
X65810350Y-36107843D01*
X65711933Y-36372358D01*
X65668213Y-36372358D01*
X65630355Y-36400446D01*
X63090249Y-36400446D01*
X63090249Y-36037501D01*
X63201360Y-36037501D01*
X63239218Y-36067055D01*
X63804884Y-36067055D01*
X63842742Y-36037501D01*
X64040579Y-36037501D01*
X64078436Y-36067055D01*
X64644103Y-36067055D01*
X64681960Y-36037501D01*
X64879797Y-36037501D01*
X64917655Y-36067055D01*
X65483321Y-36067055D01*
X65521179Y-36037501D01*
X65483321Y-36009413D01*
X64917655Y-36009413D01*
X64879797Y-36037501D01*
X64681960Y-36037501D01*
X64644103Y-36009413D01*
X64078436Y-36009413D01*
X64040579Y-36037501D01*
X63842742Y-36037501D01*
X63804884Y-36009413D01*
X63239218Y-36009413D01*
X63201360Y-36037501D01*
X63090249Y-36037501D01*
X63090249Y-35441080D01*
X74024474Y-35441080D01*
X74024474Y-36802695D01*
G37*
G36*
X73510976Y-32418007D02*
G01*
X73561530Y-32430202D01*
X73607525Y-32453951D01*
X73648960Y-32489253D01*
X73672616Y-32517821D01*
X73698923Y-32564762D01*
X73714218Y-32616610D01*
X73718569Y-32666817D01*
X73716147Y-32705615D01*
X73705386Y-32753525D01*
X73682987Y-32802204D01*
X73649692Y-32845359D01*
X73622670Y-32869762D01*
X73577661Y-32896900D01*
X73527281Y-32912678D01*
X73477990Y-32917166D01*
X73447952Y-32915377D01*
X73397520Y-32903141D01*
X73351764Y-32879313D01*
X73310683Y-32843893D01*
X73287276Y-32815409D01*
X73261246Y-32768560D01*
X73246112Y-32716765D01*
X73241807Y-32666573D01*
X73244254Y-32628637D01*
X73257102Y-32575791D01*
X73280962Y-32527813D01*
X73311416Y-32489253D01*
X73333908Y-32468214D01*
X73378121Y-32439331D01*
X73427125Y-32422001D01*
X73480921Y-32416224D01*
X73510976Y-32418007D01*
G37*
G36*
X73357624Y-31537881D02*
G01*
X73402321Y-31563509D01*
X73433782Y-31603140D01*
X73447893Y-31630703D01*
X73463585Y-31677522D01*
X73472708Y-31730909D01*
X73475303Y-31783879D01*
X73474790Y-31813519D01*
X73471283Y-31865458D01*
X73464452Y-31915580D01*
X73454298Y-31963886D01*
X73327536Y-31963886D01*
X73319411Y-31955124D01*
X73286533Y-31916450D01*
X73257071Y-31874929D01*
X73233258Y-31831018D01*
X73219681Y-31794901D01*
X73208489Y-31743799D01*
X73205170Y-31693998D01*
X73205975Y-31671822D01*
X73215603Y-31620917D01*
X73238143Y-31577006D01*
X73276734Y-31544399D01*
X73326071Y-31533531D01*
X73357624Y-31537881D01*
G37*
G36*
X73904438Y-28419923D02*
G01*
X73904438Y-28441172D01*
X73492156Y-28598709D01*
X73492156Y-28268004D01*
X73904438Y-28419923D01*
G37*
G36*
X74158919Y-35585256D02*
G01*
X72797304Y-35585256D01*
X72797304Y-34870621D01*
X73532944Y-34870621D01*
X73532944Y-35436287D01*
X73562498Y-35474145D01*
X73590586Y-35436287D01*
X73590586Y-34870621D01*
X73562498Y-34832763D01*
X73532944Y-34870621D01*
X72797304Y-34870621D01*
X72797304Y-34031402D01*
X73532944Y-34031402D01*
X73532944Y-34597069D01*
X73562498Y-34634926D01*
X73590586Y-34597069D01*
X73590586Y-34031402D01*
X73562498Y-33993545D01*
X73532944Y-34031402D01*
X72797304Y-34031402D01*
X72797304Y-33192184D01*
X73532944Y-33192184D01*
X73532944Y-33757850D01*
X73562498Y-33795708D01*
X73590586Y-33757850D01*
X73590586Y-33192184D01*
X73562498Y-33154326D01*
X73532944Y-33192184D01*
X72797304Y-33192184D01*
X72797304Y-32282623D01*
X72908415Y-32282623D01*
X72908415Y-32554221D01*
X72937969Y-32592079D01*
X72966057Y-32554221D01*
X72966057Y-32416224D01*
X73319232Y-32416224D01*
X73302876Y-32428256D01*
X73260140Y-32467317D01*
X73226901Y-32510825D01*
X73203159Y-32558782D01*
X73188914Y-32611186D01*
X73184288Y-32666573D01*
X73184166Y-32668039D01*
X73185505Y-32699763D01*
X73194296Y-32752215D01*
X73211291Y-32800763D01*
X73236491Y-32845407D01*
X73269895Y-32886147D01*
X73291945Y-32906927D01*
X73333509Y-32936625D01*
X73378860Y-32957837D01*
X73427997Y-32970565D01*
X73480921Y-32974808D01*
X73511615Y-32973434D01*
X73562300Y-32964418D01*
X73609128Y-32946987D01*
X73652099Y-32921141D01*
X73691214Y-32886880D01*
X73711192Y-32864227D01*
X73739744Y-32821351D01*
X73760139Y-32774361D01*
X73772376Y-32723257D01*
X73776454Y-32668039D01*
X73774001Y-32624753D01*
X73764338Y-32576676D01*
X73745436Y-32530286D01*
X73743456Y-32526684D01*
X73713300Y-32483654D01*
X73679144Y-32448057D01*
X73641388Y-32416224D01*
X73756671Y-32416224D01*
X73756671Y-32282623D01*
X73728583Y-32244766D01*
X73699030Y-32282623D01*
X73699030Y-32358583D01*
X72966057Y-32358583D01*
X72966057Y-32282623D01*
X72937969Y-32244766D01*
X72908415Y-32282623D01*
X72797304Y-32282623D01*
X72797304Y-31695219D01*
X73147529Y-31695219D01*
X73149353Y-31730833D01*
X73158930Y-31783166D01*
X73176716Y-31834193D01*
X73202711Y-31883916D01*
X73230644Y-31924354D01*
X73264277Y-31963886D01*
X73170000Y-31963886D01*
X73170000Y-32097732D01*
X73199553Y-32135589D01*
X73227641Y-32097732D01*
X73227641Y-32021772D01*
X73603286Y-32021772D01*
X73643199Y-32016691D01*
X73690226Y-31994108D01*
X73727117Y-31957536D01*
X73735935Y-31945235D01*
X73759061Y-31899859D01*
X73772552Y-31847757D01*
X73776454Y-31795115D01*
X73772827Y-31744681D01*
X73765099Y-31696395D01*
X73754473Y-31645882D01*
X73751719Y-31634318D01*
X73736864Y-31587688D01*
X73701716Y-31550383D01*
X73681933Y-31557955D01*
X73673628Y-31577006D01*
X73680738Y-31608081D01*
X73696099Y-31657362D01*
X73705929Y-31691540D01*
X73715409Y-31741835D01*
X73718569Y-31790963D01*
X73717453Y-31818949D01*
X73708523Y-31868637D01*
X73686817Y-31916015D01*
X73652771Y-31950376D01*
X73603286Y-31963886D01*
X73503391Y-31963886D01*
X73511905Y-31930688D01*
X73522526Y-31880126D01*
X73530058Y-31827003D01*
X73532944Y-31772644D01*
X73532722Y-31756322D01*
X73528443Y-31702259D01*
X73518717Y-31652965D01*
X73500933Y-31602468D01*
X73476036Y-31558199D01*
X73461267Y-31538908D01*
X73424074Y-31504907D01*
X73376313Y-31482400D01*
X73327536Y-31475889D01*
X73280400Y-31481781D01*
X73235328Y-31501870D01*
X73197355Y-31536217D01*
X73188450Y-31547907D01*
X73165095Y-31591680D01*
X73151470Y-31642847D01*
X73147621Y-31693998D01*
X73147529Y-31695219D01*
X72797304Y-31695219D01*
X72797304Y-31003768D01*
X73147529Y-31003768D01*
X73147814Y-31020795D01*
X73152093Y-31071408D01*
X73161507Y-31121316D01*
X73176056Y-31170521D01*
X73195739Y-31219021D01*
X73220558Y-31266817D01*
X73464068Y-31266817D01*
X73464068Y-31286601D01*
X73493621Y-31325924D01*
X73521709Y-31286601D01*
X73521709Y-31013538D01*
X73493621Y-30975680D01*
X73464068Y-31013538D01*
X73464068Y-31209176D01*
X73253042Y-31209176D01*
X73232098Y-31158129D01*
X73217138Y-31107571D01*
X73208162Y-31057501D01*
X73205170Y-31007920D01*
X73207180Y-30962025D01*
X73214897Y-30911124D01*
X73231214Y-30857490D01*
X73255408Y-30810051D01*
X73287480Y-30768806D01*
X73314693Y-30743687D01*
X73357799Y-30715672D01*
X73406750Y-30696002D01*
X73461543Y-30684677D01*
X73513161Y-30681612D01*
X73615987Y-30681612D01*
X73643487Y-30683708D01*
X73691946Y-30694312D01*
X73697603Y-30695963D01*
X73745673Y-30713701D01*
X73791842Y-30735833D01*
X73815066Y-30750090D01*
X73853857Y-30785312D01*
X73884654Y-30827913D01*
X73906347Y-30874232D01*
X73919035Y-30926207D01*
X73922756Y-30978367D01*
X73922421Y-30995589D01*
X73917398Y-31044553D01*
X73904747Y-31094198D01*
X73884654Y-31138834D01*
X73874945Y-31154756D01*
X73840019Y-31192796D01*
X73793307Y-31210642D01*
X73758136Y-31238729D01*
X73795994Y-31266817D01*
X73923977Y-31266817D01*
X73962079Y-31238729D01*
X73923977Y-31209176D01*
X73904438Y-31209176D01*
X73926321Y-31178617D01*
X73950726Y-31132148D01*
X73967861Y-31081378D01*
X73977727Y-31026307D01*
X73980397Y-30975680D01*
X73979977Y-30956719D01*
X73973665Y-30902377D01*
X73959781Y-30851847D01*
X73938323Y-30805130D01*
X73909291Y-30762225D01*
X73872686Y-30723133D01*
X73859067Y-30711125D01*
X73816342Y-30679749D01*
X73770819Y-30655346D01*
X73722496Y-30637915D01*
X73671374Y-30627456D01*
X73617452Y-30623970D01*
X73513161Y-30623970D01*
X73492688Y-30624374D01*
X73434362Y-30630427D01*
X73380672Y-30643745D01*
X73331620Y-30664328D01*
X73287204Y-30692174D01*
X73247424Y-30727285D01*
X73224012Y-30754258D01*
X73194745Y-30798783D01*
X73172503Y-30848185D01*
X73157285Y-30902464D01*
X73149968Y-30951423D01*
X73147529Y-31003768D01*
X72797304Y-31003768D01*
X72797304Y-29852163D01*
X73170000Y-29852163D01*
X73170000Y-30296929D01*
X73198087Y-30334787D01*
X73227641Y-30296929D01*
X73227641Y-30044870D01*
X73538562Y-30044870D01*
X73576103Y-30086433D01*
X73613389Y-30129083D01*
X73647415Y-30170128D01*
X73679246Y-30213154D01*
X73683327Y-30219552D01*
X73704525Y-30263590D01*
X73712951Y-30312316D01*
X73708074Y-30341094D01*
X73683398Y-30383879D01*
X73681580Y-30386140D01*
X73653845Y-30427599D01*
X73662393Y-30448604D01*
X73683398Y-30457152D01*
X73701770Y-30450179D01*
X73736887Y-30414898D01*
X73738976Y-30412259D01*
X73763377Y-30366196D01*
X73770837Y-30316468D01*
X73769618Y-30296161D01*
X73757289Y-30246840D01*
X73736154Y-30202407D01*
X73715546Y-30169938D01*
X73684261Y-30127900D01*
X73649250Y-30085634D01*
X73613056Y-30044870D01*
X73756671Y-30044870D01*
X73756671Y-29881716D01*
X73728583Y-29843859D01*
X73699030Y-29881716D01*
X73699030Y-29987229D01*
X73227641Y-29987229D01*
X73227641Y-29852163D01*
X73199553Y-29814305D01*
X73170000Y-29852163D01*
X72797304Y-29852163D01*
X72797304Y-29024180D01*
X73170000Y-29024180D01*
X73170000Y-29532205D01*
X73199553Y-29571528D01*
X73227641Y-29532205D01*
X73227641Y-29307013D01*
X73756671Y-29307013D01*
X73756671Y-29304326D01*
X73901507Y-29304326D01*
X74047808Y-29304326D01*
X74047808Y-29221284D01*
X73901507Y-29221284D01*
X73901507Y-29304326D01*
X73756671Y-29304326D01*
X73756671Y-29083286D01*
X73728583Y-29045429D01*
X73699030Y-29083286D01*
X73699030Y-29249371D01*
X73227641Y-29249371D01*
X73227641Y-29024180D01*
X73199553Y-28986322D01*
X73170000Y-29024180D01*
X72797304Y-29024180D01*
X72797304Y-28068213D01*
X73170000Y-28068213D01*
X73170000Y-28280704D01*
X73199553Y-28318806D01*
X73227641Y-28280704D01*
X73227641Y-28169574D01*
X73434515Y-28245533D01*
X73434515Y-28598709D01*
X73434515Y-28619713D01*
X73227641Y-28698604D01*
X73227641Y-28591625D01*
X73199553Y-28553768D01*
X73170000Y-28591625D01*
X73170000Y-28811200D01*
X73199553Y-28849057D01*
X73227641Y-28811200D01*
X73227641Y-28759176D01*
X73962079Y-28481960D01*
X73962079Y-28194975D01*
X73933991Y-28156873D01*
X73904438Y-28194975D01*
X73904438Y-28363747D01*
X73227641Y-28111933D01*
X73227641Y-28068213D01*
X73199553Y-28030355D01*
X73170000Y-28068213D01*
X72797304Y-28068213D01*
X72797304Y-27317655D01*
X73532944Y-27317655D01*
X73532944Y-27883321D01*
X73562498Y-27921179D01*
X73590586Y-27883321D01*
X73590586Y-27317655D01*
X73562498Y-27279797D01*
X73532944Y-27317655D01*
X72797304Y-27317655D01*
X72797304Y-26478436D01*
X73532944Y-26478436D01*
X73532944Y-27044103D01*
X73562498Y-27081960D01*
X73590586Y-27044103D01*
X73590586Y-26478436D01*
X73562498Y-26440579D01*
X73532944Y-26478436D01*
X72797304Y-26478436D01*
X72797304Y-25639218D01*
X73532944Y-25639218D01*
X73532944Y-26204884D01*
X73562498Y-26242742D01*
X73590586Y-26204884D01*
X73590586Y-25639218D01*
X73562498Y-25601360D01*
X73532944Y-25639218D01*
X72797304Y-25639218D01*
X72797304Y-25490249D01*
X74158919Y-25490249D01*
X74158919Y-35585256D01*
G37*
G36*
X62510976Y-43357226D02*
G01*
X62561530Y-43369421D01*
X62607525Y-43393169D01*
X62648960Y-43428471D01*
X62672616Y-43457039D01*
X62698923Y-43503980D01*
X62714218Y-43555829D01*
X62718569Y-43606036D01*
X62716147Y-43644833D01*
X62705386Y-43692743D01*
X62682987Y-43741423D01*
X62649692Y-43784577D01*
X62622670Y-43808981D01*
X62577661Y-43836119D01*
X62527281Y-43851897D01*
X62477990Y-43856385D01*
X62447952Y-43854596D01*
X62397520Y-43842360D01*
X62351764Y-43818532D01*
X62310683Y-43783112D01*
X62287276Y-43754627D01*
X62261246Y-43707778D01*
X62246112Y-43655983D01*
X62241807Y-43605792D01*
X62244254Y-43567856D01*
X62257102Y-43515009D01*
X62280962Y-43467031D01*
X62311416Y-43428471D01*
X62333908Y-43407433D01*
X62378121Y-43378549D01*
X62427125Y-43361219D01*
X62480921Y-43355443D01*
X62510976Y-43357226D01*
G37*
G36*
X62357624Y-42477100D02*
G01*
X62402321Y-42502727D01*
X62433782Y-42542358D01*
X62447893Y-42569921D01*
X62463585Y-42616740D01*
X62472708Y-42670128D01*
X62475303Y-42723098D01*
X62474790Y-42752737D01*
X62471283Y-42804676D01*
X62464452Y-42854798D01*
X62454298Y-42903105D01*
X62327536Y-42903105D01*
X62319411Y-42894343D01*
X62286533Y-42855668D01*
X62257071Y-42814147D01*
X62233258Y-42770237D01*
X62219681Y-42734119D01*
X62208489Y-42683017D01*
X62205170Y-42633217D01*
X62205975Y-42611040D01*
X62215603Y-42560135D01*
X62238143Y-42516224D01*
X62276734Y-42483618D01*
X62326071Y-42472749D01*
X62357624Y-42477100D01*
G37*
G36*
X62904438Y-39359141D02*
G01*
X62904438Y-39380390D01*
X62492156Y-39537927D01*
X62492156Y-39207222D01*
X62904438Y-39359141D01*
G37*
G36*
X63158919Y-46524474D02*
G01*
X61797304Y-46524474D01*
X61797304Y-45809839D01*
X62532944Y-45809839D01*
X62532944Y-46375505D01*
X62562498Y-46413363D01*
X62590586Y-46375505D01*
X62590586Y-45809839D01*
X62562498Y-45771981D01*
X62532944Y-45809839D01*
X61797304Y-45809839D01*
X61797304Y-44970621D01*
X62532944Y-44970621D01*
X62532944Y-45536287D01*
X62562498Y-45574145D01*
X62590586Y-45536287D01*
X62590586Y-44970621D01*
X62562498Y-44932763D01*
X62532944Y-44970621D01*
X61797304Y-44970621D01*
X61797304Y-44131402D01*
X62532944Y-44131402D01*
X62532944Y-44697069D01*
X62562498Y-44734926D01*
X62590586Y-44697069D01*
X62590586Y-44131402D01*
X62562498Y-44093545D01*
X62532944Y-44131402D01*
X61797304Y-44131402D01*
X61797304Y-43221842D01*
X61908415Y-43221842D01*
X61908415Y-43493440D01*
X61937969Y-43531297D01*
X61966057Y-43493440D01*
X61966057Y-43355443D01*
X62319232Y-43355443D01*
X62302876Y-43367474D01*
X62260140Y-43406535D01*
X62226901Y-43450044D01*
X62203159Y-43498000D01*
X62188914Y-43550405D01*
X62184288Y-43605792D01*
X62184166Y-43607257D01*
X62185505Y-43638982D01*
X62194296Y-43691433D01*
X62211291Y-43739981D01*
X62236491Y-43784625D01*
X62269895Y-43825366D01*
X62291945Y-43846146D01*
X62333509Y-43875843D01*
X62378860Y-43897056D01*
X62427997Y-43909783D01*
X62480921Y-43914026D01*
X62511615Y-43912652D01*
X62562300Y-43903636D01*
X62609128Y-43886205D01*
X62652099Y-43860359D01*
X62691214Y-43826099D01*
X62711192Y-43803445D01*
X62739744Y-43760569D01*
X62760139Y-43713579D01*
X62772376Y-43662475D01*
X62776454Y-43607257D01*
X62774001Y-43563972D01*
X62764338Y-43515895D01*
X62745436Y-43469504D01*
X62743456Y-43465903D01*
X62713300Y-43422872D01*
X62679144Y-43387276D01*
X62641388Y-43355443D01*
X62756671Y-43355443D01*
X62756671Y-43221842D01*
X62728583Y-43183984D01*
X62699030Y-43221842D01*
X62699030Y-43297801D01*
X61966057Y-43297801D01*
X61966057Y-43221842D01*
X61937969Y-43183984D01*
X61908415Y-43221842D01*
X61797304Y-43221842D01*
X61797304Y-42634438D01*
X62147529Y-42634438D01*
X62149353Y-42670051D01*
X62158930Y-42722384D01*
X62176716Y-42773412D01*
X62202711Y-42823134D01*
X62230644Y-42863573D01*
X62264277Y-42903105D01*
X62170000Y-42903105D01*
X62170000Y-43036950D01*
X62199553Y-43074808D01*
X62227641Y-43036950D01*
X62227641Y-42960990D01*
X62603286Y-42960990D01*
X62643199Y-42955909D01*
X62690226Y-42933326D01*
X62727117Y-42896755D01*
X62735935Y-42884453D01*
X62759061Y-42839078D01*
X62772552Y-42786976D01*
X62776454Y-42734333D01*
X62772827Y-42683900D01*
X62765099Y-42635614D01*
X62754473Y-42585101D01*
X62751719Y-42573536D01*
X62736864Y-42526906D01*
X62701716Y-42489602D01*
X62681933Y-42497173D01*
X62673628Y-42516224D01*
X62680738Y-42547299D01*
X62696099Y-42596580D01*
X62705929Y-42630759D01*
X62715409Y-42681054D01*
X62718569Y-42730181D01*
X62717453Y-42758168D01*
X62708523Y-42807856D01*
X62686817Y-42855233D01*
X62652771Y-42889594D01*
X62603286Y-42903105D01*
X62503391Y-42903105D01*
X62511905Y-42869907D01*
X62522526Y-42819345D01*
X62530058Y-42766221D01*
X62532944Y-42711863D01*
X62532722Y-42695540D01*
X62528443Y-42641478D01*
X62518717Y-42592184D01*
X62500933Y-42541687D01*
X62476036Y-42497418D01*
X62461267Y-42478126D01*
X62424074Y-42444125D01*
X62376313Y-42421619D01*
X62327536Y-42415108D01*
X62280400Y-42420999D01*
X62235328Y-42441089D01*
X62197355Y-42475436D01*
X62188450Y-42487126D01*
X62165095Y-42530899D01*
X62151470Y-42582066D01*
X62147621Y-42633217D01*
X62147529Y-42634438D01*
X61797304Y-42634438D01*
X61797304Y-41942986D01*
X62147529Y-41942986D01*
X62147814Y-41960014D01*
X62152093Y-42010626D01*
X62161507Y-42060535D01*
X62176056Y-42109739D01*
X62195739Y-42158240D01*
X62220558Y-42206036D01*
X62464068Y-42206036D01*
X62464068Y-42225819D01*
X62493621Y-42265143D01*
X62521709Y-42225819D01*
X62521709Y-41952756D01*
X62493621Y-41914898D01*
X62464068Y-41952756D01*
X62464068Y-42148394D01*
X62253042Y-42148394D01*
X62232098Y-42097348D01*
X62217138Y-42046789D01*
X62208162Y-41996720D01*
X62205170Y-41947138D01*
X62207180Y-41901244D01*
X62214897Y-41850342D01*
X62231214Y-41796709D01*
X62255408Y-41749269D01*
X62287480Y-41708025D01*
X62314693Y-41682905D01*
X62357799Y-41654890D01*
X62406750Y-41635220D01*
X62461543Y-41623895D01*
X62513161Y-41620830D01*
X62615987Y-41620830D01*
X62643487Y-41622926D01*
X62691946Y-41633531D01*
X62697603Y-41635181D01*
X62745673Y-41652919D01*
X62791842Y-41675052D01*
X62815066Y-41689309D01*
X62853857Y-41724530D01*
X62884654Y-41767131D01*
X62906347Y-41813450D01*
X62919035Y-41865426D01*
X62922756Y-41917585D01*
X62922421Y-41934808D01*
X62917398Y-41983771D01*
X62904747Y-42033416D01*
X62884654Y-42078053D01*
X62874945Y-42093974D01*
X62840019Y-42132014D01*
X62793307Y-42149860D01*
X62758136Y-42177948D01*
X62795994Y-42206036D01*
X62923977Y-42206036D01*
X62962079Y-42177948D01*
X62923977Y-42148394D01*
X62904438Y-42148394D01*
X62926321Y-42117835D01*
X62950726Y-42071366D01*
X62967861Y-42020596D01*
X62977727Y-41965525D01*
X62980397Y-41914898D01*
X62979977Y-41895937D01*
X62973665Y-41841595D01*
X62959781Y-41791065D01*
X62938323Y-41744348D01*
X62909291Y-41701443D01*
X62872686Y-41662351D01*
X62859067Y-41650343D01*
X62816342Y-41618968D01*
X62770819Y-41594564D01*
X62722496Y-41577133D01*
X62671374Y-41566675D01*
X62617452Y-41563189D01*
X62513161Y-41563189D01*
X62492688Y-41563592D01*
X62434362Y-41569646D01*
X62380672Y-41582964D01*
X62331620Y-41603546D01*
X62287204Y-41631392D01*
X62247424Y-41666503D01*
X62224012Y-41693477D01*
X62194745Y-41738002D01*
X62172503Y-41787404D01*
X62157285Y-41841683D01*
X62149968Y-41890641D01*
X62147529Y-41942986D01*
X61797304Y-41942986D01*
X61797304Y-40791381D01*
X62170000Y-40791381D01*
X62170000Y-41236147D01*
X62198087Y-41274005D01*
X62227641Y-41236147D01*
X62227641Y-40984089D01*
X62538562Y-40984089D01*
X62576103Y-41025651D01*
X62613389Y-41068302D01*
X62647415Y-41109346D01*
X62679246Y-41152372D01*
X62683327Y-41158770D01*
X62704525Y-41202808D01*
X62712951Y-41251535D01*
X62708074Y-41280313D01*
X62683398Y-41323098D01*
X62681580Y-41325359D01*
X62653845Y-41366817D01*
X62662393Y-41387822D01*
X62683398Y-41396371D01*
X62701770Y-41389397D01*
X62736887Y-41354117D01*
X62738976Y-41351477D01*
X62763377Y-41305414D01*
X62770837Y-41255687D01*
X62769618Y-41235379D01*
X62757289Y-41186059D01*
X62736154Y-41141625D01*
X62715546Y-41109156D01*
X62684261Y-41067118D01*
X62649250Y-41024853D01*
X62613056Y-40984089D01*
X62756671Y-40984089D01*
X62756671Y-40820935D01*
X62728583Y-40783077D01*
X62699030Y-40820935D01*
X62699030Y-40926448D01*
X62227641Y-40926448D01*
X62227641Y-40791381D01*
X62199553Y-40753524D01*
X62170000Y-40791381D01*
X61797304Y-40791381D01*
X61797304Y-39963398D01*
X62170000Y-39963398D01*
X62170000Y-40471423D01*
X62199553Y-40510746D01*
X62227641Y-40471423D01*
X62227641Y-40246231D01*
X62756671Y-40246231D01*
X62756671Y-40243545D01*
X62901507Y-40243545D01*
X63047808Y-40243545D01*
X63047808Y-40160502D01*
X62901507Y-40160502D01*
X62901507Y-40243545D01*
X62756671Y-40243545D01*
X62756671Y-40022505D01*
X62728583Y-39984647D01*
X62699030Y-40022505D01*
X62699030Y-40188590D01*
X62227641Y-40188590D01*
X62227641Y-39963398D01*
X62199553Y-39925540D01*
X62170000Y-39963398D01*
X61797304Y-39963398D01*
X61797304Y-39007431D01*
X62170000Y-39007431D01*
X62170000Y-39219923D01*
X62199553Y-39258025D01*
X62227641Y-39219923D01*
X62227641Y-39108792D01*
X62434515Y-39184752D01*
X62434515Y-39537927D01*
X62434515Y-39558932D01*
X62227641Y-39637822D01*
X62227641Y-39530844D01*
X62199553Y-39492986D01*
X62170000Y-39530844D01*
X62170000Y-39750418D01*
X62199553Y-39788276D01*
X62227641Y-39750418D01*
X62227641Y-39698394D01*
X62962079Y-39421179D01*
X62962079Y-39134193D01*
X62933991Y-39096092D01*
X62904438Y-39134193D01*
X62904438Y-39302965D01*
X62227641Y-39051151D01*
X62227641Y-39007431D01*
X62199553Y-38969574D01*
X62170000Y-39007431D01*
X61797304Y-39007431D01*
X61797304Y-38256873D01*
X62532944Y-38256873D01*
X62532944Y-38822540D01*
X62562498Y-38860397D01*
X62590586Y-38822540D01*
X62590586Y-38256873D01*
X62562498Y-38219016D01*
X62532944Y-38256873D01*
X61797304Y-38256873D01*
X61797304Y-37417655D01*
X62532944Y-37417655D01*
X62532944Y-37983321D01*
X62562498Y-38021179D01*
X62590586Y-37983321D01*
X62590586Y-37417655D01*
X62562498Y-37379797D01*
X62532944Y-37417655D01*
X61797304Y-37417655D01*
X61797304Y-36578436D01*
X62532944Y-36578436D01*
X62532944Y-37144103D01*
X62562498Y-37181960D01*
X62590586Y-37144103D01*
X62590586Y-36578436D01*
X62562498Y-36540579D01*
X62532944Y-36578436D01*
X61797304Y-36578436D01*
X61797304Y-36022051D01*
X62214940Y-36022051D01*
X62253042Y-36050139D01*
X62537096Y-36050139D01*
X62537096Y-36303419D01*
X62566650Y-36342742D01*
X62594982Y-36303419D01*
X62594982Y-36050139D01*
X62877571Y-36050139D01*
X62915673Y-36022051D01*
X62877571Y-35992498D01*
X62594982Y-35992498D01*
X62594982Y-35739218D01*
X62566650Y-35701360D01*
X62537096Y-35739218D01*
X62537096Y-35992498D01*
X62253042Y-35992498D01*
X62214940Y-36022051D01*
X61797304Y-36022051D01*
X61797304Y-35590249D01*
X63158919Y-35590249D01*
X63158919Y-46524474D01*
G37*
G36*
X73510976Y-16100352D02*
G01*
X73561530Y-16112547D01*
X73607525Y-16136296D01*
X73648960Y-16171598D01*
X73672616Y-16200165D01*
X73698923Y-16247107D01*
X73714218Y-16298955D01*
X73718569Y-16349162D01*
X73716147Y-16387959D01*
X73705386Y-16435869D01*
X73682987Y-16484549D01*
X73649692Y-16527704D01*
X73622670Y-16552107D01*
X73577661Y-16579245D01*
X73527281Y-16595023D01*
X73477990Y-16599511D01*
X73447952Y-16597722D01*
X73397520Y-16585486D01*
X73351764Y-16561658D01*
X73310683Y-16526238D01*
X73287276Y-16497753D01*
X73261246Y-16450905D01*
X73246112Y-16399110D01*
X73241807Y-16348918D01*
X73244254Y-16310982D01*
X73257102Y-16258135D01*
X73280962Y-16210157D01*
X73311416Y-16171598D01*
X73333908Y-16150559D01*
X73378121Y-16121676D01*
X73427125Y-16104346D01*
X73480921Y-16098569D01*
X73510976Y-16100352D01*
G37*
G36*
X73357624Y-15220226D02*
G01*
X73402321Y-15245853D01*
X73433782Y-15285484D01*
X73447893Y-15313048D01*
X73463585Y-15359866D01*
X73472708Y-15413254D01*
X73475303Y-15466224D01*
X73474790Y-15495864D01*
X73471283Y-15547802D01*
X73464452Y-15597925D01*
X73454298Y-15646231D01*
X73327536Y-15646231D01*
X73319411Y-15637469D01*
X73286533Y-15598795D01*
X73257071Y-15557273D01*
X73233258Y-15513363D01*
X73219681Y-15477245D01*
X73208489Y-15426143D01*
X73205170Y-15376343D01*
X73205975Y-15354167D01*
X73215603Y-15303262D01*
X73238143Y-15259351D01*
X73276734Y-15226744D01*
X73326071Y-15215875D01*
X73357624Y-15220226D01*
G37*
G36*
X73904438Y-12102267D02*
G01*
X73904438Y-12123517D01*
X73492156Y-12281053D01*
X73492156Y-11950348D01*
X73904438Y-12102267D01*
G37*
G36*
X74158919Y-23463692D02*
G01*
X72797304Y-23463692D01*
X72797304Y-22749057D01*
X73532944Y-22749057D01*
X73532944Y-23314724D01*
X73562498Y-23352581D01*
X73590586Y-23314724D01*
X73590586Y-22749057D01*
X73562498Y-22711200D01*
X73532944Y-22749057D01*
X72797304Y-22749057D01*
X72797304Y-21909839D01*
X73532944Y-21909839D01*
X73532944Y-22475505D01*
X73562498Y-22513363D01*
X73590586Y-22475505D01*
X73590586Y-21909839D01*
X73562498Y-21871981D01*
X73532944Y-21909839D01*
X72797304Y-21909839D01*
X72797304Y-21070621D01*
X73532944Y-21070621D01*
X73532944Y-21636287D01*
X73562498Y-21674145D01*
X73590586Y-21636287D01*
X73590586Y-21070621D01*
X73562498Y-21032763D01*
X73532944Y-21070621D01*
X72797304Y-21070621D01*
X72797304Y-20231402D01*
X73532944Y-20231402D01*
X73532944Y-20797069D01*
X73562498Y-20834926D01*
X73590586Y-20797069D01*
X73590586Y-20231402D01*
X73562498Y-20193545D01*
X73532944Y-20231402D01*
X72797304Y-20231402D01*
X72797304Y-19392184D01*
X73532944Y-19392184D01*
X73532944Y-19957850D01*
X73562498Y-19995708D01*
X73590586Y-19957850D01*
X73590586Y-19392184D01*
X73562498Y-19354326D01*
X73532944Y-19392184D01*
X72797304Y-19392184D01*
X72797304Y-18552965D01*
X73532944Y-18552965D01*
X73532944Y-19118632D01*
X73562498Y-19156489D01*
X73590586Y-19118632D01*
X73590586Y-18552965D01*
X73562498Y-18515108D01*
X73532944Y-18552965D01*
X72797304Y-18552965D01*
X72797304Y-17713747D01*
X73532944Y-17713747D01*
X73532944Y-18279413D01*
X73562498Y-18317271D01*
X73590586Y-18279413D01*
X73590586Y-17713747D01*
X73562498Y-17675889D01*
X73532944Y-17713747D01*
X72797304Y-17713747D01*
X72797304Y-16874528D01*
X73532944Y-16874528D01*
X73532944Y-17440195D01*
X73562498Y-17478053D01*
X73590586Y-17440195D01*
X73590586Y-16874528D01*
X73562498Y-16836671D01*
X73532944Y-16874528D01*
X72797304Y-16874528D01*
X72797304Y-15964968D01*
X72908415Y-15964968D01*
X72908415Y-16236566D01*
X72937969Y-16274424D01*
X72966057Y-16236566D01*
X72966057Y-16098569D01*
X73319232Y-16098569D01*
X73302876Y-16110601D01*
X73260140Y-16149661D01*
X73226901Y-16193170D01*
X73203159Y-16241127D01*
X73188914Y-16293531D01*
X73184288Y-16348918D01*
X73184166Y-16350383D01*
X73185505Y-16382108D01*
X73194296Y-16434560D01*
X73211291Y-16483107D01*
X73236491Y-16527752D01*
X73269895Y-16568492D01*
X73291945Y-16589272D01*
X73333509Y-16618970D01*
X73378860Y-16640182D01*
X73427997Y-16652910D01*
X73480921Y-16657152D01*
X73511615Y-16655778D01*
X73562300Y-16646762D01*
X73609128Y-16629332D01*
X73652099Y-16603486D01*
X73691214Y-16569225D01*
X73711192Y-16546571D01*
X73739744Y-16503695D01*
X73760139Y-16456705D01*
X73772376Y-16405601D01*
X73776454Y-16350383D01*
X73774001Y-16307098D01*
X73764338Y-16259021D01*
X73745436Y-16212630D01*
X73743456Y-16209029D01*
X73713300Y-16165998D01*
X73679144Y-16130402D01*
X73641388Y-16098569D01*
X73756671Y-16098569D01*
X73756671Y-15964968D01*
X73728583Y-15927110D01*
X73699030Y-15964968D01*
X73699030Y-16040928D01*
X72966057Y-16040928D01*
X72966057Y-15964968D01*
X72937969Y-15927110D01*
X72908415Y-15964968D01*
X72797304Y-15964968D01*
X72797304Y-15377564D01*
X73147529Y-15377564D01*
X73149353Y-15413178D01*
X73158930Y-15465511D01*
X73176716Y-15516538D01*
X73202711Y-15566261D01*
X73230644Y-15606699D01*
X73264277Y-15646231D01*
X73170000Y-15646231D01*
X73170000Y-15780076D01*
X73199553Y-15817934D01*
X73227641Y-15780076D01*
X73227641Y-15704117D01*
X73603286Y-15704117D01*
X73643199Y-15699036D01*
X73690226Y-15676453D01*
X73727117Y-15639881D01*
X73735935Y-15627580D01*
X73759061Y-15582204D01*
X73772552Y-15530102D01*
X73776454Y-15477459D01*
X73772827Y-15427026D01*
X73765099Y-15378740D01*
X73754473Y-15328227D01*
X73751719Y-15316663D01*
X73736864Y-15270032D01*
X73701716Y-15232728D01*
X73681933Y-15240300D01*
X73673628Y-15259351D01*
X73680738Y-15290426D01*
X73696099Y-15339706D01*
X73705929Y-15373885D01*
X73715409Y-15424180D01*
X73718569Y-15473307D01*
X73717453Y-15501294D01*
X73708523Y-15550982D01*
X73686817Y-15598360D01*
X73652771Y-15632721D01*
X73603286Y-15646231D01*
X73503391Y-15646231D01*
X73511905Y-15613033D01*
X73522526Y-15562471D01*
X73530058Y-15509347D01*
X73532944Y-15454989D01*
X73532722Y-15438667D01*
X73528443Y-15384604D01*
X73518717Y-15335310D01*
X73500933Y-15284813D01*
X73476036Y-15240544D01*
X73461267Y-15221252D01*
X73424074Y-15187251D01*
X73376313Y-15164745D01*
X73327536Y-15158234D01*
X73280400Y-15164125D01*
X73235328Y-15184215D01*
X73197355Y-15218562D01*
X73188450Y-15230252D01*
X73165095Y-15274025D01*
X73151470Y-15325192D01*
X73147621Y-15376343D01*
X73147529Y-15377564D01*
X72797304Y-15377564D01*
X72797304Y-14686113D01*
X73147529Y-14686113D01*
X73147814Y-14703140D01*
X73152093Y-14753753D01*
X73161507Y-14803661D01*
X73176056Y-14852866D01*
X73195739Y-14901366D01*
X73220558Y-14949162D01*
X73464068Y-14949162D01*
X73464068Y-14968946D01*
X73493621Y-15008269D01*
X73521709Y-14968946D01*
X73521709Y-14695882D01*
X73493621Y-14658025D01*
X73464068Y-14695882D01*
X73464068Y-14891521D01*
X73253042Y-14891521D01*
X73232098Y-14840474D01*
X73217138Y-14789916D01*
X73208162Y-14739846D01*
X73205170Y-14690265D01*
X73207180Y-14644370D01*
X73214897Y-14593468D01*
X73231214Y-14539835D01*
X73255408Y-14492396D01*
X73287480Y-14451151D01*
X73314693Y-14426031D01*
X73357799Y-14398017D01*
X73406750Y-14378347D01*
X73461543Y-14367022D01*
X73513161Y-14363956D01*
X73615987Y-14363956D01*
X73643487Y-14366052D01*
X73691946Y-14376657D01*
X73697603Y-14378307D01*
X73745673Y-14396046D01*
X73791842Y-14418178D01*
X73815066Y-14432435D01*
X73853857Y-14467656D01*
X73884654Y-14510258D01*
X73906347Y-14556577D01*
X73919035Y-14608552D01*
X73922756Y-14660711D01*
X73922421Y-14677934D01*
X73917398Y-14726897D01*
X73904747Y-14776543D01*
X73884654Y-14821179D01*
X73874945Y-14837100D01*
X73840019Y-14875140D01*
X73793307Y-14892986D01*
X73758136Y-14921074D01*
X73795994Y-14949162D01*
X73923977Y-14949162D01*
X73962079Y-14921074D01*
X73923977Y-14891521D01*
X73904438Y-14891521D01*
X73926321Y-14860962D01*
X73950726Y-14814493D01*
X73967861Y-14763723D01*
X73977727Y-14708652D01*
X73980397Y-14658025D01*
X73979977Y-14639063D01*
X73973665Y-14584721D01*
X73959781Y-14534192D01*
X73938323Y-14487474D01*
X73909291Y-14444570D01*
X73872686Y-14405478D01*
X73859067Y-14393470D01*
X73816342Y-14362094D01*
X73770819Y-14337691D01*
X73722496Y-14320260D01*
X73671374Y-14309801D01*
X73617452Y-14306315D01*
X73513161Y-14306315D01*
X73492688Y-14306718D01*
X73434362Y-14312772D01*
X73380672Y-14326090D01*
X73331620Y-14346672D01*
X73287204Y-14374519D01*
X73247424Y-14409630D01*
X73224012Y-14436603D01*
X73194745Y-14481128D01*
X73172503Y-14530530D01*
X73157285Y-14584809D01*
X73149968Y-14633767D01*
X73147529Y-14686113D01*
X72797304Y-14686113D01*
X72797304Y-13534508D01*
X73170000Y-13534508D01*
X73170000Y-13979274D01*
X73198087Y-14017131D01*
X73227641Y-13979274D01*
X73227641Y-13727215D01*
X73538562Y-13727215D01*
X73576103Y-13768777D01*
X73613389Y-13811428D01*
X73647415Y-13852472D01*
X73679246Y-13895498D01*
X73683327Y-13901896D01*
X73704525Y-13945935D01*
X73712951Y-13994661D01*
X73708074Y-14023439D01*
X73683398Y-14066224D01*
X73681580Y-14068485D01*
X73653845Y-14109944D01*
X73662393Y-14130949D01*
X73683398Y-14139497D01*
X73701770Y-14132523D01*
X73736887Y-14097243D01*
X73738976Y-14094603D01*
X73763377Y-14048541D01*
X73770837Y-13998813D01*
X73769618Y-13978506D01*
X73757289Y-13929185D01*
X73736154Y-13884752D01*
X73715546Y-13852283D01*
X73684261Y-13810245D01*
X73649250Y-13767979D01*
X73613056Y-13727215D01*
X73756671Y-13727215D01*
X73756671Y-13564061D01*
X73728583Y-13526203D01*
X73699030Y-13564061D01*
X73699030Y-13669574D01*
X73227641Y-13669574D01*
X73227641Y-13534508D01*
X73199553Y-13496650D01*
X73170000Y-13534508D01*
X72797304Y-13534508D01*
X72797304Y-12706524D01*
X73170000Y-12706524D01*
X73170000Y-13214549D01*
X73199553Y-13253872D01*
X73227641Y-13214549D01*
X73227641Y-12989357D01*
X73756671Y-12989357D01*
X73756671Y-12986671D01*
X73901507Y-12986671D01*
X74047808Y-12986671D01*
X74047808Y-12903628D01*
X73901507Y-12903628D01*
X73901507Y-12986671D01*
X73756671Y-12986671D01*
X73756671Y-12765631D01*
X73728583Y-12727773D01*
X73699030Y-12765631D01*
X73699030Y-12931716D01*
X73227641Y-12931716D01*
X73227641Y-12706524D01*
X73199553Y-12668667D01*
X73170000Y-12706524D01*
X72797304Y-12706524D01*
X72797304Y-11750558D01*
X73170000Y-11750558D01*
X73170000Y-11963049D01*
X73199553Y-12001151D01*
X73227641Y-11963049D01*
X73227641Y-11851919D01*
X73434515Y-11927878D01*
X73434515Y-12281053D01*
X73434515Y-12302058D01*
X73227641Y-12380949D01*
X73227641Y-12273970D01*
X73199553Y-12236113D01*
X73170000Y-12273970D01*
X73170000Y-12493545D01*
X73199553Y-12531402D01*
X73227641Y-12493545D01*
X73227641Y-12441521D01*
X73962079Y-12164305D01*
X73962079Y-11877320D01*
X73933991Y-11839218D01*
X73904438Y-11877320D01*
X73904438Y-12046092D01*
X73227641Y-11794277D01*
X73227641Y-11750558D01*
X73199553Y-11712700D01*
X73170000Y-11750558D01*
X72797304Y-11750558D01*
X72797304Y-11601589D01*
X74158919Y-11601589D01*
X74158919Y-23463692D01*
G37*
D13*
X79695237Y-141962180D02*
X79647618Y-142009800D01*
X79647618Y-142009800D02*
X79504761Y-142057419D01*
X79504761Y-142057419D02*
X79409523Y-142057419D01*
X79409523Y-142057419D02*
X79266666Y-142009800D01*
X79266666Y-142009800D02*
X79171428Y-141914561D01*
X79171428Y-141914561D02*
X79123809Y-141819323D01*
X79123809Y-141819323D02*
X79076190Y-141628847D01*
X79076190Y-141628847D02*
X79076190Y-141485990D01*
X79076190Y-141485990D02*
X79123809Y-141295514D01*
X79123809Y-141295514D02*
X79171428Y-141200276D01*
X79171428Y-141200276D02*
X79266666Y-141105038D01*
X79266666Y-141105038D02*
X79409523Y-141057419D01*
X79409523Y-141057419D02*
X79504761Y-141057419D01*
X79504761Y-141057419D02*
X79647618Y-141105038D01*
X79647618Y-141105038D02*
X79695237Y-141152657D01*
X80552380Y-142057419D02*
X80552380Y-141533609D01*
X80552380Y-141533609D02*
X80504761Y-141438371D01*
X80504761Y-141438371D02*
X80409523Y-141390752D01*
X80409523Y-141390752D02*
X80219047Y-141390752D01*
X80219047Y-141390752D02*
X80123809Y-141438371D01*
X80552380Y-142009800D02*
X80457142Y-142057419D01*
X80457142Y-142057419D02*
X80219047Y-142057419D01*
X80219047Y-142057419D02*
X80123809Y-142009800D01*
X80123809Y-142009800D02*
X80076190Y-141914561D01*
X80076190Y-141914561D02*
X80076190Y-141819323D01*
X80076190Y-141819323D02*
X80123809Y-141724085D01*
X80123809Y-141724085D02*
X80219047Y-141676466D01*
X80219047Y-141676466D02*
X80457142Y-141676466D01*
X80457142Y-141676466D02*
X80552380Y-141628847D01*
X81028571Y-142057419D02*
X81028571Y-141390752D01*
X81028571Y-141581228D02*
X81076190Y-141485990D01*
X81076190Y-141485990D02*
X81123809Y-141438371D01*
X81123809Y-141438371D02*
X81219047Y-141390752D01*
X81219047Y-141390752D02*
X81314285Y-141390752D01*
X82076190Y-142057419D02*
X82076190Y-141057419D01*
X82076190Y-142009800D02*
X81980952Y-142057419D01*
X81980952Y-142057419D02*
X81790476Y-142057419D01*
X81790476Y-142057419D02*
X81695238Y-142009800D01*
X81695238Y-142009800D02*
X81647619Y-141962180D01*
X81647619Y-141962180D02*
X81600000Y-141866942D01*
X81600000Y-141866942D02*
X81600000Y-141581228D01*
X81600000Y-141581228D02*
X81647619Y-141485990D01*
X81647619Y-141485990D02*
X81695238Y-141438371D01*
X81695238Y-141438371D02*
X81790476Y-141390752D01*
X81790476Y-141390752D02*
X81980952Y-141390752D01*
X81980952Y-141390752D02*
X82076190Y-141438371D01*
X82552381Y-142057419D02*
X82552381Y-141057419D01*
X83123809Y-142057419D02*
X82695238Y-141485990D01*
X83123809Y-141057419D02*
X82552381Y-141628847D01*
X83885714Y-141533609D02*
X84028571Y-141581228D01*
X84028571Y-141581228D02*
X84076190Y-141628847D01*
X84076190Y-141628847D02*
X84123809Y-141724085D01*
X84123809Y-141724085D02*
X84123809Y-141866942D01*
X84123809Y-141866942D02*
X84076190Y-141962180D01*
X84076190Y-141962180D02*
X84028571Y-142009800D01*
X84028571Y-142009800D02*
X83933333Y-142057419D01*
X83933333Y-142057419D02*
X83552381Y-142057419D01*
X83552381Y-142057419D02*
X83552381Y-141057419D01*
X83552381Y-141057419D02*
X83885714Y-141057419D01*
X83885714Y-141057419D02*
X83980952Y-141105038D01*
X83980952Y-141105038D02*
X84028571Y-141152657D01*
X84028571Y-141152657D02*
X84076190Y-141247895D01*
X84076190Y-141247895D02*
X84076190Y-141343133D01*
X84076190Y-141343133D02*
X84028571Y-141438371D01*
X84028571Y-141438371D02*
X83980952Y-141485990D01*
X83980952Y-141485990D02*
X83885714Y-141533609D01*
X83885714Y-141533609D02*
X83552381Y-141533609D01*
D11*
X147166667Y-132107200D02*
X147309524Y-132154819D01*
X147309524Y-132154819D02*
X147547619Y-132154819D01*
X147547619Y-132154819D02*
X147642857Y-132107200D01*
X147642857Y-132107200D02*
X147690476Y-132059580D01*
X147690476Y-132059580D02*
X147738095Y-131964342D01*
X147738095Y-131964342D02*
X147738095Y-131869104D01*
X147738095Y-131869104D02*
X147690476Y-131773866D01*
X147690476Y-131773866D02*
X147642857Y-131726247D01*
X147642857Y-131726247D02*
X147547619Y-131678628D01*
X147547619Y-131678628D02*
X147357143Y-131631009D01*
X147357143Y-131631009D02*
X147261905Y-131583390D01*
X147261905Y-131583390D02*
X147214286Y-131535771D01*
X147214286Y-131535771D02*
X147166667Y-131440533D01*
X147166667Y-131440533D02*
X147166667Y-131345295D01*
X147166667Y-131345295D02*
X147214286Y-131250057D01*
X147214286Y-131250057D02*
X147261905Y-131202438D01*
X147261905Y-131202438D02*
X147357143Y-131154819D01*
X147357143Y-131154819D02*
X147595238Y-131154819D01*
X147595238Y-131154819D02*
X147738095Y-131202438D01*
X148071429Y-131154819D02*
X148309524Y-132154819D01*
X148309524Y-132154819D02*
X148500000Y-131440533D01*
X148500000Y-131440533D02*
X148690476Y-132154819D01*
X148690476Y-132154819D02*
X148928572Y-131154819D01*
X149261905Y-131250057D02*
X149309524Y-131202438D01*
X149309524Y-131202438D02*
X149404762Y-131154819D01*
X149404762Y-131154819D02*
X149642857Y-131154819D01*
X149642857Y-131154819D02*
X149738095Y-131202438D01*
X149738095Y-131202438D02*
X149785714Y-131250057D01*
X149785714Y-131250057D02*
X149833333Y-131345295D01*
X149833333Y-131345295D02*
X149833333Y-131440533D01*
X149833333Y-131440533D02*
X149785714Y-131583390D01*
X149785714Y-131583390D02*
X149214286Y-132154819D01*
X149214286Y-132154819D02*
X149833333Y-132154819D01*
X135666667Y-132107200D02*
X135809524Y-132154819D01*
X135809524Y-132154819D02*
X136047619Y-132154819D01*
X136047619Y-132154819D02*
X136142857Y-132107200D01*
X136142857Y-132107200D02*
X136190476Y-132059580D01*
X136190476Y-132059580D02*
X136238095Y-131964342D01*
X136238095Y-131964342D02*
X136238095Y-131869104D01*
X136238095Y-131869104D02*
X136190476Y-131773866D01*
X136190476Y-131773866D02*
X136142857Y-131726247D01*
X136142857Y-131726247D02*
X136047619Y-131678628D01*
X136047619Y-131678628D02*
X135857143Y-131631009D01*
X135857143Y-131631009D02*
X135761905Y-131583390D01*
X135761905Y-131583390D02*
X135714286Y-131535771D01*
X135714286Y-131535771D02*
X135666667Y-131440533D01*
X135666667Y-131440533D02*
X135666667Y-131345295D01*
X135666667Y-131345295D02*
X135714286Y-131250057D01*
X135714286Y-131250057D02*
X135761905Y-131202438D01*
X135761905Y-131202438D02*
X135857143Y-131154819D01*
X135857143Y-131154819D02*
X136095238Y-131154819D01*
X136095238Y-131154819D02*
X136238095Y-131202438D01*
X136571429Y-131154819D02*
X136809524Y-132154819D01*
X136809524Y-132154819D02*
X137000000Y-131440533D01*
X137000000Y-131440533D02*
X137190476Y-132154819D01*
X137190476Y-132154819D02*
X137428572Y-131154819D01*
X138333333Y-132154819D02*
X137761905Y-132154819D01*
X138047619Y-132154819D02*
X138047619Y-131154819D01*
X138047619Y-131154819D02*
X137952381Y-131297676D01*
X137952381Y-131297676D02*
X137857143Y-131392914D01*
X137857143Y-131392914D02*
X137761905Y-131440533D01*
X147809523Y-28954819D02*
X147333333Y-28954819D01*
X147333333Y-28954819D02*
X147333333Y-27954819D01*
X148714285Y-28859580D02*
X148666666Y-28907200D01*
X148666666Y-28907200D02*
X148523809Y-28954819D01*
X148523809Y-28954819D02*
X148428571Y-28954819D01*
X148428571Y-28954819D02*
X148285714Y-28907200D01*
X148285714Y-28907200D02*
X148190476Y-28811961D01*
X148190476Y-28811961D02*
X148142857Y-28716723D01*
X148142857Y-28716723D02*
X148095238Y-28526247D01*
X148095238Y-28526247D02*
X148095238Y-28383390D01*
X148095238Y-28383390D02*
X148142857Y-28192914D01*
X148142857Y-28192914D02*
X148190476Y-28097676D01*
X148190476Y-28097676D02*
X148285714Y-28002438D01*
X148285714Y-28002438D02*
X148428571Y-27954819D01*
X148428571Y-27954819D02*
X148523809Y-27954819D01*
X148523809Y-27954819D02*
X148666666Y-28002438D01*
X148666666Y-28002438D02*
X148714285Y-28050057D01*
X149142857Y-28954819D02*
X149142857Y-27954819D01*
X149142857Y-27954819D02*
X149380952Y-27954819D01*
X149380952Y-27954819D02*
X149523809Y-28002438D01*
X149523809Y-28002438D02*
X149619047Y-28097676D01*
X149619047Y-28097676D02*
X149666666Y-28192914D01*
X149666666Y-28192914D02*
X149714285Y-28383390D01*
X149714285Y-28383390D02*
X149714285Y-28526247D01*
X149714285Y-28526247D02*
X149666666Y-28716723D01*
X149666666Y-28716723D02*
X149619047Y-28811961D01*
X149619047Y-28811961D02*
X149523809Y-28907200D01*
X149523809Y-28907200D02*
X149380952Y-28954819D01*
X149380952Y-28954819D02*
X149142857Y-28954819D01*
D14*
X139494761Y-123054318D02*
X138889999Y-123054318D01*
X138889999Y-123054318D02*
X138829523Y-123659080D01*
X138829523Y-123659080D02*
X138889999Y-123598603D01*
X138889999Y-123598603D02*
X139010952Y-123538127D01*
X139010952Y-123538127D02*
X139313333Y-123538127D01*
X139313333Y-123538127D02*
X139434285Y-123598603D01*
X139434285Y-123598603D02*
X139494761Y-123659080D01*
X139494761Y-123659080D02*
X139555238Y-123780032D01*
X139555238Y-123780032D02*
X139555238Y-124082413D01*
X139555238Y-124082413D02*
X139494761Y-124203365D01*
X139494761Y-124203365D02*
X139434285Y-124263842D01*
X139434285Y-124263842D02*
X139313333Y-124324318D01*
X139313333Y-124324318D02*
X139010952Y-124324318D01*
X139010952Y-124324318D02*
X138889999Y-124263842D01*
X138889999Y-124263842D02*
X138829523Y-124203365D01*
X139978571Y-123054318D02*
X140280952Y-124324318D01*
X140280952Y-124324318D02*
X140522857Y-123417175D01*
X140522857Y-123417175D02*
X140764762Y-124324318D01*
X140764762Y-124324318D02*
X141067143Y-123054318D01*
X142095238Y-124324318D02*
X142095238Y-123659080D01*
X142095238Y-123659080D02*
X142034762Y-123538127D01*
X142034762Y-123538127D02*
X141913810Y-123477651D01*
X141913810Y-123477651D02*
X141671905Y-123477651D01*
X141671905Y-123477651D02*
X141550952Y-123538127D01*
X142095238Y-124263842D02*
X141974286Y-124324318D01*
X141974286Y-124324318D02*
X141671905Y-124324318D01*
X141671905Y-124324318D02*
X141550952Y-124263842D01*
X141550952Y-124263842D02*
X141490476Y-124142889D01*
X141490476Y-124142889D02*
X141490476Y-124021937D01*
X141490476Y-124021937D02*
X141550952Y-123900984D01*
X141550952Y-123900984D02*
X141671905Y-123840508D01*
X141671905Y-123840508D02*
X141974286Y-123840508D01*
X141974286Y-123840508D02*
X142095238Y-123780032D01*
X142579048Y-123477651D02*
X142881429Y-124324318D01*
X143183810Y-123477651D02*
X142881429Y-124324318D01*
X142881429Y-124324318D02*
X142760477Y-124626699D01*
X142760477Y-124626699D02*
X142700000Y-124687175D01*
X142700000Y-124687175D02*
X142579048Y-124747651D01*
X143667619Y-124324318D02*
X143667619Y-123054318D01*
X143667619Y-123054318D02*
X144393334Y-124324318D01*
X144393334Y-124324318D02*
X144393334Y-123054318D01*
X145542381Y-124324318D02*
X145542381Y-123659080D01*
X145542381Y-123659080D02*
X145481905Y-123538127D01*
X145481905Y-123538127D02*
X145360953Y-123477651D01*
X145360953Y-123477651D02*
X145119048Y-123477651D01*
X145119048Y-123477651D02*
X144998095Y-123538127D01*
X145542381Y-124263842D02*
X145421429Y-124324318D01*
X145421429Y-124324318D02*
X145119048Y-124324318D01*
X145119048Y-124324318D02*
X144998095Y-124263842D01*
X144998095Y-124263842D02*
X144937619Y-124142889D01*
X144937619Y-124142889D02*
X144937619Y-124021937D01*
X144937619Y-124021937D02*
X144998095Y-123900984D01*
X144998095Y-123900984D02*
X145119048Y-123840508D01*
X145119048Y-123840508D02*
X145421429Y-123840508D01*
X145421429Y-123840508D02*
X145542381Y-123780032D01*
X146026191Y-123477651D02*
X146328572Y-124324318D01*
X146328572Y-124324318D02*
X146630953Y-123477651D01*
D13*
%TO.C,CardKB*%
X39100000Y-165600000D02*
X39100000Y-117600000D01*
X42100000Y-114600000D02*
X121100000Y-114600000D01*
X121100000Y-168600000D02*
X42100000Y-168600000D01*
X124100000Y-117600000D02*
X124100000Y-165600000D01*
X39100000Y-117600000D02*
G75*
G02*
X42100000Y-114600000I3000000J0D01*
G01*
X42100000Y-168600000D02*
G75*
G02*
X39100000Y-165600000I0J3000000D01*
G01*
X121100000Y-114600000D02*
G75*
G02*
X124100000Y-117600000I0J-3000000D01*
G01*
X124100000Y-165600000D02*
G75*
G02*
X121100000Y-168600000I-3000000J0D01*
G01*
D15*
%TO.C,SW2*%
X145380000Y-137150000D02*
X145380000Y-134950000D01*
X145850000Y-139120000D02*
X151050000Y-139120000D01*
X146450000Y-132880000D02*
X150850000Y-132880000D01*
X151620000Y-134950000D02*
X151620000Y-137150000D01*
X149914214Y-136000000D02*
G75*
G02*
X147085786Y-136000000I-1414214J0D01*
G01*
X147085786Y-136000000D02*
G75*
G02*
X149914214Y-136000000I1414214J0D01*
G01*
%TO.C,SW1*%
X133880000Y-137150000D02*
X133880000Y-134950000D01*
X134350000Y-139120000D02*
X139550000Y-139120000D01*
X134950000Y-132880000D02*
X139350000Y-132880000D01*
X140120000Y-134950000D02*
X140120000Y-137150000D01*
X138414214Y-136000000D02*
G75*
G02*
X135585786Y-136000000I-1414214J0D01*
G01*
X135585786Y-136000000D02*
G75*
G02*
X138414214Y-136000000I1414214J0D01*
G01*
D16*
%TO.C,LCD*%
X159200000Y-107300000D02*
G75*
G02*
X155200000Y-111300000I-4000000J0D01*
G01*
X155200000Y-111300000D02*
G75*
G02*
X151200000Y-107300000I0J4000000D01*
G01*
X155200000Y-19500000D02*
G75*
G02*
X159200000Y-23500000I0J-4000000D01*
G01*
X151200000Y-23400000D02*
G75*
G02*
X155200000Y-19500000I3950000J-50000D01*
G01*
X46500000Y-107300000D02*
G75*
G02*
X42500000Y-111300000I-4000000J0D01*
G01*
X42500000Y-111300000D02*
G75*
G02*
X38500000Y-107300000I0J4000000D01*
G01*
X42500000Y-19500000D02*
G75*
G02*
X46500000Y-23500000I0J-4000000D01*
G01*
X38500000Y-23500000D02*
G75*
G02*
X42500000Y-19500000I4000000J0D01*
G01*
X159200000Y-23500000D02*
X159200000Y-107300000D01*
X151200000Y-107300000D02*
X151200000Y-103300000D01*
X151200000Y-27500000D02*
X46500000Y-27500000D01*
X151200000Y-23400000D02*
X151200000Y-27500000D01*
X46500000Y-107300000D02*
X46500000Y-103300000D01*
X46500000Y-103300000D02*
X151200000Y-103300000D01*
X46500000Y-23500000D02*
X46500000Y-27500000D01*
X38500000Y-23500000D02*
X38500000Y-107300000D01*
D13*
%TO.C,5WayNav*%
X136050000Y-120500000D02*
X136050000Y-120500000D01*
X136150000Y-120500000D02*
X136150000Y-120500000D01*
D10*
X137700000Y-118750000D02*
X147700000Y-118750000D01*
X137700000Y-119250000D02*
X137700000Y-118750000D01*
X137700000Y-128350000D02*
X137700000Y-128750000D01*
X137700000Y-128750000D02*
X147700000Y-128750000D01*
X147700000Y-118750000D02*
X147700000Y-119250000D01*
X147700000Y-128750000D02*
X147700000Y-128350000D01*
D13*
X136050000Y-120500000D02*
G75*
G02*
X136150000Y-120500000I50000J0D01*
G01*
X136150000Y-120500000D02*
G75*
G02*
X136050000Y-120500000I-50000J0D01*
G01*
%TD*%
M02*
