%TF.GenerationSoftware,KiCad,Pcbnew,8.0.7-8.0.7-0~ubuntu22.04.1*%
%TF.CreationDate,2025-04-19T16:29:59-04:00*%
%TF.ProjectId,whackberry_mobo,77686163-6b62-4657-9272-795f6d6f626f,rev?*%
%TF.SameCoordinates,Original*%
%TF.FileFunction,Copper,L1,Top*%
%TF.FilePolarity,Positive*%
%FSLAX46Y46*%
G04 Gerber Fmt 4.6, Leading zero omitted, Abs format (unit mm)*
G04 Created by KiCad (PCBNEW 8.0.7-8.0.7-0~ubuntu22.04.1) date 2025-04-19 16:29:59*
%MOMM*%
%LPD*%
G01*
G04 APERTURE LIST*
G04 Aperture macros list*
%AMRoundRect*
0 Rectangle with rounded corners*
0 $1 Rounding radius*
0 $2 $3 $4 $5 $6 $7 $8 $9 X,Y pos of 4 corners*
0 Add a 4 corners polygon primitive as box body*
4,1,4,$2,$3,$4,$5,$6,$7,$8,$9,$2,$3,0*
0 Add four circle primitives for the rounded corners*
1,1,$1+$1,$2,$3*
1,1,$1+$1,$4,$5*
1,1,$1+$1,$6,$7*
1,1,$1+$1,$8,$9*
0 Add four rect primitives between the rounded corners*
20,1,$1+$1,$2,$3,$4,$5,0*
20,1,$1+$1,$4,$5,$6,$7,0*
20,1,$1+$1,$6,$7,$8,$9,0*
20,1,$1+$1,$8,$9,$2,$3,0*%
G04 Aperture macros list end*
%TA.AperFunction,NonConductor*%
%ADD10C,0.200000*%
%TD*%
%TA.AperFunction,ComponentPad*%
%ADD11R,1.700000X1.700000*%
%TD*%
%TA.AperFunction,ComponentPad*%
%ADD12C,1.700000*%
%TD*%
%TA.AperFunction,ComponentPad*%
%ADD13C,6.451600*%
%TD*%
%TA.AperFunction,ComponentPad*%
%ADD14R,1.800000X1.800000*%
%TD*%
%TA.AperFunction,ComponentPad*%
%ADD15C,1.500000*%
%TD*%
%TA.AperFunction,ComponentPad*%
%ADD16C,1.800000*%
%TD*%
%TA.AperFunction,ComponentPad*%
%ADD17C,1.600000*%
%TD*%
%TA.AperFunction,ComponentPad*%
%ADD18O,1.600000X1.600000*%
%TD*%
%TA.AperFunction,ComponentPad*%
%ADD19C,3.450000*%
%TD*%
%TA.AperFunction,ComponentPad*%
%ADD20RoundRect,0.248400X0.651600X0.651600X-0.651600X0.651600X-0.651600X-0.651600X0.651600X-0.651600X0*%
%TD*%
%TA.AperFunction,ComponentPad*%
%ADD21O,1.700000X1.700000*%
%TD*%
%TA.AperFunction,ViaPad*%
%ADD22C,0.600000*%
%TD*%
%TA.AperFunction,ViaPad*%
%ADD23C,0.500000*%
%TD*%
%TA.AperFunction,Conductor*%
%ADD24C,0.200000*%
%TD*%
G04 APERTURE END LIST*
D10*
X150071000Y-152400000D02*
X148000000Y-157400000D01*
X135929000Y-152400000D02*
X143000000Y-159471000D01*
X143000000Y-159471000D02*
X138000000Y-157400000D01*
X150071000Y-152400000D02*
X138000000Y-157400000D01*
X135929000Y-152400000D02*
X138000000Y-147400000D01*
X135929000Y-152400000D02*
X150071000Y-152400000D01*
X138000000Y-147400000D02*
X148000000Y-147400000D01*
X148000000Y-157400000D01*
X138000000Y-157400000D01*
X138000000Y-147400000D01*
X143000000Y-145329000D02*
X148000000Y-147400000D01*
X148000000Y-147400000D02*
X143000000Y-159471000D01*
X148000000Y-157400000D02*
X135929000Y-152400000D01*
X150071000Y-152400000D02*
X143000000Y-145329000D01*
X143000000Y-159471000D02*
X150071000Y-152400000D01*
X138000000Y-157400000D02*
X135929000Y-152400000D01*
X150071000Y-152400000D02*
X138000000Y-147400000D01*
X148000000Y-147400000D02*
X150071000Y-152400000D01*
X138000000Y-147400000D02*
X143000000Y-145329000D01*
X143000000Y-145329000D02*
X148000000Y-157400000D01*
X143000000Y-145329000D02*
X138000000Y-157400000D01*
X148000000Y-147400000D02*
X138000000Y-157400000D01*
X138035500Y-147400000D02*
X148035500Y-157400000D01*
X143000000Y-159471000D02*
X138000000Y-147400000D01*
X143000000Y-145329000D02*
X135929000Y-152400000D01*
X148000000Y-147400000D02*
X135929000Y-152400000D01*
X148000000Y-157400000D02*
X143000000Y-159471000D01*
X143000000Y-145329000D02*
X143000000Y-159471000D01*
D11*
%TO.P,SW2,1,1*%
%TO.N,Net-(5WayNav-1-COMMON)*%
X145250000Y-133750000D03*
D12*
X151750000Y-133750000D03*
%TO.P,SW2,2,2*%
%TO.N,Net-(RPi-Zero-1-Pad29)*%
X145250000Y-138250000D03*
X151750000Y-138250000D03*
%TD*%
D11*
%TO.P,SW1,1,1*%
%TO.N,Net-(5WayNav-1-COMMON)*%
X133750000Y-133750000D03*
D12*
X140250000Y-133750000D03*
%TO.P,SW1,2,2*%
%TO.N,Net-(5WayNav-1-CENTER)*%
X133750000Y-138250000D03*
X140250000Y-138250000D03*
%TD*%
D13*
%TO.P,LCD,SH4*%
%TO.N,N/C*%
X42500000Y-23500000D03*
%TO.P,LCD,SH3*%
X155200000Y-23500000D03*
%TO.P,LCD,SH2*%
X155200000Y-107300000D03*
%TO.P,LCD,SH1*%
X42500000Y-107300000D03*
D12*
%TO.P,LCD,GND*%
%TO.N,Net-(GROVE-1-GND)*%
X157524000Y-38501400D03*
%TO.P,LCD,5V*%
%TO.N,Net-(USB-A-1-5V)*%
X157524000Y-66187400D03*
%TD*%
D14*
%TO.P,5WayNav,1,A*%
%TO.N,Net-(5WayNav-1-A)*%
X137550000Y-120500000D03*
D15*
%TO.P,5WayNav,2,B*%
%TO.N,Net-(5WayNav-1-B)*%
X137550000Y-124200000D03*
D16*
%TO.P,5WayNav,3,C*%
%TO.N,Net-(5WayNav-1-C)*%
X137550000Y-127000000D03*
%TO.P,5WayNav,4,COMMON*%
%TO.N,Net-(5WayNav-1-COMMON)*%
X147850000Y-127000000D03*
D15*
%TO.P,5WayNav,5,D*%
%TO.N,Net-(5WayNav-1-D)*%
X147850000Y-124200000D03*
D16*
%TO.P,5WayNav,6,CENTER*%
%TO.N,Net-(5WayNav-1-CENTER)*%
X147850000Y-120500000D03*
%TD*%
D17*
%TO.P,R1,1*%
%TO.N,Net-(5WayNav-1-COMMON)*%
X122080000Y-54500000D03*
D18*
%TO.P,R1,2*%
%TO.N,Net-(GROVE-1-3.3V)*%
X111920000Y-54500000D03*
%TD*%
D14*
%TO.P,IR-LED,1,K*%
%TO.N,Net-(IR-LED-1-K)*%
X69100000Y-42000000D03*
D16*
%TO.P,IR-LED,2,A*%
%TO.N,Net-(GROVE-1-3.3V)*%
X66560000Y-42000000D03*
%TD*%
D12*
%TO.P,QTpy,3.3V*%
%TO.N,Net-(IR-Re-1-Vs)*%
X47340000Y-44740000D03*
%TO.P,QTpy,5V*%
%TO.N,Net-(USB-A-1-5V)*%
X42260000Y-44740000D03*
%TO.P,QTpy,A0*%
%TO.N,unconnected-(QTpy-1-PadA0)*%
X42260000Y-29500000D03*
%TO.P,QTpy,A1*%
%TO.N,unconnected-(QTpy-1-PadA1)*%
X44800000Y-29500000D03*
%TO.P,QTpy,A2*%
%TO.N,unconnected-(QTpy-1-PadA2)*%
X47340000Y-29500000D03*
%TO.P,QTpy,A3*%
%TO.N,unconnected-(QTpy-1-PadA3)*%
X49880000Y-29500000D03*
%TO.P,QTpy,GND*%
%TO.N,Net-(GROVE-1-GND)*%
X44800000Y-44740000D03*
%TO.P,QTpy,MISO*%
%TO.N,unconnected-(QTpy-1-PadMISO)*%
X52420000Y-44740000D03*
%TO.P,QTpy,MOSI*%
%TO.N,Net-(IR-Re-1-OUT)*%
X49880000Y-44740000D03*
%TO.P,QTpy,RX*%
%TO.N,unconnected-(QTpy-1-PadRX)*%
X57500000Y-44740000D03*
%TO.P,QTpy,SCK*%
%TO.N,unconnected-(QTpy-1-PadSCK)*%
X54960000Y-44740000D03*
%TO.P,QTpy,SCL*%
%TO.N,unconnected-(QTpy-1-PadSCL)*%
X54960000Y-29500000D03*
%TO.P,QTpy,SDA*%
%TO.N,unconnected-(QTpy-1-PadSDA)*%
X52420000Y-29500000D03*
%TO.P,QTpy,TX*%
%TO.N,unconnected-(QTpy-1-PadTX)*%
X57500000Y-29500000D03*
%TD*%
D19*
%TO.P,USB-A,5,MH1*%
%TO.N,unconnected-(USB-A-1-MH1-Pad5)*%
X92430000Y-51780000D03*
%TO.P,USB-A,6,MH2*%
%TO.N,unconnected-(USB-A-1-MH2-Pad6)*%
X105570000Y-51780000D03*
%TD*%
D20*
%TO.P,IR-Re,1,OUT*%
%TO.N,Net-(IR-Re-1-OUT)*%
X70500000Y-29400000D03*
D16*
%TO.P,IR-Re,2,GND*%
%TO.N,Net-(GROVE-1-GND)*%
X67960000Y-29400000D03*
%TO.P,IR-Re,3,Vs*%
%TO.N,Net-(IR-Re-1-Vs)*%
X65420000Y-29400000D03*
%TD*%
D12*
%TO.P,USB-C,CC1*%
%TO.N,unconnected-(USB-C-1-PadCC1)*%
X50000000Y-60160000D03*
%TO.P,USB-C,CC2*%
%TO.N,unconnected-(USB-C-1-PadCC2)*%
X50000000Y-50000000D03*
%TO.P,USB-C,D+*%
%TO.N,unconnected-(USB-C-1-PadD+)*%
X50000000Y-55080000D03*
%TO.P,USB-C,D-*%
%TO.N,unconnected-(USB-C-1-PadD-)*%
X50000000Y-57620000D03*
%TO.P,USB-C,GND*%
%TO.N,Net-(GROVE-1-GND)*%
X50000000Y-67780000D03*
%TO.P,USB-C,SBU1*%
%TO.N,unconnected-(USB-C-1-PadSBU1)*%
X50000000Y-52540000D03*
%TO.P,USB-C,SBU2*%
%TO.N,unconnected-(USB-C-1-PadSBU2)*%
X50000000Y-62700000D03*
%TO.P,USB-C,VBUS*%
%TO.N,Net-(USB-A-1-5V)*%
X50000000Y-65240000D03*
%TD*%
D11*
%TO.P,RPi-Zero,1*%
%TO.N,Net-(GROVE-1-3.3V)*%
X116130000Y-63270000D03*
D21*
%TO.P,RPi-Zero,2*%
%TO.N,Net-(USB-A-1-5V)*%
X116130000Y-60730000D03*
%TO.P,RPi-Zero,3*%
%TO.N,Net-(GROVE-1-SCL)*%
X113590000Y-63270000D03*
%TO.P,RPi-Zero,4*%
%TO.N,unconnected-(RPi-Zero-1-Pad4)*%
X113590000Y-60730000D03*
%TO.P,RPi-Zero,5*%
%TO.N,Net-(GROVE-1-SDA)*%
X111050000Y-63270000D03*
%TO.P,RPi-Zero,6*%
%TO.N,unconnected-(RPi-Zero-1-Pad6)*%
X111050000Y-60730000D03*
%TO.P,RPi-Zero,7*%
%TO.N,unconnected-(RPi-Zero-1-Pad7)*%
X108510000Y-63270000D03*
%TO.P,RPi-Zero,8*%
%TO.N,unconnected-(RPi-Zero-1-Pad8)*%
X108510000Y-60730000D03*
%TO.P,RPi-Zero,9*%
%TO.N,Net-(GROVE-1-GND)*%
X105970000Y-63270000D03*
%TO.P,RPi-Zero,10*%
%TO.N,unconnected-(RPi-Zero-1-Pad10)*%
X105970000Y-60730000D03*
%TO.P,RPi-Zero,11*%
%TO.N,unconnected-(RPi-Zero-1-Pad11)*%
X103430000Y-63270000D03*
%TO.P,RPi-Zero,12*%
%TO.N,Net-(IR-LED-1-K)*%
X103430000Y-60730000D03*
%TO.P,RPi-Zero,13*%
%TO.N,Net-(5WayNav-1-C)*%
X100890000Y-63270000D03*
%TO.P,RPi-Zero,14*%
%TO.N,unconnected-(RPi-Zero-1-Pad14)*%
X100890000Y-60730000D03*
%TO.P,RPi-Zero,15*%
%TO.N,Net-(5WayNav-1-B)*%
X98350000Y-63270000D03*
%TO.P,RPi-Zero,16*%
%TO.N,unconnected-(RPi-Zero-1-Pad16)*%
X98350000Y-60730000D03*
%TO.P,RPi-Zero,17*%
%TO.N,unconnected-(RPi-Zero-1-Pad17)*%
X95810000Y-63270000D03*
%TO.P,RPi-Zero,18*%
%TO.N,unconnected-(RPi-Zero-1-Pad18)*%
X95810000Y-60730000D03*
%TO.P,RPi-Zero,19*%
%TO.N,Net-(5WayNav-1-A)*%
X93270000Y-63270000D03*
%TO.P,RPi-Zero,20*%
%TO.N,unconnected-(RPi-Zero-1-Pad20)*%
X93270000Y-60730000D03*
%TO.P,RPi-Zero,21*%
%TO.N,Net-(5WayNav-1-CENTER)*%
X90730000Y-63270000D03*
%TO.P,RPi-Zero,22*%
%TO.N,unconnected-(RPi-Zero-1-Pad22)*%
X90730000Y-60730000D03*
%TO.P,RPi-Zero,23*%
%TO.N,Net-(5WayNav-1-D)*%
X88190000Y-63270000D03*
%TO.P,RPi-Zero,24*%
%TO.N,unconnected-(RPi-Zero-1-Pad24)*%
X88190000Y-60730000D03*
%TO.P,RPi-Zero,25*%
%TO.N,unconnected-(RPi-Zero-1-Pad25)*%
X85650000Y-63270000D03*
%TO.P,RPi-Zero,26*%
%TO.N,unconnected-(RPi-Zero-1-Pad26)*%
X85650000Y-60730000D03*
%TO.P,RPi-Zero,27*%
%TO.N,unconnected-(RPi-Zero-1-Pad27)*%
X83110000Y-63270000D03*
%TO.P,RPi-Zero,28*%
%TO.N,unconnected-(RPi-Zero-1-Pad28)*%
X83110000Y-60730000D03*
%TO.P,RPi-Zero,29*%
%TO.N,Net-(RPi-Zero-1-Pad29)*%
X80570000Y-63270000D03*
%TO.P,RPi-Zero,30*%
%TO.N,unconnected-(RPi-Zero-1-Pad30)*%
X80570000Y-60730000D03*
%TO.P,RPi-Zero,31*%
%TO.N,unconnected-(RPi-Zero-1-Pad31)*%
X78030000Y-63270000D03*
%TO.P,RPi-Zero,32*%
%TO.N,unconnected-(RPi-Zero-1-Pad32)*%
X78030000Y-60730000D03*
%TO.P,RPi-Zero,33*%
%TO.N,unconnected-(RPi-Zero-1-Pad33)*%
X75490000Y-63270000D03*
%TO.P,RPi-Zero,34*%
%TO.N,unconnected-(RPi-Zero-1-Pad34)*%
X75490000Y-60730000D03*
%TO.P,RPi-Zero,35*%
%TO.N,unconnected-(RPi-Zero-1-Pad35)*%
X72950000Y-63270000D03*
%TO.P,RPi-Zero,36*%
%TO.N,unconnected-(RPi-Zero-1-Pad36)*%
X72950000Y-60730000D03*
%TO.P,RPi-Zero,37*%
%TO.N,unconnected-(RPi-Zero-1-Pad37)*%
X70410000Y-63270000D03*
%TO.P,RPi-Zero,38*%
%TO.N,unconnected-(RPi-Zero-1-Pad38)*%
X70410000Y-60730000D03*
%TO.P,RPi-Zero,39*%
%TO.N,unconnected-(RPi-Zero-1-Pad39)*%
X67870000Y-63270000D03*
%TO.P,RPi-Zero,40*%
%TO.N,unconnected-(RPi-Zero-1-Pad40)*%
X67870000Y-60730000D03*
D12*
%TO.P,RPi-Zero,PP22*%
%TO.N,Net-(USB-A-1-D+)*%
X81975000Y-86350000D03*
%TO.P,RPi-Zero,PP23*%
%TO.N,Net-(USB-A-1-D-)*%
X84515000Y-86350000D03*
%TD*%
D22*
%TO.N,Net-(GROVE-1-3.3V)*%
X70000000Y-49000000D03*
X70000000Y-55000000D03*
%TO.N,Net-(IR-LED-1-K)*%
X72000000Y-49000000D03*
X72000000Y-56000000D03*
%TO.N,Net-(GROVE-1-GND)*%
X54000000Y-67000000D03*
X56000000Y-67000000D03*
%TO.N,Net-(USB-A-1-D+)*%
X61000000Y-66000000D03*
%TO.N,Net-(USB-A-1-D-)*%
X62000000Y-66000000D03*
%TO.N,Net-(GROVE-1-GND)*%
X54000000Y-63000000D03*
X54000000Y-60000000D03*
%TO.N,Net-(RPi-Zero-1-Pad29)*%
X91000000Y-66000000D03*
%TO.N,Net-(5WayNav-1-D)*%
X93000000Y-66000000D03*
%TO.N,Net-(5WayNav-1-CENTER)*%
X95000000Y-66000000D03*
%TO.N,Net-(5WayNav-1-A)*%
X97000000Y-66000000D03*
%TO.N,Net-(5WayNav-1-B)*%
X99000000Y-66000000D03*
%TO.N,Net-(5WayNav-1-C)*%
X101000000Y-66000000D03*
%TO.N,Net-(5WayNav-1-CENTER)*%
X155000000Y-121000000D03*
X151000000Y-121000000D03*
%TO.N,Net-(RPi-Zero-1-Pad29)*%
X145000000Y-141000000D03*
X141000000Y-141000000D03*
X91000000Y-71000000D03*
%TO.N,Net-(5WayNav-1-D)*%
X93000000Y-71000000D03*
X136000000Y-115000000D03*
X141000000Y-115000000D03*
%TO.N,Net-(5WayNav-1-CENTER)*%
X136000000Y-113000000D03*
X141000000Y-113000000D03*
X95000000Y-71000000D03*
%TO.N,Net-(5WayNav-1-A)*%
X97000000Y-71000000D03*
%TO.N,Net-(5WayNav-1-B)*%
X99000000Y-71000000D03*
%TO.N,Net-(5WayNav-1-C)*%
X101000000Y-71000000D03*
%TO.N,Net-(GROVE-1-GND)*%
X155000000Y-43000000D03*
X151000000Y-43000000D03*
%TO.N,Net-(USB-A-1-5V)*%
X116000000Y-57000000D03*
X116000000Y-46000000D03*
%TO.N,Net-(USB-A-1-D+)*%
X61000000Y-72000000D03*
%TO.N,Net-(USB-A-1-D-)*%
X62000000Y-71000000D03*
%TO.N,Net-(GROVE-1-3.3V)*%
X104000000Y-68000000D03*
X111400000Y-68000000D03*
%TO.N,Net-(GROVE-1-SCL)*%
X108000000Y-69000000D03*
X104000000Y-69000000D03*
%TO.N,Net-(GROVE-1-3.3V)*%
X55000000Y-62000000D03*
X55000000Y-58000000D03*
%TO.N,Net-(USB-A-1-5V)*%
X85000000Y-48000000D03*
D23*
X85000000Y-46000000D03*
X85000000Y-52000000D03*
%TD*%
D24*
%TO.N,Net-(IR-LED-1-K)*%
X72000000Y-49000000D02*
X72000000Y-56000000D01*
%TO.N,Net-(GROVE-1-3.3V)*%
X70000000Y-50000000D02*
X70000000Y-49000000D01*
X70000000Y-55000000D02*
X70000000Y-50000000D01*
%TO.N,Net-(GROVE-1-GND)*%
X56000000Y-67000000D02*
X54000000Y-67000000D01*
%TO.N,Net-(USB-A-1-D+)*%
X61000000Y-67000000D02*
X61000000Y-66000000D01*
%TO.N,Net-(USB-A-1-D-)*%
X62000000Y-67000000D02*
X62000000Y-66000000D01*
%TO.N,Net-(GROVE-1-GND)*%
X54000000Y-60000000D02*
X54000000Y-63000000D01*
%TO.N,Net-(RPi-Zero-1-Pad29)*%
X91000000Y-67000000D02*
X91000000Y-66000000D01*
%TO.N,Net-(5WayNav-1-D)*%
X93000000Y-67000000D02*
X93000000Y-66000000D01*
%TO.N,Net-(5WayNav-1-CENTER)*%
X95000000Y-67000000D02*
X95000000Y-66000000D01*
%TO.N,Net-(5WayNav-1-A)*%
X97000000Y-67000000D02*
X97000000Y-66000000D01*
%TO.N,Net-(5WayNav-1-B)*%
X99000000Y-67000000D02*
X99000000Y-66000000D01*
%TO.N,Net-(5WayNav-1-C)*%
X101000000Y-67000000D02*
X101000000Y-66000000D01*
%TO.N,Net-(5WayNav-1-CENTER)*%
X151000000Y-121000000D02*
X155000000Y-121000000D01*
%TO.N,Net-(RPi-Zero-1-Pad29)*%
X145000000Y-141000000D02*
X141000000Y-141000000D01*
X91000000Y-67000000D02*
X91000000Y-71000000D01*
%TO.N,Net-(5WayNav-1-D)*%
X93000000Y-67000000D02*
X93000000Y-71000000D01*
X136000000Y-115000000D02*
X141000000Y-115000000D01*
%TO.N,Net-(5WayNav-1-CENTER)*%
X95000000Y-67000000D02*
X95000000Y-71000000D01*
X136000000Y-113000000D02*
X141000000Y-113000000D01*
%TO.N,Net-(5WayNav-1-A)*%
X97000000Y-67000000D02*
X97000000Y-71000000D01*
%TO.N,Net-(5WayNav-1-B)*%
X99000000Y-67000000D02*
X99000000Y-71000000D01*
%TO.N,Net-(5WayNav-1-C)*%
X101000000Y-67000000D02*
X101000000Y-71000000D01*
%TO.N,Net-(GROVE-1-GND)*%
X155000000Y-43000000D02*
X151000000Y-43000000D01*
%TO.N,Net-(USB-A-1-5V)*%
X116000000Y-57000000D02*
X116000000Y-46000000D01*
%TO.N,Net-(USB-A-1-D+)*%
X61000000Y-72000000D02*
X61000000Y-67000000D01*
%TO.N,Net-(USB-A-1-D-)*%
X62000000Y-67000000D02*
X62000000Y-71000000D01*
%TO.N,Net-(GROVE-1-3.3V)*%
X104000000Y-68000000D02*
X111400000Y-68000000D01*
%TO.N,Net-(GROVE-1-SCL)*%
X108000000Y-69000000D02*
X104000000Y-69000000D01*
%TO.N,Net-(GROVE-1-3.3V)*%
X55000000Y-58000000D02*
X55000000Y-62000000D01*
%TO.N,Net-(USB-A-1-5V)*%
X85000000Y-48000000D02*
X85000000Y-52000000D01*
X85000000Y-46000000D02*
X85000000Y-48000000D01*
%TD*%
M02*
