%TF.GenerationSoftware,KiCad,Pcbnew,8.0.7-8.0.7-0~ubuntu22.04.1*%
%TF.CreationDate,2025-04-19T16:29:59-04:00*%
%TF.ProjectId,whackberry_mobo,77686163-6b62-4657-9272-795f6d6f626f,rev?*%
%TF.SameCoordinates,Original*%
%TF.FileFunction,Profile,NP*%
%FSLAX46Y46*%
G04 Gerber Fmt 4.6, Leading zero omitted, Abs format (unit mm)*
G04 Created by KiCad (PCBNEW 8.0.7-8.0.7-0~ubuntu22.04.1) date 2025-04-19 16:29:59*
%MOMM*%
%LPD*%
G01*
G04 APERTURE LIST*
%TA.AperFunction,Profile*%
%ADD10C,0.050000*%
%TD*%
G04 APERTURE END LIST*
D10*
X149375000Y-48000000D02*
G75*
G02*
X146625000Y-48000000I-1375000J0D01*
G01*
X146625000Y-48000000D02*
G75*
G02*
X149375000Y-48000000I1375000J0D01*
G01*
X149375000Y-81000000D02*
G75*
G02*
X146625000Y-81000000I-1375000J0D01*
G01*
X146625000Y-81000000D02*
G75*
G02*
X149375000Y-81000000I1375000J0D01*
G01*
X144500000Y-46000000D02*
X144500000Y-83000000D01*
X125500000Y-155000000D02*
X126000000Y-155000000D01*
X87500000Y-41500000D02*
G75*
G02*
X86000000Y-40000000I0J1500000D01*
G01*
X132375000Y-165000000D02*
G75*
G02*
X129625000Y-165000000I-1375000J0D01*
G01*
X129625000Y-165000000D02*
G75*
G02*
X132375000Y-165000000I1375000J0D01*
G01*
X159500000Y-20500000D02*
X159500000Y-167500000D01*
X149375000Y-23000000D02*
G75*
G02*
X146625000Y-23000000I-1375000J0D01*
G01*
X146625000Y-23000000D02*
G75*
G02*
X149375000Y-23000000I1375000J0D01*
G01*
X39500000Y-169000000D02*
G75*
G02*
X38000000Y-167500000I0J1500000D01*
G01*
X117375000Y-23000000D02*
G75*
G02*
X114625000Y-23000000I-1375000J0D01*
G01*
X114625000Y-23000000D02*
G75*
G02*
X117375000Y-23000000I1375000J0D01*
G01*
X43375000Y-73000000D02*
G75*
G02*
X40625000Y-73000000I-1375000J0D01*
G01*
X40625000Y-73000000D02*
G75*
G02*
X43375000Y-73000000I1375000J0D01*
G01*
X126500000Y-164500000D02*
G75*
G02*
X126000000Y-165000000I-500000J0D01*
G01*
X125000000Y-83000000D02*
X125000000Y-46000000D01*
X117375000Y-107000000D02*
G75*
G02*
X114625000Y-107000000I-1375000J0D01*
G01*
X114625000Y-107000000D02*
G75*
G02*
X117375000Y-107000000I1375000J0D01*
G01*
X143500000Y-84000000D02*
X126000000Y-84000000D01*
X125000000Y-46000000D02*
G75*
G02*
X126000000Y-45000000I1000000J0D01*
G01*
X126000000Y-45000000D02*
X143500000Y-45000000D01*
X40000000Y-46500000D02*
G75*
G02*
X40000000Y-47500000I0J-500000D01*
G01*
X112000000Y-20500000D02*
G75*
G02*
X113500000Y-19000000I1500000J0D01*
G01*
X149375000Y-107000000D02*
G75*
G02*
X146625000Y-107000000I-1375000J0D01*
G01*
X146625000Y-107000000D02*
G75*
G02*
X149375000Y-107000000I1375000J0D01*
G01*
X51375000Y-23000000D02*
G75*
G02*
X48625000Y-23000000I-1375000J0D01*
G01*
X48625000Y-23000000D02*
G75*
G02*
X51375000Y-23000000I1375000J0D01*
G01*
X38000000Y-20500000D02*
G75*
G02*
X39500000Y-19000000I1500000J0D01*
G01*
X74000000Y-21000000D02*
G75*
G02*
X73000000Y-21000000I-500000J0D01*
G01*
X38500000Y-46500000D02*
X40000000Y-46500000D01*
X40000000Y-47500000D02*
X38500000Y-47500000D01*
X126000000Y-84000000D02*
G75*
G02*
X125000000Y-83000000I0J1000000D01*
G01*
X126000000Y-118000000D02*
G75*
G02*
X126500000Y-118500000I0J-500000D01*
G01*
X43375000Y-85000000D02*
G75*
G02*
X40625000Y-85000000I-1375000J0D01*
G01*
X40625000Y-85000000D02*
G75*
G02*
X43375000Y-85000000I1375000J0D01*
G01*
X126500000Y-155500000D02*
X126500000Y-164500000D01*
X112000000Y-40000000D02*
G75*
G02*
X110500000Y-41500000I-1500000J0D01*
G01*
X74000000Y-21000000D02*
X74000000Y-19500000D01*
X51375000Y-107000000D02*
G75*
G02*
X48625000Y-107000000I-1375000J0D01*
G01*
X48625000Y-107000000D02*
G75*
G02*
X51375000Y-107000000I1375000J0D01*
G01*
X83375000Y-23000000D02*
G75*
G02*
X80625000Y-23000000I-1375000J0D01*
G01*
X80625000Y-23000000D02*
G75*
G02*
X83375000Y-23000000I1375000J0D01*
G01*
X126000000Y-155000000D02*
G75*
G02*
X126500000Y-155500000I0J-500000D01*
G01*
X113500000Y-19000000D02*
X158000000Y-19000000D01*
X73000000Y-19500000D02*
X73000000Y-21000000D01*
X126000000Y-165000000D02*
X125500000Y-165000000D01*
X125000000Y-118500000D02*
G75*
G02*
X125500000Y-118000000I500000J0D01*
G01*
X86000000Y-40000000D02*
X86000000Y-20500000D01*
X144500000Y-83000000D02*
G75*
G02*
X143500000Y-84000000I-1000000J0D01*
G01*
X158000000Y-169000000D02*
X39500000Y-169000000D01*
X126500000Y-127500000D02*
X126500000Y-118500000D01*
X156375000Y-165000000D02*
G75*
G02*
X153625000Y-165000000I-1375000J0D01*
G01*
X153625000Y-165000000D02*
G75*
G02*
X156375000Y-165000000I1375000J0D01*
G01*
X72500000Y-19000000D02*
G75*
G02*
X73000000Y-19500000I0J-500000D01*
G01*
X38500000Y-46500000D02*
G75*
G02*
X38000000Y-46000000I0J500000D01*
G01*
X126500000Y-127500000D02*
G75*
G02*
X126000000Y-128000000I-500000J0D01*
G01*
X39500000Y-19000000D02*
X72500000Y-19000000D01*
X125500000Y-128000000D02*
G75*
G02*
X125000000Y-127500000I0J500000D01*
G01*
X126000000Y-118000000D02*
X125500000Y-118000000D01*
X159500000Y-167500000D02*
G75*
G02*
X158000000Y-169000000I-1500000J0D01*
G01*
X87500000Y-41500000D02*
X110500000Y-41500000D01*
X74000000Y-19500000D02*
G75*
G02*
X74500000Y-19000000I500000J0D01*
G01*
X84500000Y-19000000D02*
G75*
G02*
X86000000Y-20500000I0J-1500000D01*
G01*
X112000000Y-40000000D02*
X112000000Y-20500000D01*
X125500000Y-128000000D02*
X126000000Y-128000000D01*
X125000000Y-155500000D02*
G75*
G02*
X125500000Y-155000000I500000J0D01*
G01*
X83375000Y-107000000D02*
G75*
G02*
X80625000Y-107000000I-1375000J0D01*
G01*
X80625000Y-107000000D02*
G75*
G02*
X83375000Y-107000000I1375000J0D01*
G01*
X38000000Y-48000000D02*
G75*
G02*
X38500000Y-47500000I500000J0D01*
G01*
X84500000Y-19000000D02*
X74500000Y-19000000D01*
X38000000Y-46000000D02*
X38000000Y-20500000D01*
X125000000Y-164500000D02*
X125000000Y-155500000D01*
X38000000Y-167500000D02*
X38000000Y-48000000D01*
X158000000Y-19000000D02*
G75*
G02*
X159500000Y-20500000I0J-1500000D01*
G01*
X143500000Y-45000000D02*
G75*
G02*
X144500000Y-46000000I0J-1000000D01*
G01*
X125000000Y-118500000D02*
X125000000Y-127500000D01*
X125500000Y-165000000D02*
G75*
G02*
X125000000Y-164500000I0J500000D01*
G01*
M02*
