M48
; DRILL file {KiCad 8.0.7-8.0.7-0~ubuntu22.04.1} date 2026-01-24T15:26:49-0500
; FORMAT={-:-/ absolute / inch / decimal}
; #@! TF.CreationDate,2026-01-24T15:26:49-05:00
; #@! TF.GenerationSoftware,Kicad,Pcbnew,8.0.7-8.0.7-0~ubuntu22.04.1
; #@! TF.FileFunction,Plated,1,2,PTH
FMAT,2
INCH
; #@! TA.AperFunction,Plated,PTH,ViaDrill
T1C0.0118
; #@! TA.AperFunction,Plated,PTH,ComponentDrill
T2C0.0315
; #@! TA.AperFunction,Plated,PTH,ComponentDrill
T3C0.0354
; #@! TA.AperFunction,Plated,PTH,ComponentDrill
T4C0.0366
; #@! TA.AperFunction,Plated,PTH,ComponentDrill
T5C0.0394
; #@! TA.AperFunction,Plated,PTH,ComponentDrill
T6C0.0472
; #@! TA.AperFunction,Plated,PTH,ComponentDrill
T7C0.0594
; #@! TA.AperFunction,Plated,PTH,ComponentDrill
T8C0.0906
; #@! TA.AperFunction,Plated,PTH,ComponentDrill
T9C0.1181
%
G90
G05
T1
X2.126Y-2.3622
X2.126Y-2.4803
X2.126Y-2.6378
X2.1654Y-2.2835
X2.1654Y-2.4409
X2.2047Y-2.6378
X2.3622Y-1.1024
X2.4016Y-2.5984
X2.4016Y-2.8346
X2.4409Y-2.5984
X2.4409Y-2.7953
X2.4803Y-1.1024
X2.7559Y-1.9291
X2.7559Y-2.1654
X2.8346Y-1.9291
X2.8346Y-2.2047
X3.1102Y-1.811
X3.1102Y-1.9685
X3.3465Y-1.811
X3.3465Y-1.8898
X3.3465Y-2.0472
X3.5827Y-2.5984
X3.5827Y-2.7953
X3.6614Y-2.5984
X3.6614Y-2.7953
X3.7402Y-2.5984
X3.7402Y-2.7953
X3.8189Y-2.5984
X3.8189Y-2.7953
X3.8976Y-2.5984
X3.8976Y-2.7953
X3.9764Y-2.5984
X3.9764Y-2.7953
X4.0945Y-2.6772
X4.0945Y-2.7165
X4.252Y-2.7165
X4.3858Y-2.6772
X4.5669Y-1.811
X4.5669Y-2.2441
X5.3543Y-4.4488
X5.3543Y-4.5276
X5.5512Y-4.4488
X5.5512Y-4.5276
X5.5512Y-5.5512
X5.7087Y-5.5512
X5.9449Y-1.6929
X5.9449Y-4.7638
X6.1024Y-1.6929
X6.1024Y-4.7638
T2
X4.4063Y-2.1457
X4.8063Y-2.1457
T3
X2.5756Y-1.1575
X2.6205Y-1.6535
X2.6756Y-1.1575
X2.7205Y-1.6535
X2.7756Y-1.1575
T4
X2.3425Y-0.876
X2.3425Y-0.9744
X2.4213Y-0.876
X2.4213Y-0.9744
X2.5Y-0.876
X2.5Y-0.9744
T5
X1.6638Y-1.1614
X1.6638Y-1.7614
X1.7638Y-1.1614
X1.7638Y-1.7614
X1.8638Y-1.1614
X1.8638Y-1.7614
X1.9638Y-1.1614
X1.9638Y-1.7614
X1.9685Y-1.9685
X1.9685Y-2.0685
X1.9685Y-2.1685
X1.9685Y-2.2685
X1.9685Y-2.3685
X1.9685Y-2.4685
X1.9685Y-2.5685
X1.9685Y-2.6685
X2.0638Y-1.1614
X2.0638Y-1.7614
X2.1638Y-1.1614
X2.1638Y-1.7614
X2.2638Y-1.1614
X2.2638Y-1.7614
X2.672Y-2.3909
X2.672Y-2.4909
X2.772Y-2.3909
X2.772Y-2.4909
X2.872Y-2.3909
X2.872Y-2.4909
X2.972Y-2.3909
X2.972Y-2.4909
X3.072Y-2.3909
X3.072Y-2.4909
X3.172Y-2.3909
X3.172Y-2.4909
X3.2274Y-3.3996
X3.272Y-2.3909
X3.272Y-2.4909
X3.3274Y-3.3996
X3.372Y-2.3909
X3.372Y-2.4909
X3.472Y-2.3909
X3.472Y-2.4909
X3.572Y-2.3909
X3.572Y-2.4909
X3.672Y-2.3909
X3.672Y-2.4909
X3.772Y-2.3909
X3.772Y-2.4909
X3.872Y-2.3909
X3.872Y-2.4909
X3.972Y-2.3909
X3.972Y-2.4909
X4.072Y-2.3909
X4.072Y-2.4909
X4.172Y-2.3909
X4.172Y-2.4909
X4.272Y-2.3909
X4.272Y-2.4909
X4.372Y-2.3909
X4.372Y-2.4909
X4.472Y-2.3909
X4.472Y-2.4909
X4.572Y-2.3909
X4.572Y-2.4909
X5.2657Y-5.2657
X5.2657Y-5.4429
X5.4154Y-4.8898
X5.5217Y-5.2657
X5.5217Y-5.4429
X5.7185Y-5.2657
X5.7185Y-5.4429
X5.8209Y-4.8898
X5.9744Y-5.2657
X5.9744Y-5.4429
X6.2017Y-1.5158
X6.2017Y-2.6058
T6
X5.4154Y-4.7441
X5.4154Y-5.0
X5.8209Y-4.7441
X5.8209Y-5.0
T7
X2.2244Y-0.9252
X2.6181Y-0.9252
T8
X3.639Y-2.0386
X4.1563Y-2.0386
T9
X1.6732Y-0.9252
X1.6732Y-4.2244
X6.1102Y-0.9252
X6.1102Y-4.2244
M30
