%TF.GenerationSoftware,KiCad,Pcbnew,8.0.7-8.0.7-0~ubuntu22.04.1*%
%TF.CreationDate,2026-01-24T15:26:46-05:00*%
%TF.ProjectId,whackberry_mobo,77686163-6b62-4657-9272-795f6d6f626f,rev?*%
%TF.SameCoordinates,Original*%
%TF.FileFunction,Copper,L2,Bot*%
%TF.FilePolarity,Positive*%
%FSLAX46Y46*%
G04 Gerber Fmt 4.6, Leading zero omitted, Abs format (unit mm)*
G04 Created by KiCad (PCBNEW 8.0.7-8.0.7-0~ubuntu22.04.1) date 2026-01-24 15:26:46*
%MOMM*%
%LPD*%
G01*
G04 APERTURE LIST*
G04 Aperture macros list*
%AMRoundRect*
0 Rectangle with rounded corners*
0 $1 Rounding radius*
0 $2 $3 $4 $5 $6 $7 $8 $9 X,Y pos of 4 corners*
0 Add a 4 corners polygon primitive as box body*
4,1,4,$2,$3,$4,$5,$6,$7,$8,$9,$2,$3,0*
0 Add four circle primitives for the rounded corners*
1,1,$1+$1,$2,$3*
1,1,$1+$1,$4,$5*
1,1,$1+$1,$6,$7*
1,1,$1+$1,$8,$9*
0 Add four rect primitives between the rounded corners*
20,1,$1+$1,$2,$3,$4,$5,0*
20,1,$1+$1,$4,$5,$6,$7,0*
20,1,$1+$1,$6,$7,$8,$9,0*
20,1,$1+$1,$8,$9,$2,$3,0*%
G04 Aperture macros list end*
%TA.AperFunction,ComponentPad*%
%ADD10R,1.700000X1.700000*%
%TD*%
%TA.AperFunction,ComponentPad*%
%ADD11C,1.700000*%
%TD*%
%TA.AperFunction,ComponentPad*%
%ADD12C,6.451600*%
%TD*%
%TA.AperFunction,ComponentPad*%
%ADD13R,1.800000X1.800000*%
%TD*%
%TA.AperFunction,ComponentPad*%
%ADD14C,1.500000*%
%TD*%
%TA.AperFunction,ComponentPad*%
%ADD15C,1.800000*%
%TD*%
%TA.AperFunction,ComponentPad*%
%ADD16R,1.438000X1.438000*%
%TD*%
%TA.AperFunction,ComponentPad*%
%ADD17C,1.438000*%
%TD*%
%TA.AperFunction,ComponentPad*%
%ADD18C,2.265000*%
%TD*%
%TA.AperFunction,ComponentPad*%
%ADD19C,1.600000*%
%TD*%
%TA.AperFunction,ComponentPad*%
%ADD20O,1.600000X1.600000*%
%TD*%
%TA.AperFunction,ComponentPad*%
%ADD21O,1.700000X1.700000*%
%TD*%
%TA.AperFunction,SMDPad,CuDef*%
%ADD22R,1.120000X2.880000*%
%TD*%
%TA.AperFunction,ComponentPad*%
%ADD23C,3.450000*%
%TD*%
%TA.AperFunction,ComponentPad*%
%ADD24RoundRect,0.248400X0.651600X0.651600X-0.651600X0.651600X-0.651600X-0.651600X0.651600X-0.651600X0*%
%TD*%
%TA.AperFunction,SMDPad,CuDef*%
%ADD25R,3.400000X1.000000*%
%TD*%
%TA.AperFunction,SMDPad,CuDef*%
%ADD26R,3.600000X1.500000*%
%TD*%
%TA.AperFunction,ViaPad*%
%ADD27C,0.600000*%
%TD*%
%TA.AperFunction,ViaPad*%
%ADD28C,0.500000*%
%TD*%
%TA.AperFunction,Conductor*%
%ADD29C,0.200000*%
%TD*%
G04 APERTURE END LIST*
D10*
%TO.P,SW2,1,1*%
%TO.N,Net-(5WayNav-1-COMMON)*%
X145250000Y-133750000D03*
D11*
X151750000Y-133750000D03*
%TO.P,SW2,2,2*%
%TO.N,Net-(RPi-Zero-1-Pad29)*%
X145250000Y-138250000D03*
X151750000Y-138250000D03*
%TD*%
D10*
%TO.P,SW1,1,1*%
%TO.N,Net-(5WayNav-1-COMMON)*%
X133750000Y-133750000D03*
D11*
X140250000Y-133750000D03*
%TO.P,SW1,2,2*%
%TO.N,Net-(5WayNav-1-CENTER)*%
X133750000Y-138250000D03*
X140250000Y-138250000D03*
%TD*%
%TO.P,LCD-1,5V*%
%TO.N,Net-(USB-A-1-5V)*%
X157524000Y-66187400D03*
%TO.P,LCD-1,GND*%
%TO.N,Net-(GROVE-1-GND)*%
X157524000Y-38501400D03*
D12*
%TO.P,LCD-1,SH1*%
%TO.N,N/C*%
X42500000Y-107300000D03*
%TO.P,LCD-1,SH2*%
X155200000Y-107300000D03*
%TO.P,LCD-1,SH3*%
X155200000Y-23500000D03*
%TO.P,LCD-1,SH4*%
X42500000Y-23500000D03*
%TD*%
D13*
%TO.P,5WayNav-1,1,A*%
%TO.N,Net-(5WayNav-1-A)*%
X137550000Y-120500000D03*
D14*
%TO.P,5WayNav-1,2,B*%
%TO.N,Net-(5WayNav-1-B)*%
X137550000Y-124200000D03*
D15*
%TO.P,5WayNav-1,3,C*%
%TO.N,Net-(5WayNav-1-C)*%
X137550000Y-127000000D03*
%TO.P,5WayNav-1,4,COMMON*%
%TO.N,Net-(5WayNav-1-COMMON)*%
X147850000Y-127000000D03*
D14*
%TO.P,5WayNav-1,5,D*%
%TO.N,Net-(5WayNav-1-D)*%
X147850000Y-124200000D03*
D15*
%TO.P,5WayNav-1,6,CENTER*%
%TO.N,Net-(5WayNav-1-CENTER)*%
X147850000Y-120500000D03*
%TD*%
D16*
%TO.P,S1,1*%
%TO.N,Net-(USB-A-1-5V)*%
X63500000Y-24750000D03*
D17*
%TO.P,S1,2*%
%TO.N,Net-(QTpy-1-Pad5V)*%
X61500000Y-24750000D03*
%TO.P,S1,3*%
%TO.N,unconnected-(S1-Pad3)*%
X59500000Y-24750000D03*
%TO.P,S1,4*%
%TO.N,Net-(GROVE-1-GND)*%
X63500000Y-22250000D03*
%TO.P,S1,5*%
%TO.N,Net-(IR-Re-1-GND)*%
X61500000Y-22250000D03*
%TO.P,S1,6*%
%TO.N,unconnected-(S1-Pad6)*%
X59500000Y-22250000D03*
D18*
%TO.P,S1,S1*%
%TO.N,N/C*%
X66500000Y-23500000D03*
%TO.P,S1,S2*%
X56500000Y-23500000D03*
%TD*%
D19*
%TO.P,R1,1*%
%TO.N,Net-(5WayNav-1-COMMON)*%
X122080000Y-54500000D03*
D20*
%TO.P,R1,2*%
%TO.N,Net-(GROVE-1-3.3V)*%
X111920000Y-54500000D03*
%TD*%
D13*
%TO.P,IR-LED-1,1,K*%
%TO.N,Net-(IR-LED-1-K)*%
X69100000Y-42000000D03*
D15*
%TO.P,IR-LED-1,2,A*%
%TO.N,Net-(GROVE-1-3.3V)*%
X66560000Y-42000000D03*
%TD*%
D10*
%TO.P,RPi-Zero-1,1*%
%TO.N,Net-(GROVE-1-3.3V)*%
X116130000Y-63270000D03*
D21*
%TO.P,RPi-Zero-1,2*%
%TO.N,Net-(USB-A-1-5V)*%
X116130000Y-60730000D03*
%TO.P,RPi-Zero-1,3*%
%TO.N,Net-(GROVE-1-SCL)*%
X113590000Y-63270000D03*
%TO.P,RPi-Zero-1,4*%
%TO.N,unconnected-(RPi-Zero-1-Pad4)*%
X113590000Y-60730000D03*
%TO.P,RPi-Zero-1,5*%
%TO.N,Net-(GROVE-1-SDA)*%
X111050000Y-63270000D03*
%TO.P,RPi-Zero-1,6*%
%TO.N,unconnected-(RPi-Zero-1-Pad6)*%
X111050000Y-60730000D03*
%TO.P,RPi-Zero-1,7*%
%TO.N,unconnected-(RPi-Zero-1-Pad7)*%
X108510000Y-63270000D03*
%TO.P,RPi-Zero-1,8*%
%TO.N,unconnected-(RPi-Zero-1-Pad8)*%
X108510000Y-60730000D03*
%TO.P,RPi-Zero-1,9*%
%TO.N,Net-(GROVE-1-GND)*%
X105970000Y-63270000D03*
%TO.P,RPi-Zero-1,10*%
%TO.N,unconnected-(RPi-Zero-1-Pad10)*%
X105970000Y-60730000D03*
%TO.P,RPi-Zero-1,11*%
%TO.N,unconnected-(RPi-Zero-1-Pad11)*%
X103430000Y-63270000D03*
%TO.P,RPi-Zero-1,12*%
%TO.N,Net-(IR-LED-1-K)*%
X103430000Y-60730000D03*
%TO.P,RPi-Zero-1,13*%
%TO.N,Net-(5WayNav-1-C)*%
X100890000Y-63270000D03*
%TO.P,RPi-Zero-1,14*%
%TO.N,unconnected-(RPi-Zero-1-Pad14)*%
X100890000Y-60730000D03*
%TO.P,RPi-Zero-1,15*%
%TO.N,Net-(5WayNav-1-B)*%
X98350000Y-63270000D03*
%TO.P,RPi-Zero-1,16*%
%TO.N,unconnected-(RPi-Zero-1-Pad16)*%
X98350000Y-60730000D03*
%TO.P,RPi-Zero-1,17*%
%TO.N,unconnected-(RPi-Zero-1-Pad17)*%
X95810000Y-63270000D03*
%TO.P,RPi-Zero-1,18*%
%TO.N,unconnected-(RPi-Zero-1-Pad18)*%
X95810000Y-60730000D03*
%TO.P,RPi-Zero-1,19*%
%TO.N,Net-(5WayNav-1-A)*%
X93270000Y-63270000D03*
%TO.P,RPi-Zero-1,20*%
%TO.N,unconnected-(RPi-Zero-1-Pad20)*%
X93270000Y-60730000D03*
%TO.P,RPi-Zero-1,21*%
%TO.N,Net-(5WayNav-1-CENTER)*%
X90730000Y-63270000D03*
%TO.P,RPi-Zero-1,22*%
%TO.N,unconnected-(RPi-Zero-1-Pad22)*%
X90730000Y-60730000D03*
%TO.P,RPi-Zero-1,23*%
%TO.N,Net-(5WayNav-1-D)*%
X88190000Y-63270000D03*
%TO.P,RPi-Zero-1,24*%
%TO.N,unconnected-(RPi-Zero-1-Pad24)*%
X88190000Y-60730000D03*
%TO.P,RPi-Zero-1,25*%
%TO.N,unconnected-(RPi-Zero-1-Pad25)*%
X85650000Y-63270000D03*
%TO.P,RPi-Zero-1,26*%
%TO.N,unconnected-(RPi-Zero-1-Pad26)*%
X85650000Y-60730000D03*
%TO.P,RPi-Zero-1,27*%
%TO.N,unconnected-(RPi-Zero-1-Pad27)*%
X83110000Y-63270000D03*
%TO.P,RPi-Zero-1,28*%
%TO.N,unconnected-(RPi-Zero-1-Pad28)*%
X83110000Y-60730000D03*
%TO.P,RPi-Zero-1,29*%
%TO.N,Net-(RPi-Zero-1-Pad29)*%
X80570000Y-63270000D03*
%TO.P,RPi-Zero-1,30*%
%TO.N,unconnected-(RPi-Zero-1-Pad30)*%
X80570000Y-60730000D03*
%TO.P,RPi-Zero-1,31*%
%TO.N,unconnected-(RPi-Zero-1-Pad31)*%
X78030000Y-63270000D03*
%TO.P,RPi-Zero-1,32*%
%TO.N,unconnected-(RPi-Zero-1-Pad32)*%
X78030000Y-60730000D03*
%TO.P,RPi-Zero-1,33*%
%TO.N,unconnected-(RPi-Zero-1-Pad33)*%
X75490000Y-63270000D03*
%TO.P,RPi-Zero-1,34*%
%TO.N,unconnected-(RPi-Zero-1-Pad34)*%
X75490000Y-60730000D03*
%TO.P,RPi-Zero-1,35*%
%TO.N,unconnected-(RPi-Zero-1-Pad35)*%
X72950000Y-63270000D03*
%TO.P,RPi-Zero-1,36*%
%TO.N,unconnected-(RPi-Zero-1-Pad36)*%
X72950000Y-60730000D03*
%TO.P,RPi-Zero-1,37*%
%TO.N,unconnected-(RPi-Zero-1-Pad37)*%
X70410000Y-63270000D03*
%TO.P,RPi-Zero-1,38*%
%TO.N,unconnected-(RPi-Zero-1-Pad38)*%
X70410000Y-60730000D03*
%TO.P,RPi-Zero-1,39*%
%TO.N,unconnected-(RPi-Zero-1-Pad39)*%
X67870000Y-63270000D03*
%TO.P,RPi-Zero-1,40*%
%TO.N,unconnected-(RPi-Zero-1-Pad40)*%
X67870000Y-60730000D03*
D11*
%TO.P,RPi-Zero-1,PP22*%
%TO.N,Net-(USB-A-1-D+)*%
X81975000Y-86350000D03*
%TO.P,RPi-Zero-1,PP23*%
%TO.N,Net-(USB-A-1-D-)*%
X84515000Y-86350000D03*
%TD*%
%TO.P,QTpy-1,3.3V*%
%TO.N,Net-(IR-Re-1-Vs)*%
X47340000Y-44740000D03*
%TO.P,QTpy-1,5V*%
%TO.N,Net-(QTpy-1-Pad5V)*%
X42260000Y-44740000D03*
%TO.P,QTpy-1,A0*%
%TO.N,unconnected-(QTpy-1-PadA0)*%
X42260000Y-29500000D03*
%TO.P,QTpy-1,A1*%
%TO.N,unconnected-(QTpy-1-PadA1)*%
X44800000Y-29500000D03*
%TO.P,QTpy-1,A2*%
%TO.N,unconnected-(QTpy-1-PadA2)*%
X47340000Y-29500000D03*
%TO.P,QTpy-1,A3*%
%TO.N,unconnected-(QTpy-1-PadA3)*%
X49880000Y-29500000D03*
%TO.P,QTpy-1,GND*%
%TO.N,Net-(IR-Re-1-GND)*%
X44800000Y-44740000D03*
%TO.P,QTpy-1,MISO*%
%TO.N,unconnected-(QTpy-1-PadMISO)*%
X52420000Y-44740000D03*
%TO.P,QTpy-1,MOSI*%
%TO.N,Net-(IR-Re-1-OUT)*%
X49880000Y-44740000D03*
%TO.P,QTpy-1,RX*%
%TO.N,unconnected-(QTpy-1-PadRX)*%
X57500000Y-44740000D03*
%TO.P,QTpy-1,SCK*%
%TO.N,unconnected-(QTpy-1-PadSCK)*%
X54960000Y-44740000D03*
%TO.P,QTpy-1,SCL*%
%TO.N,unconnected-(QTpy-1-PadSCL)*%
X54960000Y-29500000D03*
%TO.P,QTpy-1,SDA*%
%TO.N,unconnected-(QTpy-1-PadSDA)*%
X52420000Y-29500000D03*
%TO.P,QTpy-1,TX*%
%TO.N,unconnected-(QTpy-1-PadTX)*%
X57500000Y-29500000D03*
%TD*%
D22*
%TO.P,USB-A-1,1,5V*%
%TO.N,Net-(USB-A-1-5V)*%
X95500000Y-55360000D03*
%TO.P,USB-A-1,2,D-*%
%TO.N,Net-(USB-A-1-D-)*%
X98000000Y-55360000D03*
%TO.P,USB-A-1,3,D+*%
%TO.N,Net-(USB-A-1-D+)*%
X100000000Y-55360000D03*
%TO.P,USB-A-1,4,GND*%
%TO.N,Net-(GROVE-1-GND)*%
X102500000Y-55360000D03*
D23*
%TO.P,USB-A-1,5,MH1*%
%TO.N,unconnected-(USB-A-1-MH1-Pad5)*%
X92430000Y-51780000D03*
%TO.P,USB-A-1,6,MH2*%
%TO.N,unconnected-(USB-A-1-MH2-Pad6)*%
X105570000Y-51780000D03*
%TD*%
D24*
%TO.P,IR-Re-1,1,OUT*%
%TO.N,Net-(IR-Re-1-OUT)*%
X70500000Y-29400000D03*
D15*
%TO.P,IR-Re-1,2,GND*%
%TO.N,Net-(IR-Re-1-GND)*%
X67960000Y-29400000D03*
%TO.P,IR-Re-1,3,Vs*%
%TO.N,Net-(IR-Re-1-Vs)*%
X65420000Y-29400000D03*
%TD*%
D25*
%TO.P,GROVE-1,1,GND*%
%TO.N,Net-(GROVE-1-GND)*%
X42000000Y-92500000D03*
%TO.P,GROVE-1,2,3.3V*%
%TO.N,Net-(GROVE-1-3.3V)*%
X42000000Y-94500000D03*
%TO.P,GROVE-1,3,SCL*%
%TO.N,Net-(GROVE-1-SCL)*%
X42000000Y-96500000D03*
%TO.P,GROVE-1,4,SDA*%
%TO.N,Net-(GROVE-1-SDA)*%
X42000000Y-98500000D03*
D26*
%TO.P,GROVE-1,MP1,MP1*%
%TO.N,unconnected-(GROVE-1-PadMP1)*%
X49500000Y-90200000D03*
%TO.P,GROVE-1,MP2,MP2*%
%TO.N,unconnected-(GROVE-1-PadMP2)*%
X49500000Y-100800000D03*
%TD*%
D11*
%TO.P,USB-C-1,CC1*%
%TO.N,unconnected-(USB-C-1-PadCC1)*%
X50000000Y-60160000D03*
%TO.P,USB-C-1,CC2*%
%TO.N,unconnected-(USB-C-1-PadCC2)*%
X50000000Y-50000000D03*
%TO.P,USB-C-1,D+*%
%TO.N,unconnected-(USB-C-1-PadD+)*%
X50000000Y-55080000D03*
%TO.P,USB-C-1,D-*%
%TO.N,unconnected-(USB-C-1-PadD-)*%
X50000000Y-57620000D03*
%TO.P,USB-C-1,GND*%
%TO.N,Net-(GROVE-1-GND)*%
X50000000Y-67780000D03*
%TO.P,USB-C-1,SBU1*%
%TO.N,unconnected-(USB-C-1-PadSBU1)*%
X50000000Y-52540000D03*
%TO.P,USB-C-1,SBU2*%
%TO.N,unconnected-(USB-C-1-PadSBU2)*%
X50000000Y-62700000D03*
%TO.P,USB-C-1,VBUS*%
%TO.N,Net-(USB-A-1-5V)*%
X50000000Y-65240000D03*
%TD*%
D27*
%TO.N,Net-(5WayNav-1-B)*%
X99000000Y-71000000D03*
X99000000Y-66000000D03*
%TO.N,Net-(5WayNav-1-D)*%
X141000000Y-115000000D03*
X136000000Y-115000000D03*
X93000000Y-71000000D03*
X93000000Y-66000000D03*
%TO.N,Net-(5WayNav-1-C)*%
X101000000Y-71000000D03*
X101000000Y-66000000D03*
%TO.N,Net-(5WayNav-1-CENTER)*%
X141000000Y-113000000D03*
X155000000Y-121000000D03*
X151000000Y-121000000D03*
X95000000Y-66000000D03*
X136000000Y-113000000D03*
X95000000Y-71000000D03*
%TO.N,Net-(5WayNav-1-A)*%
X97000000Y-66000000D03*
X97000000Y-71000000D03*
%TO.N,Net-(GROVE-1-3.3V)*%
X70000000Y-49000000D03*
X70000000Y-55000000D03*
X104000000Y-68000000D03*
X55000000Y-58000000D03*
X55000000Y-62000000D03*
X111400000Y-68000000D03*
%TO.N,Net-(GROVE-1-SCL)*%
X104000000Y-69000000D03*
X108000000Y-69000000D03*
%TO.N,Net-(GROVE-1-GND)*%
X54000000Y-60000000D03*
X54000000Y-67000000D03*
X54000000Y-63000000D03*
X56000000Y-67000000D03*
X151000000Y-43000000D03*
X155000000Y-43000000D03*
%TO.N,Net-(IR-LED-1-K)*%
X72000000Y-56000000D03*
X72000000Y-49000000D03*
%TO.N,Net-(USB-A-1-5V)*%
X85000000Y-48000000D03*
X116000000Y-46000000D03*
X79000000Y-50000000D03*
X116000000Y-57000000D03*
D28*
X85000000Y-46000000D03*
D27*
X79000000Y-46000000D03*
D28*
X85000000Y-52000000D03*
D27*
%TO.N,Net-(RPi-Zero-1-Pad29)*%
X91000000Y-66000000D03*
X141000000Y-141000000D03*
X145000000Y-141000000D03*
X91000000Y-71000000D03*
%TO.N,Net-(USB-A-1-D-)*%
X62000000Y-71000000D03*
X62000000Y-66000000D03*
%TO.N,Net-(USB-A-1-D+)*%
X61000000Y-66000000D03*
X61000000Y-72000000D03*
%TO.N,Net-(IR-Re-1-GND)*%
X60000000Y-28000000D03*
X63000000Y-28000000D03*
%TD*%
D29*
%TO.N,Net-(5WayNav-1-B)*%
X139000000Y-122750000D02*
X137550000Y-124200000D01*
X99000000Y-66000000D02*
X99000000Y-63920000D01*
X99000000Y-71000000D02*
X139000000Y-111000000D01*
X139000000Y-111000000D02*
X139000000Y-122750000D01*
X99000000Y-63920000D02*
X98350000Y-63270000D01*
%TO.N,Net-(5WayNav-1-D)*%
X141000000Y-115000000D02*
X141000000Y-117350000D01*
X92000000Y-65000000D02*
X89920000Y-65000000D01*
X89920000Y-65000000D02*
X88190000Y-63270000D01*
X141000000Y-117350000D02*
X147850000Y-124200000D01*
X93000000Y-66000000D02*
X92000000Y-65000000D01*
X93000000Y-71000000D02*
X136000000Y-114000000D01*
X136000000Y-114000000D02*
X136000000Y-115000000D01*
%TO.N,Net-(5WayNav-1-COMMON)*%
X151750000Y-122000000D02*
X151750000Y-117750000D01*
X145250000Y-133750000D02*
X151750000Y-133750000D01*
X147850000Y-127000000D02*
X151750000Y-123100000D01*
X151750000Y-117750000D02*
X124000000Y-90000000D01*
X124000000Y-90000000D02*
X124000000Y-60000000D01*
X151750000Y-133750000D02*
X151750000Y-122000000D01*
X151750000Y-123100000D02*
X151750000Y-122000000D01*
X140250000Y-133750000D02*
X145250000Y-133750000D01*
X122080000Y-58080000D02*
X122080000Y-54500000D01*
X124000000Y-60000000D02*
X122080000Y-58080000D01*
X133750000Y-133750000D02*
X140250000Y-133750000D01*
%TO.N,Net-(5WayNav-1-C)*%
X140000000Y-124550000D02*
X140000000Y-123000000D01*
X101000000Y-71000000D02*
X140000000Y-110000000D01*
X140000000Y-110000000D02*
X140000000Y-123000000D01*
X137550000Y-127000000D02*
X140000000Y-124550000D01*
X100890000Y-65890000D02*
X100890000Y-63270000D01*
X101000000Y-66000000D02*
X100890000Y-65890000D01*
%TO.N,Net-(5WayNav-1-CENTER)*%
X141000000Y-113000000D02*
X141000000Y-113650000D01*
X144000000Y-142000000D02*
X140250000Y-138250000D01*
X93000000Y-65000000D02*
X91270000Y-63270000D01*
X95000000Y-71000000D02*
X136000000Y-112000000D01*
X155000000Y-121000000D02*
X155000000Y-139000000D01*
X95000000Y-66000000D02*
X94000000Y-65000000D01*
X94000000Y-65000000D02*
X93000000Y-65000000D01*
X136000000Y-112000000D02*
X136000000Y-113000000D01*
X152000000Y-142000000D02*
X144000000Y-142000000D01*
X91270000Y-63270000D02*
X90730000Y-63270000D01*
X150500000Y-120500000D02*
X151000000Y-121000000D01*
X133750000Y-138250000D02*
X140250000Y-138250000D01*
X147850000Y-120500000D02*
X150500000Y-120500000D01*
X155000000Y-139000000D02*
X152000000Y-142000000D01*
X141000000Y-113650000D02*
X147850000Y-120500000D01*
%TO.N,Net-(5WayNav-1-A)*%
X97000000Y-66000000D02*
X96000000Y-66000000D01*
X137550000Y-111550000D02*
X137550000Y-120500000D01*
X96000000Y-66000000D02*
X93270000Y-63270000D01*
X97000000Y-71000000D02*
X137550000Y-111550000D01*
%TO.N,Net-(GROVE-1-3.3V)*%
X111920000Y-54500000D02*
X108820000Y-57600000D01*
X83500000Y-56500000D02*
X82000000Y-55000000D01*
X56000000Y-57000000D02*
X55000000Y-58000000D01*
X58000000Y-68000000D02*
X104000000Y-68000000D01*
X85000000Y-57600000D02*
X84600000Y-57600000D01*
X66560000Y-45000000D02*
X66560000Y-45560000D01*
X42000000Y-94500000D02*
X48350000Y-94500000D01*
X82000000Y-55000000D02*
X70000000Y-55000000D01*
X66560000Y-42000000D02*
X66560000Y-45000000D01*
X55000000Y-87850000D02*
X55000000Y-71000000D01*
X66560000Y-45560000D02*
X70000000Y-49000000D01*
X66560000Y-46440000D02*
X56000000Y-57000000D01*
X55000000Y-62000000D02*
X55000000Y-71000000D01*
X108820000Y-57600000D02*
X85000000Y-57600000D01*
X116130000Y-63270000D02*
X111400000Y-68000000D01*
X84600000Y-57600000D02*
X83500000Y-56500000D01*
X66560000Y-45000000D02*
X66560000Y-46440000D01*
X48350000Y-94500000D02*
X55000000Y-87850000D01*
X55000000Y-71000000D02*
X58000000Y-68000000D01*
%TO.N,Net-(GROVE-1-SDA)*%
X57000000Y-88000000D02*
X46500000Y-98500000D01*
X104320000Y-70000000D02*
X58000000Y-70000000D01*
X58000000Y-70000000D02*
X57000000Y-71000000D01*
X111050000Y-63270000D02*
X104320000Y-70000000D01*
X57000000Y-71000000D02*
X57000000Y-88000000D01*
X46500000Y-98500000D02*
X42000000Y-98500000D01*
%TO.N,Net-(GROVE-1-SCL)*%
X58000000Y-69000000D02*
X104000000Y-69000000D01*
X56000000Y-71000000D02*
X58000000Y-69000000D01*
X42000000Y-96500000D02*
X47500000Y-96500000D01*
X113590000Y-63270000D02*
X108000000Y-68860000D01*
X108000000Y-68860000D02*
X108000000Y-69000000D01*
X47500000Y-96500000D02*
X56000000Y-88000000D01*
X56000000Y-88000000D02*
X56000000Y-71000000D01*
%TO.N,Net-(GROVE-1-GND)*%
X63000000Y-67000000D02*
X56000000Y-67000000D01*
X157524000Y-40476000D02*
X155000000Y-43000000D01*
X76500000Y-24000000D02*
X71000000Y-24000000D01*
X54000000Y-63780000D02*
X50000000Y-67780000D01*
X68531000Y-21531000D02*
X64219000Y-21531000D01*
X54000000Y-67000000D02*
X54000000Y-81700000D01*
X120000000Y-47000000D02*
X124000000Y-43000000D01*
X63566346Y-51000000D02*
X63000000Y-51000000D01*
X80000000Y-47000000D02*
X80000000Y-27500000D01*
X94140000Y-47000000D02*
X84000000Y-47000000D01*
X64219000Y-21531000D02*
X63500000Y-22250000D01*
X124000000Y-43000000D02*
X151000000Y-43000000D01*
X54000000Y-67000000D02*
X54000000Y-63780000D01*
X105970000Y-65030000D02*
X104000000Y-67000000D01*
X104000000Y-67000000D02*
X63000000Y-67000000D01*
X102500000Y-55360000D02*
X94140000Y-47000000D01*
X105970000Y-63270000D02*
X105970000Y-65030000D01*
X63566346Y-51000000D02*
X76000000Y-51000000D01*
X63000000Y-51000000D02*
X54000000Y-60000000D01*
X54000000Y-63000000D02*
X54000000Y-63780000D01*
X71000000Y-24000000D02*
X68531000Y-21531000D01*
X80000000Y-47000000D02*
X84000000Y-47000000D01*
X54000000Y-81700000D02*
X43200000Y-92500000D01*
X76000000Y-51000000D02*
X80000000Y-47000000D01*
X94140000Y-47000000D02*
X120000000Y-47000000D01*
X80000000Y-27500000D02*
X76500000Y-24000000D01*
X157524000Y-38501400D02*
X157524000Y-40476000D01*
X43200000Y-92500000D02*
X42000000Y-92500000D01*
%TO.N,Net-(IR-LED-1-K)*%
X69100000Y-46100000D02*
X69100000Y-42000000D01*
X103430000Y-60730000D02*
X100700000Y-58000000D01*
X72000000Y-49000000D02*
X69100000Y-46100000D01*
X100700000Y-58000000D02*
X84000000Y-58000000D01*
X83000000Y-57000000D02*
X82000000Y-56000000D01*
X84000000Y-58000000D02*
X83000000Y-57000000D01*
X82000000Y-56000000D02*
X72000000Y-56000000D01*
%TO.N,Net-(IR-Re-1-OUT)*%
X63620000Y-31000000D02*
X68900000Y-31000000D01*
X63620000Y-31000000D02*
X62000000Y-31000000D01*
X49880000Y-44740000D02*
X49880000Y-38120000D01*
X58000000Y-35000000D02*
X53000000Y-35000000D01*
X68900000Y-31000000D02*
X70500000Y-29400000D01*
X62000000Y-31000000D02*
X58000000Y-35000000D01*
X49880000Y-38120000D02*
X53000000Y-35000000D01*
%TO.N,Net-(IR-Re-1-Vs)*%
X62680000Y-29400000D02*
X65420000Y-29400000D01*
X62600000Y-29400000D02*
X58000000Y-34000000D01*
X47340000Y-44740000D02*
X47340000Y-37660000D01*
X58000000Y-34000000D02*
X51000000Y-34000000D01*
X47340000Y-37660000D02*
X51000000Y-34000000D01*
X62680000Y-29400000D02*
X62600000Y-29400000D01*
%TO.N,Net-(USB-A-1-5V)*%
X116000000Y-46000000D02*
X119000000Y-46000000D01*
X63240000Y-52000000D02*
X77000000Y-52000000D01*
X70000000Y-25500000D02*
X70500000Y-25000000D01*
X75500000Y-25000000D02*
X76000000Y-25000000D01*
X88360000Y-55360000D02*
X85000000Y-52000000D01*
X152000000Y-42000000D02*
X157524000Y-47524000D01*
X95500000Y-55360000D02*
X88360000Y-55360000D01*
X63500000Y-24750000D02*
X64250000Y-25500000D01*
X79000000Y-50000000D02*
X77000000Y-52000000D01*
X64250000Y-25500000D02*
X70000000Y-25500000D01*
X79000000Y-28000000D02*
X79000000Y-46000000D01*
X116130000Y-60730000D02*
X116130000Y-57130000D01*
X119000000Y-46000000D02*
X123000000Y-42000000D01*
X123000000Y-42000000D02*
X152000000Y-42000000D01*
X70500000Y-25000000D02*
X75500000Y-25000000D01*
X76000000Y-25000000D02*
X79000000Y-28000000D01*
X85000000Y-48000000D02*
X81000000Y-48000000D01*
X81000000Y-48000000D02*
X79000000Y-50000000D01*
X85000000Y-46000000D02*
X116000000Y-46000000D01*
X157524000Y-47524000D02*
X157524000Y-66187400D01*
X116130000Y-57130000D02*
X116000000Y-57000000D01*
X50000000Y-65240000D02*
X63240000Y-52000000D01*
%TO.N,Net-(RPi-Zero-1-Pad29)*%
X131000000Y-139000000D02*
X131000000Y-134000000D01*
X141000000Y-141000000D02*
X133000000Y-141000000D01*
X145250000Y-140750000D02*
X145000000Y-141000000D01*
X91000000Y-66000000D02*
X83300000Y-66000000D01*
X145250000Y-138250000D02*
X145250000Y-140750000D01*
X91000000Y-71000000D02*
X131000000Y-111000000D01*
X83300000Y-66000000D02*
X80570000Y-63270000D01*
X151750000Y-138250000D02*
X145250000Y-138250000D01*
X131000000Y-111000000D02*
X131000000Y-134000000D01*
X133000000Y-141000000D02*
X131000000Y-139000000D01*
%TO.N,Net-(USB-A-1-D-)*%
X62000000Y-71000000D02*
X69165000Y-71000000D01*
X69165000Y-71000000D02*
X84515000Y-86350000D01*
X63000000Y-54000000D02*
X57000000Y-60000000D01*
X92520000Y-49000000D02*
X89000000Y-49000000D01*
X57000000Y-60000000D02*
X57000000Y-61000000D01*
X80565686Y-54000000D02*
X74000000Y-54000000D01*
X74000000Y-54000000D02*
X63000000Y-54000000D01*
X85565686Y-49000000D02*
X80565686Y-54000000D01*
X98000000Y-54480000D02*
X92520000Y-49000000D01*
X62000000Y-66000000D02*
X57000000Y-61000000D01*
X98000000Y-55360000D02*
X98000000Y-54480000D01*
X89000000Y-49000000D02*
X85565686Y-49000000D01*
%TO.N,Net-(USB-A-1-D+)*%
X67625000Y-72000000D02*
X67000000Y-72000000D01*
X61000000Y-66000000D02*
X56000000Y-61000000D01*
X67000000Y-72000000D02*
X61000000Y-72000000D01*
X93520000Y-48000000D02*
X86000000Y-48000000D01*
X100000000Y-54480000D02*
X93520000Y-48000000D01*
X83000000Y-51000000D02*
X81000000Y-53000000D01*
X81000000Y-53000000D02*
X75000000Y-53000000D01*
X56000000Y-60000000D02*
X56000000Y-61000000D01*
X100000000Y-55360000D02*
X100000000Y-54480000D01*
X86000000Y-48000000D02*
X83000000Y-51000000D01*
X63000000Y-53000000D02*
X56000000Y-60000000D01*
X75000000Y-53000000D02*
X63000000Y-53000000D01*
X81975000Y-86350000D02*
X67625000Y-72000000D01*
%TO.N,Net-(IR-Re-1-GND)*%
X54000000Y-25000000D02*
X54000000Y-22500000D01*
X54000000Y-22500000D02*
X56000000Y-20500000D01*
X60000000Y-28000000D02*
X57000000Y-28000000D01*
X57000000Y-28000000D02*
X54000000Y-25000000D01*
X66560000Y-28000000D02*
X63000000Y-28000000D01*
X67960000Y-29400000D02*
X66560000Y-28000000D01*
X59750000Y-20500000D02*
X61500000Y-22250000D01*
X44800000Y-44740000D02*
X44800000Y-36634315D01*
X48434315Y-33000000D02*
X58000000Y-33000000D01*
X58000000Y-33000000D02*
X63000000Y-28000000D01*
X56000000Y-20500000D02*
X59750000Y-20500000D01*
X44800000Y-36634315D02*
X48434315Y-33000000D01*
%TO.N,Net-(QTpy-1-Pad5V)*%
X58000000Y-32000000D02*
X46000000Y-32000000D01*
X58000000Y-32000000D02*
X61500000Y-28500000D01*
X61500000Y-28500000D02*
X61500000Y-24750000D01*
X42260000Y-35740000D02*
X46000000Y-32000000D01*
X42260000Y-44740000D02*
X42260000Y-35740000D01*
%TD*%
M02*
